<svg width="257" height="257" viewBox="0 0 257 257" fill="none" xmlns="http://www.w3.org/2000/svg">
<g clip-path="url(#clip0_1342_6131)">
<path d="M128.19 256.522C198.882 256.522 256.19 199.214 256.19 128.521C256.19 57.8287 198.882 0.520996 128.19 0.520996C57.4971 0.520996 0.189697 57.8287 0.189697 128.521C0.189697 199.214 57.4971 256.522 128.19 256.522Z" fill="url(#paint0_linear_1342_6131)"/>
<path d="M128.168 216.016C176.492 216.016 215.666 176.842 215.666 128.518C215.666 80.1944 176.492 41.0203 128.168 41.0203C79.8439 41.0203 40.6697 80.1944 40.6697 128.518C40.6697 176.842 79.8439 216.016 128.168 216.016Z" fill="url(#paint1_linear_1342_6131)"/>
<path fill-rule="evenodd" clip-rule="evenodd" d="M128.191 40.6858C79.6887 40.6858 40.3575 80.0102 40.3575 128.52C40.3575 177.029 79.6818 216.353 128.191 216.353C176.701 216.353 216.025 177.029 216.025 128.52C216.025 80.0102 176.694 40.6858 128.191 40.6858ZM128.191 44.8781C81.9944 44.8781 44.5497 82.3228 44.5497 128.52C44.5497 174.716 81.9944 212.161 128.191 212.161C174.388 212.161 211.833 174.716 211.833 128.52C211.833 82.3228 174.388 44.8781 128.191 44.8781Z" fill="white"/>
<path d="M20.3793 97.2154L31.9835 101.82L33.1861 98.7927L24.6093 95.384L28.2174 86.3019L36.7907 89.7107L37.9969 86.6834L26.3927 82.0789L20.3862 97.2154H20.3793ZM34.5846 67.1483L28.1623 78.1718L38.9556 84.4533L40.5912 81.639L37.7769 80.0034L42.5533 71.7907C43.8315 69.5881 43.0859 66.7635 40.8902 65.4852C38.6944 64.2069 35.8595 64.9526 34.5846 67.1483ZM39.7459 70.1481L34.9695 78.3574L32.6192 76.9966L37.3989 68.784C37.7769 68.138 38.6086 67.9181 39.2546 68.2926C39.9006 68.6706 40.1204 69.5021 39.7459 70.1481ZM49.4876 49.1287L43.0516 55.7503C40.6496 58.2175 40.7115 62.1761 43.1788 64.578C45.6494 66.9799 49.6079 66.9216 52.0098 64.4544L58.4425 57.8327C60.8444 55.3655 60.786 51.407 58.3153 49.005C55.8481 46.6031 51.8896 46.6615 49.4876 49.1287ZM56.1059 55.5648L49.6801 62.183C48.529 63.3616 46.6391 63.3959 45.4605 62.2448C44.2853 61.1005 44.2508 59.2038 45.4019 58.0252L51.8346 51.407C52.9789 50.2283 54.8756 50.1939 56.0611 51.345C57.2466 52.4893 57.2638 54.3861 56.1195 55.5716L56.1059 55.5648ZM56.6145 42.3043L58.5009 44.9571L63.8064 41.1807L69.1601 48.6923L71.8163 46.8023L66.4593 39.2908L71.7613 35.5109L69.8749 32.8547L56.6145 42.3112V42.3043ZM87.2244 24.3912L78.8022 28.1642C75.6615 29.5696 74.2526 33.2739 75.6546 36.4146C77.06 39.5553 80.7644 40.9677 83.9051 39.5622L92.3307 35.7892C95.468 34.3872 96.8803 30.6795 95.4749 27.5387C94.0729 24.398 90.3651 22.9892 87.2244 24.3912ZM90.9974 32.81L82.5752 36.583C81.0701 37.253 79.3005 36.583 78.6304 35.0779C77.9569 33.5728 78.6305 31.8032 80.1321 31.1331L88.5578 27.3601C90.0594 26.6866 91.8291 27.3601 92.5026 28.8652C93.1726 30.3668 92.5024 32.1365 90.9974 32.81ZM109.361 18.1372L110.347 22.3707L100.832 24.5836L99.8457 20.3536L96.674 21.0924L99.5089 33.2533L102.681 32.5179L101.571 27.7587L111.086 25.5423L112.196 30.3015L115.364 29.5627L112.529 17.3985L109.361 18.1372ZM128.538 24.2778L128.439 21.0271L117.587 21.3638L117.687 24.6179L128.538 24.2778ZM137.387 20.3124L148.431 21.6525L148.822 18.419L137.778 17.0788C134.359 16.6665 131.246 19.1097 130.834 22.5288C130.421 25.9478 132.861 29.0645 136.277 29.4768L147.321 30.8135L147.713 27.58L136.668 26.2434C135.029 26.0441 133.868 24.5527 134.067 22.9205C134.267 21.2848 135.758 20.12 137.387 20.3193V20.3124ZM165.619 22.8965L156.21 20.2608L148.658 31.1125L152.056 32.0643L154.028 29.2294L162.822 31.6898L163.035 35.1294L166.437 36.0813L165.622 22.8896L165.619 22.8965ZM155.99 26.4014L157.633 24.0475L162.43 25.3911L162.609 28.2569L155.997 26.4014H155.99ZM184.515 31.6829L173.103 25.9753L167.512 37.1397L170.426 38.5966L171.887 35.6827L180.381 39.9333C182.656 41.0741 185.432 40.1463 186.57 37.8715C187.707 35.5968 186.783 32.8237 184.508 31.6829H184.515ZM181.838 37.0194L173.343 32.7688L174.56 30.3393L183.058 34.5934C183.728 34.9232 183.999 35.7445 183.663 36.4146C183.329 37.0881 182.511 37.3596 181.838 37.0194ZM201.534 43.995L193.854 37.9471L182.718 45.0636L185.491 47.2456L188.398 45.3901L195.579 51.0393L194.452 54.3002L197.229 56.4823L201.538 43.9881L201.534 43.995ZM191.301 43.5345L193.72 41.9847L197.634 45.0636L196.696 47.7783L191.301 43.5276V43.5345ZM204.706 46.7886L202.352 49.0428L206.857 53.747L200.194 60.135L202.452 62.4888L209.111 56.1111L213.616 60.8119L215.97 58.5577L204.706 46.8023V46.7886ZM226.595 75.3266L221.98 67.3339C220.255 64.3547 216.43 63.3273 213.448 65.0523C210.469 66.7738 209.445 70.6018 211.166 73.581L215.785 81.5737C217.51 84.5529 221.334 85.5769 224.313 83.8554C227.296 82.1304 228.32 78.3058 226.595 75.3266ZM218.613 79.9346L213.994 71.9454C213.17 70.5228 213.661 68.6912 215.087 67.8665C216.51 67.0418 218.341 67.5332 219.166 68.9558L223.781 76.9485C224.609 78.3711 224.121 80.2026 222.691 81.0273C221.269 81.852 219.437 81.3607 218.613 79.9346ZM233.096 101.38C235.079 100.696 236.13 98.5315 235.453 96.5488L231.213 84.2265L219.41 88.2915L223.564 100.356C224.296 102.476 226.615 103.617 228.739 102.885C229.564 102.597 230.244 102.064 230.715 101.408C231.467 101.645 232.299 101.659 233.096 101.387V101.38ZM229.193 88.374L232.371 97.6141C232.471 97.8924 232.32 98.2051 232.038 98.2979C231.753 98.3976 231.447 98.2464 231.347 97.968L228.165 88.7245L229.193 88.374ZM226.636 99.2909L223.544 90.3086L225.08 89.776L228.172 98.7583C228.32 99.1844 228.093 99.6449 227.674 99.7892C227.248 99.9369 226.784 99.7102 226.636 99.2841V99.2909Z" fill="white"/>
<path fill-rule="evenodd" clip-rule="evenodd" d="M128.191 40.6858C79.6887 40.6858 40.3575 80.0102 40.3575 128.52C40.3575 177.029 79.6818 216.353 128.191 216.353C176.701 216.353 216.025 177.029 216.025 128.52C216.025 80.0102 176.694 40.6858 128.191 40.6858ZM128.191 44.8781C81.9944 44.8781 44.5497 82.3228 44.5497 128.52C44.5497 174.716 81.9944 212.161 128.191 212.161C174.388 212.161 211.833 174.716 211.833 128.52C211.833 82.3228 174.388 44.8781 128.191 44.8781Z" fill="white"/>
<path d="M28.5162 159.466L31.2961 167.442L33.6326 166.631L30.8494 158.652C29.9938 156.185 27.286 154.882 24.8154 155.738C22.3481 156.597 21.0424 159.305 21.9014 161.772L24.6813 169.751L27.0179 168.94L24.238 160.961C23.8257 159.786 24.4511 158.487 25.6263 158.075C26.8049 157.662 28.1038 158.288 28.5162 159.466ZM38.842 177.462L35.5226 170.83L25.5679 172.119L26.7637 174.514L29.3615 174.177L32.461 180.376L30.6295 182.252L31.8286 184.647L38.8283 177.462H38.842ZM31.9627 173.844L34.1241 173.565L35.8147 176.943L34.289 178.507L31.9558 173.844H31.9627ZM46.4979 189.193L40.8694 181.314L33.1585 186.826L34.5949 188.833L36.6051 187.396L40.7972 193.265C41.9209 194.836 44.1098 195.2 45.6801 194.076C47.2505 192.953 47.6182 190.764 46.4945 189.193H46.4979ZM42.8075 191.829L38.6152 185.96L40.2922 184.761L44.4843 190.63C44.8176 191.097 44.7112 191.74 44.2439 192.066C43.78 192.399 43.1339 192.293 42.8075 191.829ZM55.7862 200.286L50.8449 194.757L41.5841 198.616L43.3642 200.612L45.7798 199.605L50.4049 204.777L49.1336 207.065L50.917 209.062L55.7862 200.286ZM48.1956 198.602L50.2125 197.763L52.7348 200.585L51.6764 202.492L48.2024 198.609L48.1956 198.602ZM57.0508 201.828L55.4734 203.732L59.2808 206.883L54.8103 212.275L56.714 213.852L61.1845 208.46L64.9883 211.615L66.5657 209.711L57.0508 201.822V201.828ZM77.4241 216.944L71.5034 213.199C69.2939 211.8 66.3595 212.46 64.9643 214.67C63.5658 216.879 64.2255 219.814 66.435 221.209L72.3556 224.954C74.5651 226.353 77.4998 225.693 78.8949 223.484C80.2934 221.278 79.6336 218.343 77.4241 216.944ZM73.6786 222.865L67.758 219.12C66.6996 218.456 66.387 217.051 67.0536 215.993C67.7168 214.934 69.1223 214.621 70.1806 215.288L76.1012 219.034C77.1596 219.707 77.4722 221.102 76.8056 222.161C76.1355 223.219 74.737 223.532 73.6786 222.865ZM93.1415 227.597C93.7978 226.147 93.1484 224.436 91.7017 223.779L82.6954 219.7L78.7883 228.336L87.6127 232.329C89.1693 233.033 90.9973 232.342 91.7017 230.782C91.9766 230.177 92.0351 229.528 91.9148 228.92C92.4406 228.628 92.8804 228.174 93.1484 227.59L93.1415 227.597ZM83.9256 222.979L90.6846 226.04C90.8908 226.133 90.9836 226.38 90.8908 226.587C90.7981 226.793 90.554 226.886 90.3444 226.793L83.5853 223.731L83.9256 222.979ZM88.6229 230.078L82.0563 227.105L82.5613 225.982L89.1279 228.954C89.4406 229.095 89.5816 229.459 89.4338 229.772C89.2963 230.085 88.9287 230.219 88.616 230.078H88.6229ZM98.9281 228.689L107.072 230.944L107.732 228.562L99.5947 226.305C97.0725 225.607 94.4575 227.092 93.7668 229.607C93.0659 232.129 94.5503 234.744 97.0657 235.442L105.203 237.696L105.862 235.315L97.7254 233.06C96.5193 232.727 95.8149 231.476 96.1482 230.27C96.4815 229.067 97.7323 228.363 98.935 228.696L98.9281 228.689ZM122.683 230.439L120.02 230.126L118.504 233.267L111.656 232.466L112.037 229.195L109.58 228.906L108.484 238.321L110.938 238.61L111.364 234.93L118.071 235.706L118.917 239.541L121.576 239.854L120.501 234.957L122.676 230.439H122.683ZM133.672 230.263L126.26 230.531L123.308 240.118L125.982 240.026L126.755 237.524L133.686 237.27L134.637 239.713L137.314 239.613L133.672 230.26V230.263ZM127.525 235.023L128.171 232.94L131.95 232.806L132.741 234.844L127.531 235.029L127.525 235.023ZM140.135 229.958C138.572 230.26 137.538 231.768 137.84 233.332C138.039 234.37 138.771 235.167 139.703 235.507L139.07 239.813L141.706 239.314L142.276 235.435L148.912 234.177L149.602 237.816L152.032 237.359L150.262 228.05L140.142 229.971L140.135 229.958ZM148.444 231.734L140.754 233.198C140.527 233.239 140.314 233.091 140.273 232.872C140.235 232.655 140.373 232.435 140.599 232.394L148.29 230.93L148.444 231.741V231.734ZM170.203 221.436L163.715 224.071C161.292 225.054 160.121 227.824 161.107 230.246C162.09 232.665 164.859 233.837 167.282 232.854L173.766 230.219C176.189 229.232 177.36 226.466 176.374 224.044C175.391 221.621 172.622 220.456 170.203 221.436ZM172.842 227.923L166.354 230.559C165.199 231.03 163.873 230.47 163.402 229.315C162.928 228.157 163.488 226.831 164.646 226.36L171.134 223.724C172.292 223.253 173.615 223.81 174.086 224.968C174.56 226.126 174 227.449 172.835 227.923H172.842ZM185.965 216.673L179.37 220.498L178.958 219.786L187.514 214.821L186.27 212.68L175.577 218.883L180.336 227.078L189.071 222.013C190.542 221.164 191.047 219.267 190.195 217.79C189.342 216.319 187.446 215.814 185.972 216.666L185.965 216.673ZM187.827 219.879L181.233 223.704L180.614 222.638L187.209 218.814C187.501 218.642 187.879 218.742 188.054 219.034C188.226 219.326 188.119 219.707 187.827 219.879ZM195.864 205.168L189.916 209.598L192.937 219.168L195.084 217.563L192.851 210.491L195.878 208.23L202.019 212.388L204.166 210.783L195.858 205.155L195.864 205.168ZM205.658 194.887L200.514 200.231L205.053 209.179L206.909 207.251L205.723 204.914L210.534 199.918L212.912 201.017L214.767 199.086L205.651 194.887H205.658ZM204.541 202.581L203.555 200.629L206.177 197.908L208.159 198.822L204.541 202.581ZM212.75 189.619L217.709 182.778L215.705 181.328L210.747 188.169C209.218 190.283 209.689 193.252 211.805 194.788C213.922 196.32 216.887 195.846 218.427 193.729L223.375 186.891L221.372 185.441L216.417 192.279C215.685 193.293 214.269 193.516 213.248 192.784C212.238 192.052 212.011 190.637 212.743 189.626L212.75 189.619ZM216.496 179.778L218.719 180.871L220.894 176.431L227.182 179.52L228.272 177.297L221.987 174.208L224.162 169.772L221.939 168.679L216.496 179.778ZM228.279 158.346L225.938 165.167L223.595 164.363L222.791 166.703L231.753 169.785L234.9 160.625C235.526 158.793 234.553 156.797 232.725 156.171C230.894 155.546 228.904 156.518 228.272 158.346H228.279ZM232.564 159.817L230.224 166.638L228.272 165.964L230.615 159.147C230.801 158.607 231.388 158.322 231.924 158.508C232.464 158.693 232.753 159.277 232.564 159.817Z" fill="white"/>
<path fill-rule="evenodd" clip-rule="evenodd" d="M170.522 108.345L170.608 108.287C170.942 107.847 171.498 107.376 172.065 107.699C172.522 107.967 172.983 108.232 173.443 108.493C173.522 108.538 173.557 108.613 173.529 108.706C173.361 109.311 173.237 109.909 173.155 110.514V110.534C173.155 110.582 173.203 110.62 173.254 110.62H173.275C173.986 110.404 175.336 110.022 175.677 110.94C175.838 111.38 175.996 111.833 176.144 112.297C176.175 112.39 176.251 112.465 176.343 112.493C176.543 112.551 176.663 112.479 176.687 112.283C176.776 111.672 176.9 111.06 177.068 110.441C177.089 110.369 177.134 110.328 177.213 110.321C178.127 110.276 178.883 110.826 178.852 111.785C178.831 112.586 178.924 113.335 179.202 114.094C179.23 114.166 179.285 114.228 179.357 114.269C179.955 114.568 180.182 114.221 180.549 113.85C180.58 113.816 180.628 113.795 180.673 113.795C180.742 113.795 180.807 113.836 180.835 113.895C181.487 115.286 182.185 116.616 184.054 116.19C184.686 116.049 185.305 115.836 185.917 115.551C185.951 115.537 185.982 115.53 186.016 115.53C186.13 115.53 186.223 115.606 186.25 115.713L186.47 116.575C186.497 116.695 186.604 116.781 186.721 116.795L189.222 117.029H189.25C189.363 117.056 189.435 117.17 189.418 117.283L189.411 117.307L188.48 119.85L188.473 119.891C188.473 119.956 188.525 120.011 188.59 120.011H188.604L191.645 119.716C191.731 119.709 191.827 119.75 191.872 119.829L192.143 120.283C192.198 120.369 192.27 120.427 192.356 120.462C192.61 120.561 192.872 120.602 193.136 120.582C194.878 120.448 196.298 120.922 197.792 121.668C198.146 121.839 198.38 122.138 198.5 122.558C199.184 124.932 199.943 127.21 200.789 129.385C201.016 129.976 201.067 130.537 200.933 131.076C200.768 131.76 199.809 131.753 199.27 131.681C199.212 131.674 199.163 131.619 199.163 131.561C199.163 131.526 199.177 131.495 199.205 131.475C199.445 131.241 199.631 130.98 199.761 130.681V130.667C199.789 130.588 199.751 130.495 199.668 130.468H199.658L197.493 129.997C197.366 129.97 197.236 130.031 197.174 130.148C196.456 131.554 196.256 133.004 196.583 134.495C196.768 135.364 195.466 136.172 194.786 136.45C193.569 136.955 193.683 137.955 193.834 139.017C193.882 139.364 193.748 139.649 193.421 139.876C192.47 140.543 191.411 141 190.308 141.347C187.707 142.165 185.57 143.508 184.205 145.886C184.113 146.037 183.968 146.144 183.793 146.178C181.944 146.529 179.989 146.577 178.151 146.831C177.945 146.862 177.773 146.982 177.68 147.168C177.309 147.883 176.948 148.625 176.587 149.391C176.374 149.852 176.464 150.257 176.749 150.642C177.36 151.453 178.378 152.611 178.553 153.628C178.567 153.697 178.553 153.762 178.518 153.831C178.398 154.061 178.213 154.222 177.945 154.302C175.897 154.961 174.041 155.539 172.55 157.181C171.897 157.91 171.526 158.848 170.942 159.611C169.684 161.25 167.959 162.439 165.828 161.549C165.186 161.274 164.499 160.975 163.787 161.102C163.743 161.109 163.708 161.147 163.708 161.195L163.729 161.25C164.684 162.593 165.279 164.064 165.498 165.658C165.629 166.624 165.791 167.655 165.976 168.748C166.237 170.311 166.835 171.727 167.766 173.012C168.007 173.345 168.151 173.758 168.206 174.263C168.285 175.008 167.413 176.005 168.385 176.465C168.959 176.73 170.316 177.86 169.942 178.647C168.976 180.688 166.574 181.915 164.619 182.898C163.729 183.345 162.969 183.905 162.196 184.51C162.11 184.582 161.983 184.595 161.877 184.547C160.839 184.056 159.815 183.596 158.798 183.173C158.444 183.025 158.186 182.771 158.025 182.42C157.327 180.871 156.616 179.317 155.905 177.768C155.691 177.311 155.417 176.878 155.073 176.458C152.331 173.139 149.568 169.778 146.297 167.184C145.596 166.631 144.812 166.937 144.472 167.682C144.039 168.614 143.215 169.387 142.249 169.586C141.452 169.751 140.613 169.531 139.809 169.758L139.74 169.765C139.624 169.765 139.521 169.679 139.51 169.565C139.342 168.541 139.084 167.535 138.744 166.552C138.686 166.383 138.603 166.253 138.497 166.146C137.964 166.019 137.538 165.978 137.139 165.978C136.734 165.978 136.356 166.019 135.51 165.734C134.665 165.445 133.356 164.847 132.528 164.315C131.703 163.782 131.359 163.311 131.098 162.779C130.992 162.566 130.906 162.332 130.813 162.092C130.466 161.621 130.153 161.253 129.47 161.129C128.803 161.009 128.105 160.889 127.374 160.782H127.353C127.253 160.782 127.16 160.861 127.16 160.961V160.989C127.212 161.501 127.219 162.081 126.94 162.525C126.734 162.858 126.281 162.858 125.937 162.958C125.855 162.978 125.789 163.026 125.738 163.085C125.291 163.597 125.243 164.449 125.157 165.112C125.15 165.201 125.078 165.267 124.992 165.267L124.924 165.253C124.353 165.012 123.027 164.5 122.398 164.7C122.336 164.72 122.277 164.762 122.236 164.82C122.085 165.061 121.982 165.325 121.752 165.5C121.247 165.878 120.673 165.964 120.047 165.751L120.133 165.531C119.841 165.593 119.707 165.473 119.47 165.225C119.168 164.913 118.724 164.401 118.278 163.93C117.831 163.456 117.398 163.019 117.027 162.494C116.656 161.968 116.354 161.36 115.79 160.889C115.223 160.415 114.398 160.071 113.873 159.93C113.481 159.824 113.247 159.831 112.976 159.865C112.323 160.085 111.732 160.518 111.398 161.102C110.879 162.019 111.144 163.511 111.199 164.535V164.542C111.199 164.6 111.144 164.655 111.086 164.655H111.079C110.512 164.6 109.948 164.483 109.402 164.308C109.244 164.256 109.062 164.329 108.976 164.476L108.629 165.095C108.598 165.146 108.543 165.181 108.478 165.181C108.409 165.181 108.364 165.146 108.33 165.102C107.811 164.25 107.392 163.555 106.261 164.002C105.031 164.487 103.718 164.669 102.344 164.535H102.33C102.268 164.521 102.231 164.463 102.244 164.394V164.38C102.481 163.617 102.657 162.817 102.773 161.985C102.801 161.786 102.914 161.456 103.035 161.294C104.038 159.951 105.024 157.136 104.237 155.439C103.938 154.786 103.395 154.443 102.949 153.937C102.423 153.343 102.502 152.491 102.608 151.749C102.629 151.594 102.55 151.453 102.409 151.394C101.829 151.126 101.272 150.848 100.718 150.563C100.399 150.391 100.086 150.103 100 149.725C99.8801 149.206 99.5021 148.824 98.8561 148.594C98.7564 148.56 98.6705 148.573 98.5846 148.639L97.4645 149.556C97.4335 149.584 97.3855 149.604 97.3408 149.604C97.2515 149.604 97.1792 149.553 97.1517 149.477L96.8871 148.786C96.8184 148.625 96.6879 148.511 96.5264 148.481C95.3168 148.206 94.2172 148.034 93.2276 147.948C92.475 147.883 91.8771 148.419 91.3583 148.9C91.3101 148.938 91.2517 148.965 91.1898 148.965C91.1108 148.965 91.0387 148.927 90.9906 148.865L89.8875 147.336C89.7088 147.096 89.3961 147.01 89.1349 147.123C88.5748 147.35 88.0045 147.67 87.3791 147.649C86.7399 147.628 86.0802 147.543 85.4101 147.388C84.7847 147.244 84.4582 147.501 84.4376 148.147C84.4239 148.666 84.3586 149.199 84.2452 149.745C84.2108 149.889 84.125 149.944 83.9841 149.896C83.6542 149.79 82.9085 149.491 82.6027 149.676C82.235 149.896 81.8639 150.157 81.4962 150.463C81.4721 150.484 81.4446 150.498 81.4103 150.498C81.3381 150.498 81.2695 150.436 81.2695 150.357C81.3039 149.797 81.2591 149.219 81.125 148.615C81.1044 148.501 81.0049 148.412 80.8915 148.408C79.7335 148.326 79.1733 148.12 78.6682 149.398C78.6372 149.47 78.5823 149.525 78.5032 149.546C78.2421 149.611 77.9775 149.639 77.7061 149.632C76.8848 149.611 76.0875 149.57 75.2972 149.518C75.2147 149.518 75.177 149.546 75.1633 149.625L75.0361 150.37C75.0224 150.443 74.9914 150.501 74.9364 150.556C74.7956 150.69 74.6237 150.783 74.4312 150.834C72.5757 151.353 70.813 151.852 69.1292 152.339C69.009 152.374 68.8818 152.326 68.8096 152.219C68.1773 151.254 67.4523 150.47 66.6276 149.865C65.5761 149.092 64.3184 148.275 62.8546 147.415C62.2807 147.082 61.7172 146.69 61.164 146.244C61.1365 146.223 61.1227 146.192 61.1227 146.158C61.1227 146.117 61.1434 146.086 61.1709 146.065C63.1123 144.78 60.7105 144.254 60.5799 143.051C60.2741 140.203 59.1881 137.962 56.1883 137.131C55.9959 137.076 55.6145 136.883 55.5079 136.712C54.4633 135.107 54.3567 133.564 55.1814 132.073C55.5491 131.42 56.0955 131.007 56.6316 130.502C57.3979 129.791 57.8823 128.705 58.116 127.695C58.2947 126.908 58.4906 126.124 58.5422 125.313C58.604 124.348 58.8549 123.537 59.9648 123.369H59.9922C60.0781 123.344 60.1262 123.248 60.0987 123.169L60.0918 123.149C59.5283 121.918 59.4355 120.63 59.8135 119.283C59.92 118.905 60.2397 118.541 60.573 118.345C62.1949 117.396 62.7997 116.252 62.5729 114.386C62.5626 114.287 62.6279 114.194 62.7276 114.18C62.9681 114.142 63.1948 114.108 63.425 114.08C64.8648 113.902 65.6208 113.228 66.1878 112.026C66.5589 111.235 67.6447 111.534 68.3217 111.771C69.0158 112.019 69.4007 112.531 69.4729 113.304C69.4866 113.417 69.5793 113.51 69.6995 113.51H69.7133C71.5964 113.383 73.4005 113.204 75.1151 112.977C75.8471 112.885 76.1941 111.747 77.0979 112.283C79.3555 113.63 81.5719 114.905 84.1903 115.211C84.936 115.3 85.6884 115.53 86.2485 116.049C86.2795 116.077 86.3138 116.091 86.3551 116.091C86.4066 116.091 86.4616 116.063 86.4856 116.018C86.9873 115.218 87.3929 114.372 87.7056 113.476C87.819 113.149 88.0388 112.957 88.3618 112.905C88.7776 112.836 89.2072 112.785 89.6677 112.744C90.2518 112.699 90.2586 112.159 90.1212 111.74C89.915 111.129 89.8668 110.407 89.9802 109.569C89.9871 109.517 90.0318 109.476 90.0868 109.476C90.6538 109.476 91.1384 109.758 91.4717 110.221C92.3342 111.459 93.7807 111.507 95.1484 111.771C96.1827 111.971 96.3064 112.685 96.5195 113.555C96.5607 113.709 96.6604 113.843 96.8254 113.953C97.8253 114.599 98.8285 115.238 99.8457 115.878L99.9076 115.898C99.966 115.898 100.021 115.85 100.028 115.792C100.079 115.307 100.007 114.84 99.8217 114.386C99.588 113.843 99.7667 113.328 100.213 112.957C100.478 112.73 100.787 112.651 101.117 112.806C101.956 113.19 102.98 113.668 103.825 113.383C104.32 113.218 104.804 113.156 105.289 113.197L105.265 113.235C105.478 113.218 105.715 113.204 105.997 113.184C107.186 113.105 109.075 113.005 110.581 112.531C112.082 112.06 113.196 111.215 114.333 110.49C115.402 109.802 116.487 109.225 117.426 108.819C117.81 108.521 124.453 103.741 124.473 103.734C125.13 103.555 124.91 104.236 125.49 103.981C125.618 103.923 125.769 103.981 125.844 104.102C126.167 104.686 125.329 101.353 125.81 101.658C126.741 102.253 128.033 102.971 129.171 102.624C129.72 102.459 129.037 101.865 129.648 101.593C129.69 101.572 129.734 101.566 129.782 101.566C129.882 101.566 129.05 102.157 129.109 102.239L130.394 101.253C130.446 101.325 130.542 101.373 130.634 101.373C130.679 101.373 130.452 99.93 130.494 99.9506L133.627 101.652C133.755 101.593 134.033 102.212 134.054 102.353C134.105 102.724 134.431 102.219 134.73 102.359C134.799 102.39 135.136 102.889 135.212 102.871C135.658 102.737 135.888 103.315 136.363 103.291C137.407 103.236 138.239 106.012 139.215 105.617C139.641 105.452 139.868 105.074 139.895 104.473C139.902 104.308 139.988 104.246 140.146 104.287C140.393 104.352 140.534 105.218 140.933 105.387C142.383 106.005 144.771 106.39 145.73 106.569C145.795 106.583 145.836 106.555 145.857 106.49L146.867 102.445C146.915 102.246 147.039 102.163 147.245 102.205C148.084 102.383 148.479 103.428 148.857 104.095C148.905 104.181 148.977 104.208 149.077 104.167C149.668 103.93 150.214 103.703 150.699 103.476C151.224 103.236 151.53 102.83 151.613 102.26V102.225C151.613 102.105 151.527 101.999 151.407 101.978L150.18 101.785C150.101 101.772 150.035 101.713 150.015 101.638C149.974 101.507 149.994 101.425 150.08 101.394C151.245 100.961 152.41 100.607 153.575 100.322C153.647 100.301 153.702 100.263 153.74 100.188L153.96 99.7306C154.008 99.631 154.08 99.6104 154.173 99.6688C154.784 100.067 155.716 100.401 156.269 99.6447C156.368 99.5107 156.475 99.3835 156.602 99.2701L156.616 99.2633C156.654 99.2359 156.709 99.2495 156.736 99.2908L156.743 99.3045C156.788 99.4179 156.795 99.5382 156.76 99.6619C156.434 100.847 156.063 102.078 155.63 103.342V103.356C155.602 103.449 155.664 103.548 155.757 103.569H155.77C156.561 103.696 157.279 103.627 157.932 103.377C158.97 102.964 159.915 103.157 160.234 104.401C160.275 104.559 160.368 104.607 160.519 104.559L162.011 104.06C162.104 104.036 162.203 104.088 162.238 104.181C162.389 104.699 162.488 105.218 162.537 105.73C162.629 106.689 163.169 106.789 163.993 106.816C164.072 106.816 164.148 106.844 164.22 106.888L164.347 106.981C164.499 106.995 164.639 107.009 164.787 107.022C165.536 107.081 166.529 107.043 167.546 107.242C168.564 107.435 169.608 107.875 170.127 108.088C170.354 108.18 170.488 108.232 170.567 108.366" fill="#629FD6"/>
<path fill-rule="evenodd" clip-rule="evenodd" d="M21.3688 137.502C18.4617 138.952 15.0152 138.804 12.249 137.11C9.47939 135.413 7.77507 132.413 7.74414 129.166C7.83692 132.073 9.64435 134.64 12.3487 135.712C15.0496 136.777 18.1284 136.138 20.1799 134.076C22.2485 131.547 24.0388 129.317 25.5542 127.389C27.451 125.245 30.5505 124.64 33.1139 125.918C35.6739 127.197 37.0518 130.042 36.4745 132.846C34.8766 138.254 30.3134 142.258 24.7364 143.137C19.1663 144.017 13.5927 141.608 10.4108 136.949C16.3451 141.821 25.0216 141.302 30.3374 135.767C30.9388 135.299 31.3099 134.602 31.3614 133.842C31.4164 133.083 31.1553 132.337 30.6295 131.787C30.066 131.389 29.3616 131.227 28.6812 131.348C27.9974 131.468 27.3892 131.853 26.9906 132.42C25.1557 134.873 23.2793 136.564 21.3619 137.495" fill="white"/>
<path fill-rule="evenodd" clip-rule="evenodd" d="M13.4998 122.187C15.8811 118.977 19.4995 116.909 23.4718 116.476C27.4441 116.043 31.4233 117.283 34.4438 119.905C31.6089 115.933 26.9904 113.624 22.1144 113.73C17.2384 113.843 12.7267 116.355 10.0773 120.455C7.95029 123.231 7.97095 127.097 10.1186 129.85C11.5549 131.135 13.4929 131.726 15.4 131.461C17.3105 131.2 19.0149 130.118 20.0595 128.492C22.7261 124.788 24.6435 122.623 25.8152 122.018C27.8564 120.548 30.5298 120.29 32.8149 121.341C35.1034 122.393 36.6463 124.589 36.8525 127.097C36.6669 123.582 34.4781 120.482 31.224 119.139C27.9698 117.795 24.2312 118.434 21.6162 120.795C20.2658 121.953 18.8947 123.352 17.5099 124.987C16.7058 126.004 15.2558 126.217 14.1906 125.479C13.1253 124.74 12.8194 123.304 13.4929 122.194" fill="white"/>
<path fill-rule="evenodd" clip-rule="evenodd" d="M225 122.187C227.382 118.977 231 116.909 234.972 116.476C238.945 116.043 242.924 117.283 245.944 119.905C243.11 115.933 238.495 113.624 233.615 113.73C228.739 113.843 224.227 116.355 221.581 120.455C219.451 123.231 219.472 127.097 221.619 129.85C223.062 131.135 224.994 131.726 226.904 131.461C228.811 131.2 230.516 130.118 231.56 128.492C234.227 124.788 236.144 122.623 237.316 122.018C239.357 120.548 242.034 120.29 244.316 121.341C246.604 122.393 248.147 124.589 248.353 127.097C248.168 123.582 245.979 120.482 242.725 119.139C239.47 117.795 235.732 118.434 233.117 120.795C231.766 121.953 230.395 123.352 229.011 124.987C228.206 126.004 226.756 126.217 225.691 125.479C224.626 124.74 224.32 123.304 224.994 122.194L225 122.187ZM232.869 137.502C229.962 138.952 226.516 138.804 223.75 137.11C220.98 135.413 219.279 132.413 219.245 129.166C219.338 132.073 221.148 134.64 223.849 135.712C226.55 136.777 229.629 136.138 231.68 134.076C233.749 131.547 235.539 129.317 237.055 127.389C238.952 125.245 242.051 124.64 244.615 125.918C247.175 127.197 248.552 130.042 247.975 132.846C246.377 138.255 241.814 142.258 236.244 143.137C230.674 144.017 225.1 141.608 221.911 136.949C227.846 141.821 236.522 141.303 241.838 135.767C242.439 135.299 242.811 134.602 242.866 133.842C242.917 133.083 242.659 132.337 242.133 131.788C241.567 131.389 240.862 131.227 240.182 131.348C239.498 131.468 238.893 131.853 238.495 132.42C236.656 134.873 234.78 136.564 232.863 137.495" fill="white"/>
<path fill-rule="evenodd" clip-rule="evenodd" d="M115.422 96.5761C118.192 97.7926 120.821 96.9026 124.054 97.7067C121.119 95.1638 117.687 95.1192 116.247 92.298C115.848 91.518 115.683 90.8273 115.628 90.1607C115.591 89.6178 115.628 89.092 115.683 88.5593C115.735 85.2983 115.415 83.1954 114.711 82.2573C113.013 85.5183 110.917 89.3222 111.89 92.7172C112.168 93.6897 112.683 94.5075 113.333 95.1707C113.934 95.7789 114.652 96.2497 115.408 96.5761" fill="white"/>
<path fill-rule="evenodd" clip-rule="evenodd" d="M100.227 174.761C103.88 169.081 113.402 158.267 115.498 152.797C117.12 146.526 117.226 139.818 118.618 134.808C119.841 130.403 123.649 124.475 128.164 121.898C131.686 119.898 135.005 120.262 136.435 124.561C139.369 133.382 129.775 155.766 124.418 162.085C116.955 170.902 109.223 178.847 98.0829 184.788C97.619 185.042 97.138 185.029 97.5195 184.63C104.498 178.96 114.81 168.627 121.858 157.315C122.813 155.779 132.463 130.43 129.263 132.818C128.982 133.025 128.61 133.317 128.263 133.75C127.92 134.183 127.573 134.715 127.274 135.44C126.982 136.158 126.356 138.382 125.954 139.739C124.58 144.347 122.501 152.384 120.473 156.051C116.522 163.191 111.092 169.552 105.715 175.441C99.1206 182.651 93.8322 186.778 86.221 192.946C85.7811 193.303 99.1035 176.524 100.234 174.768" fill="white"/>
<path fill-rule="evenodd" clip-rule="evenodd" d="M114.158 79.0377C117.546 68.0795 116.281 62.9011 110.567 60.4751C120.288 73.8799 102.261 85.3397 106.027 95.9233C108.11 101.765 117.453 104.686 121.838 108.892C122.37 109.404 122.721 109.902 122.796 109.631C122.868 109.359 122.655 108.325 122.35 107.335C120.226 100.483 111.976 98.4731 110.068 93.8548C110.007 93.7139 109.962 93.5902 109.9 93.4837C109.608 92.3909 109.636 91.1333 109.948 89.5904C110.687 85.9239 113.147 82.2918 114.158 79.0377Z" fill="white"/>
<path fill-rule="evenodd" clip-rule="evenodd" d="M137.273 54.5923C137.16 54.7057 136.321 55.0046 136.122 55.5922C136.022 55.8775 136.095 56.2211 136.321 56.3688C136.613 56.5613 136.947 56.417 137.167 56.3036C137.627 56.0768 138.07 55.8019 138.579 55.5922C139.084 55.3792 139.562 55.1833 140.142 55.0321C141.311 54.7125 142.716 54.6542 143.888 55.0837C144.726 55.3895 145.259 55.7847 145.871 56.3482L146.376 56.9289L146.774 57.5131C147.128 58.0939 147.493 59.0388 147.548 59.7364C147.713 60.9184 147.548 62.0455 147.166 63.0833C146.981 63.5953 146.774 63.9732 146.52 64.3924C145.424 66.2171 142.843 68.1449 140.661 68.1517C139.383 68.1517 137.352 66.9628 137.273 65.8047C136.988 61.6984 139.802 59.3377 144.799 57.1145C144.744 57.0595 144.726 56.9805 144.678 56.8946C144.067 55.685 142.297 55.6163 141.125 55.7847C139.115 56.0768 137.534 57.1592 136.143 58.3653C135.823 58.6437 135.163 59.403 134.658 59.4167C134.246 59.4305 134.06 59.0834 134.091 58.6642C134.119 58.3378 134.273 57.9529 134.38 57.654C134.5 57.3275 134.617 57.0355 134.751 56.74L135.156 55.898C134.737 56.1214 133.761 57.4993 133.72 57.5268L133.359 58.1591C133.043 58.7364 132.823 59.2896 132.634 59.9287C132.61 60.0215 132.555 60.269 132.511 60.3205L132.37 61.2517C132.328 61.585 132.315 61.9321 132.315 62.2757C132.315 63.2482 132.51 64.2206 132.84 65.1244C133.095 65.8116 133.421 66.4508 133.806 67.0143C133.861 67.0933 133.913 67.1758 133.974 67.2548C135.211 69.052 136.895 70.1275 139.008 70.4952C139.077 70.5158 139.149 70.5262 139.222 70.5468C139.96 70.722 140.754 70.7151 141.503 70.6086C141.998 70.5399 142.476 70.4334 142.922 70.3131C145.077 69.7221 146.754 68.3441 147.792 66.8012C148.922 65.1175 149.355 62.9011 149.004 60.8325C148.97 60.6538 148.829 60.049 148.836 59.9631C148.812 59.9288 148.836 59.9803 148.805 59.9082C148.75 59.8017 148.558 59.1041 148.279 58.5234C148.173 58.3069 148.053 58.0663 147.932 57.8739L147.558 57.2794C147.479 57.2279 147.321 56.9874 147.242 56.9015C146.915 56.5166 146.932 56.5475 146.596 56.2108C146.503 56.1111 146.307 55.9839 146.262 55.8912C146.084 55.7984 145.482 55.2246 144.451 54.7332C142.355 53.7264 139.974 53.5477 137.778 54.393C137.6 54.4583 137.428 54.5648 137.273 54.606" fill="white"/>
<path fill-rule="evenodd" clip-rule="evenodd" d="M136.875 119.132C139.455 112.531 141.843 103.411 133.002 102.383C131.758 102.239 129.954 102.789 129.157 103.916C128.518 104.82 128.682 106.249 128.988 107.28C130.194 111.3 135.569 113.177 136.775 123.132C133.507 115.579 124.511 116.809 123.487 108.94C122.662 102.583 127.624 99.4489 132.562 98.8373C136.706 98.3184 142.39 102.04 141.41 107.462C140.778 110.967 139.596 115.166 136.868 119.132" fill="white"/>
<path fill-rule="evenodd" clip-rule="evenodd" d="M118.662 87.7073C118.762 85.484 119.906 83.5219 121.559 82.3124C124.686 80.017 128.744 79.9757 131.205 83.3364C134.005 87.154 132.755 92.4493 129.329 95.6037L129.37 95.4251L129.394 95.2911C131.432 92.037 131.724 87.2468 130.146 84.625C128.318 81.5873 123.195 82.7247 123.047 87.422C123.023 88.3739 123.202 88.8103 123.607 89.8308C125.212 93.8478 127.081 92.8239 126.741 99.5829C125.421 95.8443 121.305 94.8066 119.556 91.5318L119.528 91.4871L119.515 91.4596L119.473 91.3875C118.93 90.3085 118.59 89.0852 118.649 87.7073" fill="white"/>
<path fill-rule="evenodd" clip-rule="evenodd" d="M136.369 98.631C136.335 98.6379 136.507 98.7857 136.789 98.8373C151.832 101.765 167.261 92.5764 174.141 85.1197C175.158 84.0132 175.656 83.7418 175.591 83.68C175.525 83.6215 175 83.8861 173.55 84.6008C167.625 87.501 150.156 95.0539 136.376 98.6242" fill="white"/>
</g>
<defs>
<linearGradient id="paint0_linear_1342_6131" x1="131.008" y1="246.998" x2="131.008" y2="0.517691" gradientUnits="userSpaceOnUse">
<stop stop-color="#418BCA"/>
<stop offset="0.28" stop-color="#4478BE"/>
<stop offset="0.5" stop-color="#522E8D"/>
<stop offset="0.59" stop-color="#921A7B"/>
<stop offset="0.69" stop-color="#CD086B"/>
<stop offset="1" stop-color="#E50164"/>
</linearGradient>
<linearGradient id="paint1_linear_1342_6131" x1="126.668" y1="48.8703" x2="123.933" y2="205.408" gradientUnits="userSpaceOnUse">
<stop stop-color="#4E3293"/>
<stop offset="1" stop-color="#3C8BCA"/>
</linearGradient>
<clipPath id="clip0_1342_6131">
<rect width="257" height="257" fill="white"/>
</clipPath>
</defs>
</svg>
