<?xml version="1.0" encoding="UTF-8" standalone="no"?>
<!DOCTYPE svg PUBLIC "-//W3C//DTD SVG 1.1//EN" "http://www.w3.org/Graphics/SVG/1.1/DTD/svg11.dtd">
<svg width="100%" height="100%" viewBox="0 0 256 256" version="1.1" xmlns="http://www.w3.org/2000/svg" xmlns:xlink="http://www.w3.org/1999/xlink" xml:space="preserve" xmlns:serif="http://www.serif.com/" style="fill-rule:evenodd;clip-rule:evenodd;stroke-linejoin:round;stroke-miterlimit:2;">
    <g transform="matrix(1,0,0,1,-7645,-2106)">
        <g id="vk-dynamo-ak-bars" transform="matrix(0.32,0,0,0.426667,7645,2106)">
            <rect x="0" y="0" width="800" height="600" style="fill:none;"/>
            <g transform="matrix(0.951829,0,0,0.713872,-839.786,-1531.2)">
                <clipPath id="_clip1">
                    <rect x="930" y="2194" width="745" height="742.38"/>
                </clipPath>
                <g clip-path="url(#_clip1)">
                    <path d="M1335.23,2563.96C1335.72,2544.72 1328.17,2529.39 1311.81,2523.37C1308.09,2529.07 1303.42,2534.16 1298.34,2538.69C1301.45,2544.52 1307.24,2549.19 1317.19,2550.87C1311.62,2570.4 1304.85,2589.03 1295.26,2600.88C1300.15,2602.05 1305.04,2602.47 1309.58,2601.11C1326.94,2595.83 1334.78,2581.84 1335.26,2563.96L1335.23,2563.96ZM1295.91,2531.66C1299.83,2529.01 1303.32,2525.73 1305.79,2521.65C1302.42,2520.94 1298.98,2520.58 1295.52,2520.81C1295.1,2524.41 1295.19,2528.13 1295.91,2531.66ZM1297.33,2512.68C1301.32,2512.68 1305.17,2513.07 1308.9,2513.75C1309.71,2506.23 1309.22,2502.83 1306.82,2502.12C1303.58,2501.15 1299.66,2505.84 1297.3,2512.68L1297.33,2512.68ZM1282.33,2603.15C1278.29,2601.01 1275.05,2599.46 1273.13,2599.52C1270.48,2599.62 1268.02,2600.3 1267.34,2602.73C1267.63,2607.17 1271.16,2606.94 1272.62,2607.33C1273.46,2607.33 1274.24,2607.27 1275.01,2607.1C1277.9,2606.59 1280.33,2605.16 1282.33,2603.18L1282.33,2603.15ZM1355.67,2563.21C1356.55,2590.52 1337.95,2612.55 1311.29,2613.45C1304.17,2613.68 1296.3,2610.38 1289.43,2606.91C1285.74,2610.02 1281.72,2612.22 1277.25,2613.29C1275.92,2613.62 1274.56,2613.84 1273.17,2613.94C1264.62,2614.59 1255.16,2609.76 1256.52,2600.79C1257.46,2594.7 1263.87,2592.59 1268.34,2592.82C1273.07,2592.92 1279.32,2595.6 1286.06,2598.07C1287.78,2594.89 1288.81,2591.33 1289.23,2588.15C1291.37,2572.61 1291.5,2562.34 1290.43,2550.9C1290.27,2549.06 1290.08,2547.24 1289.91,2545.4C1285.87,2548.25 1281.91,2550.48 1278.41,2551.94L1278.32,2541.09C1281.98,2539.27 1285.57,2537.59 1288.94,2535.84C1288.49,2531.43 1287.71,2526.87 1287.68,2522.43C1277.48,2525.9 1269.99,2534.61 1269.93,2545.88C1269.93,2552.55 1272.75,2557.8 1281.3,2556.77C1279.94,2573.8 1254.93,2573.48 1250.23,2558.22C1245.18,2541.93 1259.72,2517.41 1288.49,2513.33C1290.46,2502.28 1296.2,2490.07 1307.92,2490.04C1314.31,2490.39 1318.06,2497.62 1318.1,2505.46C1318.1,2508.73 1317.32,2512.1 1315.96,2515.5C1338.57,2522.33 1354.7,2541.02 1355.64,2563.24L1355.67,2563.21ZM1385.15,2561.07C1385.15,2515.43 1348.16,2478.44 1302.52,2478.44C1256.87,2478.44 1219.88,2515.43 1219.88,2561.07C1219.88,2606.72 1256.87,2643.71 1302.52,2643.71C1348.16,2643.71 1385.15,2606.72 1385.15,2561.07ZM1305.33,2702.18C1304.39,2702.18 1301.61,2702.21 1301.15,2702.21C1301.15,2729.78 1295.62,2760.16 1281.23,2783.9C1287.29,2784.49 1293.41,2784.81 1299.57,2784.88C1308.67,2759.51 1309.8,2728.9 1305.33,2702.18ZM1299.66,2420C1300.6,2420 1303.39,2419.97 1303.84,2419.97C1303.84,2392.41 1309.38,2362.02 1323.76,2338.28C1317.71,2337.69 1311.58,2337.37 1305.43,2337.31C1296.33,2362.67 1295.19,2393.28 1299.66,2420ZM1424.05,2632.82C1447.93,2646.59 1471.48,2666.58 1484.82,2690.9C1488.35,2685.95 1491.69,2680.83 1494.83,2675.52C1477.4,2654.95 1451.46,2638.65 1426.09,2629.2C1425.64,2630.01 1424.28,2632.44 1424.02,2632.82L1424.05,2632.82ZM1181.72,2634.09C1181.24,2633.28 1179.81,2630.88 1179.58,2630.49C1155.71,2644.26 1126.62,2654.69 1098.89,2654.07C1101.42,2659.58 1104.21,2665.05 1107.22,2670.46C1133.75,2665.67 1160.83,2651.32 1181.72,2634.12L1181.72,2634.09ZM1180.98,2489.36C1157.1,2475.59 1133.55,2455.6 1120.21,2431.28C1116.68,2436.23 1113.34,2441.35 1110.2,2446.66C1127.63,2467.23 1153.57,2483.53 1178.94,2492.98C1179.39,2492.17 1180.75,2489.75 1181.01,2489.36L1180.98,2489.36ZM1423.37,2499.5C1428.98,2510.48 1442.48,2514.88 1453.47,2509.28C1453.98,2509.02 1454.5,2508.7 1455.02,2508.4C1458.26,2510.06 1461.73,2511.22 1465.32,2511.87C1465.64,2508.37 1468.59,2505.62 1472.19,2505.62C1475.78,2505.62 1478.73,2508.37 1479.06,2511.87C1482.55,2511.22 1486.05,2510.06 1489.39,2508.37C1496.52,2504.74 1501.96,2499.17 1505.49,2492.66C1502.25,2491.27 1500.53,2487.61 1501.67,2484.21C1502.77,2480.77 1506.3,2478.83 1509.73,2479.61C1510.18,2476.27 1510.18,2472.84 1509.73,2469.44C1498.1,2469.18 1486.25,2471.64 1475.07,2477.05C1475.62,2481.26 1473.52,2485.53 1469.53,2487.58C1464.45,2490.17 1458.23,2488.16 1455.64,2483.07C1453.04,2477.99 1455.05,2471.77 1460.14,2469.18C1464.12,2467.14 1468.82,2467.98 1471.93,2470.86C1482.88,2465.03 1491.82,2456.87 1498.46,2447.31C1496,2444.91 1493.21,2442.91 1490.23,2441.32C1488.84,2444.56 1485.18,2446.27 1481.78,2445.14C1478.38,2444.04 1476.4,2440.51 1477.18,2437.07C1469.82,2436.1 1462.11,2437.24 1454.99,2440.86C1451.65,2442.58 1448.67,2444.72 1446.08,2447.18C1448.74,2449.51 1449.22,2453.5 1447.12,2456.41C1445.01,2459.33 1441.06,2460.07 1438.01,2458.29C1436.46,2461.56 1435.36,2465.06 1434.77,2468.66C1434.22,2468.88 1433.71,2469.11 1433.15,2469.4C1422.17,2475.01 1417.77,2488.51 1423.37,2499.5ZM1402.41,2560.49C1402.41,2565.67 1408.47,2568.88 1424.05,2569.72C1460.69,2571.7 1493.34,2577.92 1520.68,2599.72C1550.32,2623.37 1560.72,2664.8 1535.55,2708.43C1505.52,2760.45 1467.78,2774.83 1432.6,2752.35C1397.78,2730.1 1393.09,2688.28 1372.45,2659.16C1365.71,2649.64 1358.07,2644.39 1353.02,2647.34C1348.51,2649.93 1348.77,2656.76 1355.83,2670.69C1372.45,2703.41 1383.4,2734.8 1378.18,2769.36C1372.52,2806.87 1341.84,2836.57 1291.47,2836.57C1231.41,2836.57 1200.09,2811.11 1201.97,2769.36C1203.81,2728.09 1237.7,2703.08 1252.6,2670.69C1257.46,2660.1 1258.2,2650.87 1253.12,2647.92C1248.61,2645.33 1242.82,2648.96 1234.3,2662.04C1214.28,2692.82 1192.54,2717.95 1160.02,2730.71C1124.71,2744.55 1083.64,2732.85 1058.47,2689.22C1028.44,2637.2 1034.82,2597.35 1071.91,2578.11C1108.58,2559.1 1147.16,2575.94 1182.69,2572.61C1194.32,2571.54 1202.68,2567.55 1202.68,2561.69C1202.68,2556.51 1196.62,2553.3 1181.04,2552.46C1144.41,2550.48 1111.75,2544.26 1084.41,2522.46C1054.78,2498.82 1044.38,2457.39 1069.55,2413.75C1099.57,2361.73 1137.31,2347.35 1172.49,2369.83C1207.31,2392.08 1212.01,2433.9 1232.64,2463.02C1239.38,2472.54 1247.03,2477.79 1252.08,2474.84C1256.58,2472.25 1256.32,2465.42 1249.26,2451.49C1232.64,2418.77 1221.7,2387.38 1226.91,2352.82C1232.58,2315.31 1263.26,2285.61 1313.63,2285.61C1373.68,2285.61 1405.01,2311.07 1403.13,2352.82C1401.28,2394.09 1367.4,2419.1 1352.5,2451.49C1347.64,2462.08 1346.89,2471.31 1351.98,2474.26C1356.48,2476.85 1362.28,2473.23 1370.8,2460.14C1390.82,2429.37 1412.55,2404.23 1445.08,2391.47C1480.38,2377.63 1521.46,2389.33 1546.63,2432.96C1576.65,2484.98 1570.27,2524.83 1533.18,2544.07C1496.52,2563.08 1457.9,2546.24 1422.4,2549.57C1410.77,2550.64 1402.41,2554.63 1402.41,2560.49ZM1489.87,2501.31C1494.12,2499.14 1495.8,2493.96 1493.63,2489.75C1491.46,2485.5 1486.28,2483.82 1482.07,2485.99C1477.82,2488.16 1476.14,2493.34 1478.31,2497.55C1480.48,2501.8 1485.66,2503.48 1489.87,2501.31ZM1468.82,2459.98C1473.06,2457.81 1474.75,2452.62 1472.58,2448.41C1470.41,2444.17 1465.22,2442.48 1461.01,2444.65C1456.8,2446.83 1455.08,2452.01 1457.26,2456.22C1459.43,2460.46 1464.61,2462.15 1468.82,2459.98ZM1428.26,2497C1427.1,2494.7 1426.51,2492.3 1426.45,2489.87C1428.62,2489.29 1430.43,2487.67 1431.18,2485.37C1431.92,2483.07 1431.37,2480.71 1429.98,2478.96C1431.47,2477.05 1433.35,2475.43 1435.62,2474.26C1437.04,2473.52 1438.53,2473.03 1440.05,2472.74C1444.36,2476.08 1448.02,2480.35 1450.68,2485.53C1453.3,2490.72 1454.63,2496.19 1454.79,2501.63C1453.66,2502.67 1452.4,2503.58 1450.97,2504.32C1448.67,2505.49 1446.27,2506.07 1443.84,2506.14C1443.26,2503.97 1441.64,2502.15 1439.34,2501.41C1437.04,2500.66 1434.68,2501.21 1432.93,2502.61C1431.02,2501.12 1429.4,2499.24 1428.23,2496.97L1428.26,2497ZM1328.4,2214.99L1327.3,2221.89L1288.33,2221.89L1289.43,2214.99L1328.4,2214.99ZM1620.77,2399.21L1627.28,2396.84L1620.48,2384.6L1583.3,2398.17L1590.07,2410.38L1598.78,2407.21L1605.58,2419.42L1601.4,2420.94C1595.02,2423.28 1587.89,2420.62 1584.62,2414.66L1576.78,2400.54L1572.05,2387.55L1609.27,2373.97C1615.66,2371.64 1622.78,2374.3 1626.09,2380.23L1640.05,2405.36L1625.11,2410.8L1620.87,2399.11L1620.77,2399.21ZM1598.2,2349.71L1590.03,2339.12L1569.56,2350.33L1577.72,2360.92L1598.2,2349.71ZM1612.87,2357.42L1590.45,2369.67C1584.49,2372.94 1577.04,2371.35 1572.9,2365.97L1563.37,2353.63L1549.12,2361.41L1540.57,2350.33L1581.45,2327.98L1577.24,2322.53L1583.36,2319.13L1612.84,2357.36L1612.87,2357.42ZM1559.36,2304.59L1549.15,2295.03L1530.79,2309.35L1540.99,2318.91L1559.36,2304.59ZM1575.1,2309.84L1532.83,2342.75L1522.62,2333.19L1535.52,2323.15L1525.31,2313.59L1512.45,2323.64L1502.25,2314.08L1535.22,2288.39C1540.57,2284.21 1548.18,2284.57 1553.14,2289.2L1575.16,2309.8L1575.1,2309.84ZM1488.71,2277.22L1477.57,2289.1L1489.13,2296.94L1500.27,2285.06L1488.71,2277.22ZM1493.5,2272.1L1516.63,2287.78L1504,2301.28C1499.37,2306.24 1491.82,2307.08 1486.18,2303.29L1461.24,2286.38L1497.84,2247.25L1530.4,2269.31L1519.51,2280.94L1510.44,2272.42L1515.21,2267.34L1504.65,2260.18L1493.5,2272.07L1493.5,2272.1ZM1446.6,2245.96L1453.17,2248.58L1437.63,2274.56L1424.67,2269.35L1436.62,2249.36L1423.66,2244.14L1411.71,2264.13L1398.75,2258.91L1422.66,2218.94L1416.28,2216.38L1419.84,2210.36L1439.24,2218.16L1427.29,2238.15L1437.66,2242.33L1449.61,2222.34L1464.74,2228.43L1446.63,2245.96L1446.6,2245.96ZM1392.21,2210.16L1378.57,2207.12L1369.99,2228.76L1383.63,2231.8L1392.21,2210.16ZM1408.44,2206.7L1388.71,2256.49L1375.07,2253.44L1381.1,2238.25L1367.46,2235.2L1361.47,2250.4L1347.83,2247.35L1363.22,2208.51C1365.71,2202.2 1372.45,2198.63 1379.06,2200.12L1408.47,2206.7L1408.44,2206.7ZM1244.66,2203.2L1230.86,2205.4L1230.86,2244.99L1244.66,2242.82L1244.66,2203.2ZM1258.49,2194L1258.49,2235.79C1258.49,2242.59 1253.57,2248.35 1246.86,2249.42L1230.89,2251.95L1217.1,2251.95L1217.1,2212.37C1217.1,2205.56 1222.02,2199.8 1228.72,2198.73L1258.49,2194ZM1199.18,2205.37L1210.23,2257.78L1197.17,2262.77L1188.49,2221.47L1188.33,2221.53L1186.81,2249.49L1176.83,2253.31L1163.94,2230.86L1163.78,2230.93L1172.49,2272.23L1159.44,2277.22L1149.85,2231.64L1143.43,2234.1L1141.94,2227.27L1164.88,2218.52L1180.2,2245.18L1182.01,2211.98L1199.31,2205.37L1199.18,2205.37ZM1121.25,2247.03L1109.29,2254.28L1118.14,2275.82L1130.09,2268.54L1121.25,2246.99L1121.25,2247.03ZM1130.54,2233.29L1150.92,2282.85L1138.96,2290.11L1132.74,2275.01L1120.79,2282.27L1127.01,2297.37L1115.06,2304.62L1099.19,2265.98C1096.59,2259.69 1098.99,2252.47 1104.76,2248.94L1130.51,2233.26L1130.54,2233.29ZM1079.94,2264.94L1107.93,2310.61L1097.31,2319.68L1085.13,2299.83L1074.5,2308.9L1086.68,2328.75L1076.06,2337.82L1048.07,2292.15L1058.7,2283.08L1070.87,2302.94L1081.5,2293.87L1069.32,2274.01L1079.94,2264.94ZM1034.89,2304.3L1069.94,2344.82L1060.93,2355.51L1038.09,2329.11L1050.01,2368.43L1041.56,2378.48L1011.11,2343.23L1006.67,2348.48L1002.07,2343.2L1015.55,2327.23L1038.35,2353.6L1026.43,2314.31L1034.92,2304.26L1034.89,2304.3ZM992.71,2369.89L985.81,2382.04L1016.78,2406.69L1023.68,2394.54L992.71,2369.89ZM994.14,2353.37L1026.82,2379.38C1032.13,2383.63 1033.59,2391.08 1030.22,2397.01L1011.95,2429.2L1006.48,2424.83L1009.88,2418.84L978.91,2394.19L975.51,2400.18L982.99,2406.14L974.41,2416.93L972.4,2415.31C967.09,2411.06 965.63,2403.61 969,2397.72L973.47,2389.85L968,2385.47L974.9,2373.33L980.37,2377.67L994.14,2353.34L994.14,2353.37ZM1643.58,2490.23L1659.81,2489L1656.6,2475.4L1640.37,2476.63L1643.58,2490.23ZM1636.61,2490.75L1630.2,2463.57L1648.63,2462.18C1655.4,2461.66 1661.52,2466.16 1663.11,2472.77L1670.04,2502.09L1616.63,2506.1L1607.59,2467.82L1623.46,2466.62L1624.4,2479.02L1617.47,2479.54L1620.42,2491.95L1636.68,2490.72L1636.61,2490.75ZM1618.41,2514.17L1660.1,2517.18C1666.87,2517.67 1672.28,2523.01 1672.86,2529.78L1675.03,2555.6L1668.07,2555.08L1666.06,2531.47L1656.79,2530.79L1657.77,2542.25L1656.76,2556.02L1621.75,2553.49L1620.58,2539.53L1650.8,2541.74L1649.83,2530.24L1619.61,2528.07L1618.44,2514.14L1618.41,2514.17ZM1622.59,2561.14L1674.74,2573.29L1673.77,2587.25L1628.39,2576.69L1627.58,2588.19L1661.46,2596.06C1668.07,2597.58 1672.6,2603.7 1672.12,2610.47L1671.47,2619.51L1664.67,2617.96L1665.15,2611.06L1631.27,2603.18C1624.66,2601.66 1620.13,2595.51 1620.61,2588.74L1622.59,2561.14ZM1639.43,2625.6L1640.99,2618.7L1669.1,2629.91L1666.03,2643.55L1644.39,2634.93L1641.31,2648.57L1662.95,2657.18L1659.87,2670.82L1616.59,2653.59L1615.07,2660.29L1608.56,2657.73L1613.16,2637.33L1634.8,2645.94L1637.26,2635.03L1615.62,2626.38L1619.22,2610.47L1639.4,2625.54L1639.43,2625.6ZM1591.46,2700.01L1590.52,2701.98L1584.75,2698L1580.8,2695.28L1586.83,2682.68C1592.43,2686.53 1594.37,2693.88 1591.43,2700.01L1591.46,2700.01ZM1601.82,2678.37L1645.91,2708.78L1639.85,2721.39L1611.12,2701.56L1632.5,2736.64L1626.83,2748.47L1588.51,2722L1585.53,2728.19L1579.76,2724.24L1588.8,2705.42L1617.5,2725.21L1596.12,2690.16L1601.82,2678.3L1601.82,2678.37ZM1571.05,2782.54L1584.91,2796.67L1591.75,2787.4L1577.89,2773.28L1571.05,2782.54ZM1579.6,2726.47L1617.18,2764.66L1608.89,2775.9L1571.31,2737.74L1579.63,2726.5L1579.6,2726.47ZM1566.16,2777.55L1581.32,2757.05L1596.74,2772.73C1601.5,2777.55 1602.02,2785.13 1598,2790.61L1581.55,2812.9L1543.97,2774.74L1552.3,2763.5L1566.19,2777.59L1566.16,2777.55ZM1538.79,2780.37L1568.85,2824.72L1558.64,2834.27L1545.59,2815L1535.39,2824.56L1548.44,2843.83L1538.24,2853.39L1508.21,2809.04L1518.41,2799.48L1531.47,2818.76L1541.67,2809.2L1528.62,2789.93L1538.82,2780.37L1538.79,2780.37ZM1504.71,2844.83L1495.22,2851.38L1503.77,2869.23L1513.26,2862.68L1504.71,2844.83ZM1513.2,2830.58L1522.72,2850.41C1525.67,2856.53 1523.69,2863.88 1518.12,2867.74L1495.32,2883.48L1472.12,2835.18L1483.62,2827.21L1492.21,2845.06L1513.2,2830.55L1513.2,2830.58ZM1465.48,2840.2L1481.03,2891.45L1468.46,2897.57L1454.92,2853L1444.56,2858.02L1454.66,2891.32C1456.64,2897.83 1453.59,2904.79 1447.47,2907.74L1439.31,2911.69L1437.24,2905.02L1443.46,2902.01L1433.35,2868.74C1431.37,2862.23 1434.42,2855.26 1440.54,2852.28L1465.45,2840.2L1465.48,2840.2ZM1410.38,2872.43L1397.07,2876.64L1402.93,2915.77L1416.25,2911.56L1410.38,2872.43ZM1422.66,2861.32L1428.85,2902.62C1429.88,2909.33 1425.87,2915.81 1419.39,2917.85L1403.97,2922.71L1390.3,2924.75L1384.44,2885.62C1383.43,2878.91 1387.45,2872.43 1393.93,2870.39L1422.66,2861.32ZM1303.88,2883.45L1301.67,2883.45L1303.52,2871.79L1317.48,2871.79C1316.41,2878.49 1310.65,2883.41 1303.84,2883.45L1303.88,2883.45ZM1327.88,2883.45L1319.52,2936.34L1305.53,2936.34L1310.97,2901.88L1288.59,2936.34L1275.47,2936.34L1282.76,2890.35L1275.89,2890.35L1276.96,2883.45L1297.82,2883.45L1292.38,2917.88L1314.73,2883.45L1327.88,2883.45ZM1349.19,2910.62L1349.19,2926.92L1362.99,2924.75L1362.99,2908.45L1349.19,2910.62ZM1349.19,2903.63L1376.79,2899.25L1376.79,2917.75C1376.79,2924.55 1371.87,2930.32 1365.16,2931.39L1335.39,2936.08L1335.39,2882.51L1374.23,2876.35L1374.23,2892.29L1361.79,2892.29L1361.79,2885.33L1349.19,2887.3L1349.19,2903.63ZM1251.69,2887.14L1246.99,2902.75L1260.15,2904.57L1258.1,2911.27L1244.95,2909.46L1240.26,2925.04L1262.45,2928.08L1260.57,2934.79L1224.38,2929.83L1239.87,2878.56L1274.17,2883.25L1272.13,2889.96L1251.69,2887.14ZM1232.97,2877.23L1209.26,2925.23L1195.91,2921.12L1216.51,2879.36L1205.53,2875.93L1190.14,2907.13C1187.13,2913.22 1180.17,2916.23 1173.66,2914.19L1165.01,2911.5L1168.05,2905.21L1174.66,2907.26L1190.05,2876.06C1193.06,2869.97 1200.06,2866.96 1206.54,2868.97L1232.97,2877.19L1232.97,2877.23ZM1169.38,2862.46L1156.81,2856.37L1134.17,2888.82L1146.74,2894.91L1169.38,2862.46ZM1185.97,2862.81L1162.09,2897.08C1158.24,2902.66 1150.88,2904.6 1144.76,2901.62L1130.22,2894.56L1118.88,2886.65L1141.52,2854.2C1145.41,2848.62 1152.76,2846.68 1158.89,2849.66L1186,2862.81L1185.97,2862.81ZM1123.55,2837.25L1114.35,2830.91L1103.07,2842.7L1112.27,2849.08L1123.51,2837.29L1123.55,2837.25ZM1109.75,2855.72L1098.25,2847.78L1087.01,2859.54L1098.51,2867.48L1109.75,2855.72ZM1120.27,2854.58L1126.07,2858.6L1113.34,2871.98C1108.64,2876.9 1101.1,2877.65 1095.49,2873.79L1070.71,2856.63L1099.57,2826.44C1104.27,2821.51 1111.85,2820.73 1117.42,2824.62L1141.81,2841.5L1120.31,2854.58L1120.27,2854.58ZM1070.42,2783.64L1068.93,2782.02L1074.73,2778.11L1078.71,2775.42L1088.24,2785.65C1082.6,2789.44 1075.05,2788.57 1070.42,2783.61L1070.42,2783.64ZM1086.78,2801.23L1042.34,2831.13L1032.81,2820.9L1061.77,2801.43L1021.28,2808.49L1012.34,2798.87L1051.02,2772.89L1046.32,2767.84L1052.12,2763.92L1066.34,2779.21L1037.41,2798.67L1077.87,2791.58L1086.81,2801.2L1086.78,2801.23ZM1050.5,2762.2L1001.72,2784.36L994.01,2772.7L1025.78,2758.28L984.71,2758.57L977.49,2747.62L1019.92,2728.38L1016.13,2722.65L1022.48,2719.73L1033.98,2737.16L1002.23,2751.58L1043.31,2751.25L1050.53,2762.23L1050.5,2762.2ZM996.4,2718.44L999.32,2724.88L970.1,2732.82L964.37,2720.06L986.82,2713.97L981.08,2701.24L958.634,2707.33L952.901,2694.56L997.83,2682.35L995.01,2676.07L1001.75,2674.19L1010.33,2693.27L987.85,2699.39L992.45,2709.59L1014.93,2703.47L1021.61,2718.34L996.44,2718.44L996.4,2718.44ZM983.8,2661.62L990.7,2660.88L987.04,2647.37L947.685,2651.68L951.346,2665.15L960.55,2664.15L964.21,2677.66L959.768,2678.14C953.03,2678.85 946.746,2674.58 944.964,2668.03L940.721,2652.42L939.231,2638.69L978.59,2634.41C985.33,2633.67 991.61,2637.94 993.39,2644.52L1000.94,2672.28L985.13,2674L983.77,2661.62L983.8,2661.62ZM988.31,2626.35L934.793,2624.05L933.206,2610.15L956.496,2611.15L954.909,2597.26L931.618,2596.25L930.031,2582.36L983.54,2584.66L985.13,2598.55L961.84,2597.55L963.43,2611.44L986.72,2612.45L988.31,2626.35ZM976.48,2557.9L960.45,2555.02L960.16,2568.3L953.289,2567.07L953.581,2553.79L937.546,2550.9L937.093,2573.29L930.193,2572.22L930.971,2535.71L983.67,2545.2L982.96,2579.8L976.09,2578.57L976.51,2557.93L976.48,2557.9ZM961.78,2523.01L960.38,2529.94L932.007,2519.45L934.761,2505.75L956.593,2513.81L958.893,2502.35L937.06,2494.28L939.814,2480.58L961.65,2488.64L963.95,2477.18L942.114,2469.08L944.867,2455.38L973.28,2465.87L971.88,2472.8L995.04,2474.42L991.84,2490.39L969.97,2482.33L968.22,2491.07L990.09,2499.14L987.33,2512.84L965.47,2504.78L963.72,2513.52L985.58,2521.62L982.41,2537.59L961.84,2523.05L961.78,2523.01Z" style="fill:rgb(9,168,225);fill-rule:nonzero;"/>
                </g>
            </g>
        </g>
    </g>
</svg>
