<?xml version="1.0" encoding="UTF-8" standalone="no"?>
<!DOCTYPE svg PUBLIC "-//W3C//DTD SVG 1.1//EN" "http://www.w3.org/Graphics/SVG/1.1/DTD/svg11.dtd">
<svg width="100%" height="100%" viewBox="0 0 257 257" version="1.1" xmlns="http://www.w3.org/2000/svg" xmlns:xlink="http://www.w3.org/1999/xlink" xml:space="preserve" xmlns:serif="http://www.serif.com/" style="fill-rule:evenodd;clip-rule:evenodd;stroke-linejoin:round;stroke-miterlimit:2;">
    <g transform="matrix(1,0,0,1,-6586,-1078)">
        <g transform="matrix(0.32,0,0,0.426667,6586.15,1078.52)">
            <rect id="vk-enisei" x="0" y="0" width="800" height="600" style="fill:none;"/>
            <g id="vk-enisei1" serif:id="vk-enisei">
                <g transform="matrix(0.189057,0,0,0.189057,51.725,243.283)">
                    <g transform="matrix(26.0417,0,0,19.5312,0,-4492.23)">
                        <path d="M126.913,224.562C124.706,218.428 121.68,212.395 117.987,207.625C102.81,221.887 87.164,234.449 70.359,245.109C53.545,255.774 35.57,264.539 15.744,271.205C17.688,275.286 20.08,279.121 22.857,282.647C25.771,286.347 29.104,289.697 32.78,292.623C33.366,292.313 33.922,292.022 34.448,291.751C35.244,291.341 36.052,290.933 36.869,290.527C42.683,287.637 48.78,284.95 54.307,282.707C60.96,280.008 66.824,277.939 70.399,276.928C74.403,275.796 78.228,274.776 81.888,273.8C99.447,269.117 113.18,265.454 130.703,253.42C130.813,252.698 130.895,251.834 130.953,250.728C131.024,249.371 131.056,247.594 131.056,245.198L131.061,245.198C131.061,239.571 129.591,232.006 126.913,224.562Z" style="fill:white;"/>
                    </g>
                    <g transform="matrix(26.0417,0,0,19.5312,0,-4492.23)">
                        <path d="M96.19,301.406C88.36,304.996 79.651,306.999 70.475,306.999C62.845,306.999 55.538,305.615 48.791,303.085C47.897,302.75 46.068,302.196 43.078,300.651C59.07,292.518 80.495,292.687 96.19,301.406Z" style="fill:rgb(237,28,36);"/>
                    </g>
                    <g transform="matrix(26.0417,0,0,19.5312,0,-4492.23)">
                        <path d="M126.493,271.322C121.651,281.685 114.017,290.482 104.561,296.749C91.746,291.434 79.8,289.496 69.074,290.216C58.401,290.932 48.938,294.275 41.024,299.539C39.851,298.902 38.701,298.228 37.576,297.519C38.301,297.146 39.034,296.776 39.772,296.41C52.181,290.242 65.915,285.017 72.172,283.247C80.349,280.935 88.308,279.621 96.169,278.323C106.305,276.649 116.283,275.001 126.493,271.322Z" style="fill:rgb(237,28,36);"/>
                    </g>
                    <g transform="matrix(26.0417,0,0,19.5312,0,-4492.23)">
                        <path d="M93.841,188.627C89.532,186.845 84.972,185.54 80.23,184.78C79.26,191.227 77.487,195.617 75.07,199.165C72.586,202.814 69.446,205.537 65.805,208.694C62.779,211.318 59.375,214.269 55.726,218.448C52.073,222.63 48.163,228.052 44.113,235.627C41.918,239.733 39.36,243.365 36.515,246.62C33.671,249.873 30.538,252.749 27.19,255.347C24.834,257.176 22.375,258.863 19.84,260.441C17.458,261.925 15.002,263.319 12.495,264.65C12.935,265.824 13.527,267.337 13.862,268.164L13.891,268.237C32.531,261.632 49.592,251.046 65.004,238.313C80.414,225.58 94.169,210.708 106.204,195.522C102.387,192.77 98.242,190.448 93.841,188.627ZM79.804,183.48C84.858,184.238 89.717,185.605 94.303,187.502C98.998,189.444 103.403,191.941 107.435,194.91L107.942,195.284L107.552,195.778C95.368,211.206 81.421,226.33 65.781,239.252C50.144,252.172 32.807,262.9 13.838,269.546C13.458,269.788 13.15,269.611 12.922,269.079C12.868,268.951 12.802,268.793 12.732,268.622C12.345,267.666 11.614,265.793 11.166,264.57L10.982,264.07L11.454,263.822C14.097,262.431 16.686,260.971 19.197,259.407C21.705,257.844 24.131,256.181 26.447,254.384C29.735,251.832 32.81,249.009 35.6,245.818C38.387,242.63 40.892,239.073 43.04,235.055C47.141,227.384 51.106,221.888 54.81,217.647C58.517,213.402 61.954,210.422 65.008,207.774C68.583,204.675 71.665,202.001 74.064,198.479C76.455,194.968 78.194,190.574 79.112,184L79.198,183.389L79.804,183.48Z" style="fill:white;"/>
                    </g>
                    <g transform="matrix(26.0417,0,0,19.5312,0,-4492.23)">
                        <path d="M55.125,212.662C62.124,204.336 68.777,196.422 69.817,184.01C53.183,184.185 38.138,191.001 27.208,201.931C16.134,213.005 9.283,228.303 9.283,245.198C9.283,247.631 9.509,250.388 9.871,253.117C10.235,255.848 10.736,258.562 11.289,260.903C17.461,257.542 23.971,253.113 29.854,247.387C34.845,242.528 39.385,236.732 42.884,229.855C46.28,223.182 50.768,217.843 55.125,212.662ZM71.083,183.436C70.2,196.618 63.309,204.814 56.054,213.444C51.749,218.564 47.314,223.84 43.971,230.408C40.41,237.408 35.786,243.311 30.702,248.259C24.51,254.287 17.635,258.896 11.169,262.349L10.481,262.716L10.292,261.958C9.659,259.419 9.076,256.362 8.665,253.274C8.293,250.479 8.062,247.667 8.062,245.198C8.062,227.966 15.05,212.362 26.345,201.067C37.639,189.773 53.243,182.785 70.475,182.785L71.126,182.785L71.083,183.436Z" style="fill:white;"/>
                    </g>
                    <g transform="matrix(26.0417,0,0,19.5312,0,-4492.23)">
                        <path d="M119.657,198.463L121.5,200.66C121.745,200.953 121.786,201.345 121.437,201.638C121.093,201.927 120.709,201.823 120.46,201.526L118.62,199.333L119.657,198.463ZM121.08,196.425L117.756,199.214L120.015,201.906C120.471,202.449 121.08,202.781 121.852,202.133C122.616,201.492 122.404,200.827 121.948,200.285L120.105,198.087L121.048,197.296L123.477,200.191L123.925,199.816L121.08,196.425ZM111.699,188.286L112.011,192.918C111.717,193.036 111.475,192.935 111.221,192.729L110.097,191.82L109.729,192.274L110.829,193.165C111.389,193.618 111.892,193.7 112.447,193.484L116.281,191.997L115.707,191.532L112.614,192.741L112.387,188.844L111.699,188.286ZM102.359,182.453L101.753,183.504C100.529,185.625 100.371,185.64 99.843,185.335L99.55,185.842L100.094,186.156C100.648,186.475 101.482,185.266 102.217,183.992L102.627,183.283L105.345,184.852L103.468,188.103L104.027,188.427L106.197,184.669L102.359,182.453ZM91.497,178.079L90.886,177.869L89.474,181.971L90.085,182.182L90.736,180.291L91.346,180.501L93.407,183.326L94.42,183.675L92.1,180.449L95.647,179.508L94.593,179.145L91.537,179.948L90.926,179.738L91.497,178.079ZM77.485,174.496L79.405,174.766L79.323,175.346L77.404,175.076L77.485,174.496ZM76.402,174.997L75.762,174.907L75.158,179.204L76.126,179.34L80.309,176.117L79.785,179.854L80.424,179.944L81.028,175.647L80.09,175.515L75.873,178.757L76.402,174.997ZM63.338,177.346L66.195,177.096C66.544,177.066 66.822,177.264 66.87,177.822C66.92,178.393 66.688,178.641 66.327,178.673L63.475,178.922L63.338,177.346ZM63.148,175.182L62.505,175.239L62.883,179.561L66.384,179.255C67.156,179.187 67.598,178.728 67.514,177.765C67.431,176.815 66.899,176.448 66.144,176.513L63.287,176.763L63.148,175.182ZM68.764,174.691L68.12,174.747L68.499,179.07L69.142,179.013L68.764,174.691ZM51.556,177.281L50.929,177.437L51.979,181.647L52.606,181.491L52.142,179.634L55.768,178.73L56.231,180.587L56.857,180.431L55.808,176.221L55.181,176.377L55.626,178.163L52.001,179.066L51.556,177.281ZM41.579,183.287L44.179,182.075C44.496,181.927 44.825,182.019 45.062,182.525C45.304,183.045 45.17,183.358 44.842,183.511L42.247,184.721L41.579,183.287ZM40.661,181.319L40.075,181.592L41.909,185.524L45.117,184.028C45.797,183.711 46.055,183.129 45.647,182.253C45.244,181.388 44.612,181.227 43.926,181.547L41.332,182.757L40.661,181.319ZM30.373,187.141L31.033,188.159C32.367,190.212 32.309,190.36 31.798,190.692L32.116,191.182L32.643,190.841C33.179,190.492 32.48,189.2 31.679,187.966L31.233,187.28L33.865,185.57L35.91,188.719L36.451,188.367L34.089,184.728L30.373,187.141ZM22.368,196.683C23.757,198.122 24.142,198.068 25.682,196.581C27.227,195.089 27.277,194.723 25.883,193.28C24.524,191.872 24.185,191.823 22.583,193.371C20.967,194.931 21.004,195.271 22.368,196.683ZM22.829,196.23C21.722,195.084 21.741,194.997 22.989,193.791C24.215,192.607 24.35,192.622 25.419,193.729C26.432,194.778 26.501,194.975 25.275,196.159C24.014,197.378 23.765,197.199 22.829,196.23ZM15.693,204.721L17.458,202.461C17.694,202.16 18.069,202.039 18.428,202.319C18.782,202.596 18.76,202.993 18.522,203.298L16.76,205.554L15.693,204.721ZM13.403,203.752L16.822,206.424L18.986,203.654C19.422,203.096 19.621,202.431 18.826,201.81C18.04,201.196 17.434,201.543 16.998,202.101L15.232,204.361L14.262,203.603L16.589,200.625L16.128,200.265L13.403,203.752ZM7.242,212.552L8.122,210.825L8.643,211.091L7.763,212.818L7.242,212.552ZM7.362,213.74L7.069,214.315L10.934,216.285L11.379,215.414L9.693,210.409L13.056,212.122L13.349,211.547L9.483,209.577L9.053,210.421L10.745,215.464L7.362,213.74ZM3.083,224.615L7.21,225.956L8.494,222.006L7.937,221.825L6.853,225.161L5.595,224.752L6.641,221.533L6.085,221.352L5.039,224.571L3.839,224.181L4.923,220.845L4.367,220.665L3.083,224.615ZM0.674,235.392L1.868,235.602C4.28,236.027 4.348,236.171 4.243,236.77L4.819,236.872L4.927,236.255C5.039,235.624 3.617,235.255 2.168,234.999L1.362,234.857L1.907,231.766L5.604,232.418L5.716,231.782L1.443,231.028L0.674,235.392ZM2.329,247.787C4.328,247.717 4.546,247.396 4.471,245.256C4.396,243.109 4.157,242.828 2.153,242.898C0.197,242.966 -0.066,243.185 0.011,245.411C0.09,247.656 0.367,247.856 2.329,247.787ZM2.301,247.142C0.709,247.198 0.656,247.125 0.596,245.391C0.536,243.687 0.638,243.597 2.176,243.543C3.633,243.492 3.826,243.573 3.885,245.276C3.947,247.029 3.648,247.095 2.301,247.142ZM3.81,258.298L3.27,255.519C3.176,255.037 3.419,254.739 3.794,254.666C4.168,254.593 4.501,254.76 4.599,255.261L5.139,258.04L3.81,258.298ZM2.028,258.644L1.516,256.011C1.407,255.449 1.655,255.238 2.01,255.169C2.368,255.099 2.615,255.214 2.724,255.776L3.236,258.41L2.028,258.644ZM5.836,258.562L5.172,255.144C5.003,254.275 4.517,253.867 3.664,254.033C3.09,254.144 2.844,254.519 2.803,254.858C2.62,254.561 2.298,254.454 1.887,254.534C1.114,254.685 0.773,255.253 0.942,256.123L1.577,259.39L5.836,258.562Z" style="fill:rgb(237,28,36);"/>
                    </g>
                    <g transform="matrix(26.0417,0,0,19.5312,0,-4492.23)">
                        <path d="M135.785,250.555L135.967,248.475L136.594,248.53L136.412,250.61L135.785,250.555ZM136.384,251.693L136.324,252.386L140.98,252.794L141.071,251.744L137.369,247.426L141.418,247.78L141.479,247.086L136.823,246.679L136.734,247.696L140.459,252.05L136.384,251.693ZM138.495,258.559L137.837,261.197L135.759,259.367L135.801,259.199L138.495,258.559ZM135.371,258.62L135.108,259.676L139.046,263.2L139.237,262.434L138.36,261.648L139.167,258.413L140.31,258.131L140.501,257.365L135.371,258.62ZM132.666,269.574L133.824,266.71C133.965,266.36 134.292,266.191 134.85,266.416C135.422,266.647 135.546,266.992 135.4,267.354L134.245,270.212L132.666,269.574ZM134.829,270.448L135.987,267.584C136.29,266.834 136.082,266.163 135.129,265.779C134.164,265.389 133.552,265.699 133.249,266.449L131.821,269.983L136.155,271.735L136.416,271.089L134.829,270.448ZM127.966,278.224L127.65,278.844L131.815,280.966L132.131,280.346L130.212,279.368L130.528,278.748L133.85,276.973L134.373,275.945L130.585,277.935L130.112,274.011L129.567,275.081L129.966,278.462L129.649,279.082L127.966,278.224ZM120.436,287.578L121.751,285.955L122.24,286.351L120.926,287.974L120.436,287.578ZM120.297,288.856L119.859,289.397L123.491,292.338L124.154,291.519L123.5,285.869L126.659,288.427L127.097,287.886L123.464,284.944L122.822,285.738L123.476,291.43L120.297,288.856ZM113.296,295.578L112.762,296.026L115.767,299.606L116.574,298.929L117.014,293.263L119.622,296.371L120.155,295.924L117.151,292.343L116.369,292.999L115.929,298.717L113.296,295.578ZM105.592,301.301L105.001,301.67L107.478,305.634L108.069,305.264L106.927,303.438L107.517,303.069L111.279,303.258L112.258,302.647L107.985,302.402L109.601,298.795L108.583,299.432L107.183,302.535L106.593,302.903L105.592,301.301ZM101.898,307.042C102.317,307.98 102.111,308.108 100.567,308.795C98.858,309.556 98.762,309.534 98.066,307.971C97.367,306.403 97.416,306.316 99.124,305.556C100.669,304.868 100.901,304.801 101.319,305.74L101.955,305.456C101.346,304.088 100.922,304.066 98.868,304.98C96.76,305.918 96.57,306.322 97.43,308.254C98.287,310.18 98.716,310.31 100.824,309.372C102.877,308.458 103.144,308.127 102.534,306.758L101.898,307.042ZM88.366,309.718L91.304,308.763C91.663,308.646 92.002,308.787 92.188,309.36C92.379,309.947 92.195,310.264 91.824,310.385L88.892,311.337L88.366,309.718ZM89.087,311.936L92.025,310.981C92.794,310.732 93.174,310.141 92.856,309.164C92.535,308.175 91.903,307.906 91.134,308.155L87.509,309.334L88.953,313.779L89.616,313.563L89.087,311.936ZM83.007,312.662L79.833,313.222C79.448,313.29 79.003,313.287 78.868,312.517C78.729,311.733 79.149,311.592 79.534,311.524L82.708,310.965L83.007,312.662ZM83.41,314.947L84.095,314.827L83.283,310.224L79.151,310.952C78.348,311.094 78.033,311.789 78.182,312.639C78.332,313.487 78.667,313.63 78.99,313.707C78.749,313.864 78.448,314.146 78.536,314.642L78.735,315.772L79.42,315.651L79.221,314.521C79.166,314.208 79.479,313.924 79.877,313.854L83.116,313.283L83.41,314.947ZM68.558,313.87C68.595,316.025 68.937,316.265 71.244,316.225C73.558,316.184 73.865,315.933 73.828,313.772C73.791,311.664 73.56,311.376 71.16,311.418C68.741,311.46 68.521,311.756 68.558,313.87ZM69.253,313.852C69.223,312.135 69.302,312.081 71.171,312.048C73.008,312.016 73.103,312.127 73.132,313.784C73.159,315.355 73.069,315.561 71.233,315.594C69.343,315.627 69.279,315.303 69.253,313.852ZM59.666,310.683L58.976,310.599L58.406,315.238L59.097,315.323L59.348,313.276L63.343,313.767L63.091,315.813L63.783,315.898L64.352,311.259L63.661,311.174L63.42,313.141L59.425,312.651L59.666,310.683ZM53.243,312.41C52.977,313.402 52.738,313.372 51.104,312.935C49.299,312.451 49.237,312.373 49.68,310.72C50.124,309.062 50.217,309.025 52.022,309.509C53.655,309.947 53.878,310.04 53.612,311.033L54.284,311.213C54.672,309.766 54.356,309.482 52.186,308.9C49.957,308.304 49.555,308.498 49.008,310.54C48.462,312.577 48.713,312.947 50.941,313.544C53.112,314.126 53.528,314.037 53.916,312.59L53.243,312.41ZM43.302,309.067L40.818,307.962L42.982,306.233L43.139,306.303L43.302,309.067ZM43.784,305.98L42.79,305.537L38.636,308.804L39.357,309.126L40.283,308.398L43.33,309.755L43.409,310.929L44.13,311.251L43.784,305.98ZM33.541,301.222L36.161,302.859C36.481,303.059 36.591,303.41 36.272,303.921C35.945,304.444 35.584,304.507 35.253,304.3L32.639,302.666L33.541,301.222ZM32.305,303.201L34.925,304.838C35.611,305.267 36.307,305.178 36.852,304.306C37.403,303.424 37.203,302.768 36.517,302.339L33.285,300.319L30.808,304.283L31.398,304.652L32.305,303.201ZM26.303,294.95L25.77,294.502L22.765,298.083L23.299,298.53L24.683,296.88L25.216,297.327L26.199,300.963L27.083,301.705L25.995,297.566L29.925,297.988L29.005,297.217L25.621,296.845L25.088,296.397L26.303,294.95Z" style="fill:rgb(0,96,175);"/>
                    </g>
                    <g transform="matrix(26.0417,0,0,19.5312,0,-4492.23)">
                        <path d="M76.895,192.05C97.794,192.05 114.737,208.992 114.737,229.891C114.737,250.79 97.794,267.732 76.895,267.732C55.996,267.732 39.054,250.79 39.054,229.891C39.054,208.992 55.996,192.05 76.895,192.05Z" style="fill:rgb(0,96,175);"/>
                    </g>
                    <g transform="matrix(26.0417,0,0,19.5312,0,-4492.23)">
                        <path d="M76.895,195.032C96.147,195.032 111.754,210.639 111.754,229.891C111.754,249.143 96.147,264.749 76.895,264.749C57.644,264.749 42.037,249.143 42.037,229.891C42.037,210.639 57.644,195.032 76.895,195.032Z" style="fill:rgb(0,96,175);"/>
                    </g>
                    <g transform="matrix(26.0417,0,0,19.5312,0,-4492.23)">
                        <path d="M76.895,194.726L76.895,195.338C86.438,195.338 95.074,199.205 101.328,205.458C107.581,211.712 111.448,220.348 111.448,229.891C111.448,239.433 107.581,248.069 101.328,254.323C95.074,260.576 86.438,264.443 76.895,264.443C67.353,264.443 58.717,260.576 52.463,254.323C46.21,248.069 42.343,239.433 42.343,229.891C42.343,220.348 46.21,211.712 52.463,205.458C58.717,199.205 67.353,195.338 76.895,195.338L76.895,194.726C57.474,194.726 41.731,210.47 41.731,229.891C41.731,249.312 57.474,265.055 76.895,265.055C96.316,265.055 112.06,249.312 112.06,229.891C112.06,210.47 96.316,194.726 76.895,194.726Z" style="fill:white;fill-rule:nonzero;"/>
                    </g>
                    <g transform="matrix(26.0417,0,0,19.5312,0,-4492.23)">
                        <path d="M54.271,256.406C47.705,250.797 43.247,242.794 42.25,233.749C44.316,224.562 52.934,216.531 69.094,218.162C71.819,221.937 73.789,225.521 75.201,230.43C70.511,232.786 66.179,235.216 62.682,238.043C56.589,242.967 52.635,247.433 54.226,256.166L54.271,256.406Z" style="fill:white;"/>
                    </g>
                    <g transform="matrix(26.0417,0,0,19.5312,0,-4492.23)">
                        <path d="M48.944,209.061C53.765,202.605 60.769,197.874 68.862,195.965C79.572,196.307 89.766,205.473 87.525,224.059C83.702,226.558 80.048,228.518 75.225,230.39C70.843,215.942 59.859,206.809 48.944,209.061Z" style="fill:white;"/>
                    </g>
                    <g transform="matrix(26.0417,0,0,19.5312,0,-4492.23)">
                        <path d="M96.759,201.247C103.398,205.86 108.358,212.721 110.534,220.728C110.568,221.096 110.592,221.463 110.602,221.829C110.463,232.964 102.138,244.174 81.97,242.446C79.321,238.726 77.216,235.153 75.153,230.409C91.016,224.897 102.218,212.788 96.759,201.247Z" style="fill:white;"/>
                    </g>
                    <g transform="matrix(26.0417,0,0,19.5312,0,-4492.23)">
                        <path d="M104.765,250.828C99.186,258.241 90.719,263.356 81.037,264.503C69.175,262.435 62.772,252.876 62.772,237.911C66.941,234.871 70.51,232.711 75.158,230.43C83.428,249.098 94.247,256.418 104.765,250.828Z" style="fill:white;"/>
                    </g>
                    <g transform="matrix(26.0417,0,0,19.5312,0,-4492.23)">
                        <path d="M87.738,221.81C87.687,222.544 87.618,223.293 87.525,224.059C83.764,226.517 80.168,228.454 75.46,230.299L76.029,228.502C80.708,226.612 84.21,224.703 87.738,221.81Z" style="fill:rgb(0,96,175);"/>
                    </g>
                    <g transform="matrix(26.0417,0,0,19.5312,0,-4492.23)">
                        <path d="M65.406,217.953C66.589,217.966 67.817,218.034 69.094,218.162C71.819,221.937 73.789,225.521 75.201,230.43L75.166,230.448C83.435,249.103 94.25,256.416 104.765,250.828C103.894,251.986 102.952,253.088 101.946,254.127C87.515,256.707 78.45,243.534 73.67,231.903L75.403,231.027L75.174,230.422L72.705,231.657C73.135,231.168 73.206,230.554 72.951,229.606C72.288,227.148 69.12,218.922 66.696,218.289L65.406,217.953Z" style="fill:rgb(0,96,175);"/>
                    </g>
                    <g transform="matrix(26.0417,0,0,19.5312,0,-4492.23)">
                        <path d="M72.975,231.446C73.22,230.725 73.193,230.124 72.917,229.453C72.878,229.357 72.918,229.498 72.868,229.399C68.684,231.666 61.579,236.152 58.092,240.001C56.881,241.337 55.839,242.792 56.685,243.915C60.942,238.706 67.075,234.618 72.975,231.446Z" style="fill:rgb(0,96,175);"/>
                    </g>
                    <g transform="matrix(26.0417,0,0,19.5312,0,-4492.23)">
                        <path d="M87.827,254.306C81.404,256.774 75.062,259.929 69.041,263.156C68.747,266.567 68.666,269.393 68.823,272.987C73.494,269.739 79.092,267.226 86.087,265.196C86.374,261.571 86.941,258.115 87.827,254.306ZM113.523,243.141C105.223,246.943 98.07,249.274 90.062,253.595C89.106,257.031 88.39,260.598 87.924,264.683C89.68,264.211 91.518,263.765 93.45,263.344C97.652,262.427 101.829,261.046 106.474,259.233C108.511,253.247 111.191,247.762 113.523,243.141ZM8.999,287.94C22.081,289.058 80.861,252.502 96.662,245.588L127.67,229.618L126.273,235.225C124,237.052 121.622,238.701 119.162,240.212C115.622,245.16 112.279,251.409 109.678,258.102C115.037,255.822 120.09,253.066 123.803,250.068L122.732,255.997C118.476,259.06 113.467,261.018 108.09,262.531C104.024,274.895 102.762,288.094 107.514,297.062L107.418,297.703C102.118,287.699 102.484,275.01 105.813,263.143C99.97,264.64 93.768,265.733 87.672,267.224C87.007,275.121 87.413,283.26 89.365,289.076L89.15,289.603C86.656,282.168 85.643,275.019 85.94,267.661C79.965,269.209 74.137,271.216 68.899,274.444C69.296,280.898 69.819,285.576 71.9,290.153L71.735,290.693C69.189,285.093 68.357,280.949 67.689,275.219C63.435,278.05 57.266,282.786 51.542,282.032L51.46,281.769C57.267,281.601 63.02,277.313 67.551,273.907C67.214,270.358 67.183,267.601 67.399,264.057C50.565,273.52 25.258,286.323 9.611,288.831L8.999,287.94Z" style="fill:rgb(0,96,175);"/>
                    </g>
                    <g transform="matrix(26.0417,0,0,19.5312,0,-4492.23)">
                        <path d="M126.707,209.433C126.766,209.971 126.697,210.475 126.498,210.946C126.281,211.482 125.935,211.875 125.461,212.126C125.108,212.313 124.645,212.376 124.071,212.314C123.486,212.257 123.105,212.276 122.929,212.37C122.598,212.545 122.402,213.008 122.342,213.758L122.11,213.881C122.009,212.592 122.417,211.705 123.332,211.221C123.663,211.045 124.121,210.986 124.706,211.042C125.284,211.088 125.668,211.061 125.855,210.962C126.208,210.775 126.415,210.306 126.475,209.556L126.707,209.433ZM134.684,222.998C134.883,222.893 134.975,222.756 134.961,222.587C134.145,214.06 133.727,209.781 133.708,209.75C133.653,209.657 133.559,209.646 133.427,209.716L127.455,212.879L127.268,213.04L127.176,213.251L127.185,213.266L127.178,213.291L122.993,224.819C122.946,224.302 122.891,223.722 122.826,223.078C122.762,222.435 122.7,221.783 122.64,221.123C122.581,220.463 122.519,219.818 122.455,219.188C122.391,218.558 122.338,218 122.295,217.514C122.252,217.028 122.214,216.635 122.18,216.335C122.146,216.034 122.129,215.884 122.129,215.884C122.073,215.791 121.98,215.78 121.847,215.85L115.859,219.022C115.672,219.122 115.585,219.255 115.599,219.424C116.398,227.947 116.81,232.229 116.835,232.27C116.89,232.363 116.99,232.371 117.133,232.295L123.105,229.132C123.314,229.021 123.401,228.887 123.366,228.73L127.439,216.284C127.498,216.943 127.565,217.64 127.639,218.373C127.714,219.106 127.787,219.837 127.858,220.565C127.929,221.293 127.997,221.992 128.063,222.662C128.129,223.332 128.19,223.923 128.248,224.435C128.307,224.946 128.352,225.356 128.384,225.664C128.414,225.973 128.431,226.127 128.431,226.127C128.487,226.22 128.58,226.231 128.713,226.161L134.684,222.998ZM111.716,228.781L103.743,233.004C103.611,233.074 103.517,233.063 103.461,232.97C103.449,232.95 103.383,232.327 103.263,231.103C103.249,230.934 103.336,230.8 103.523,230.701L111.497,226.477C111.64,226.401 111.742,226.415 111.804,226.518C111.823,226.549 111.88,227.169 111.977,228.378C112.013,228.535 111.926,228.67 111.716,228.781ZM112.276,234.868C112.486,234.757 112.584,234.617 112.57,234.448L112.401,232.667L112.38,232.597C112.325,232.504 112.22,232.498 112.066,232.58L104.539,236.568C103.778,236.971 103.22,236.873 102.864,236.276C102.618,235.864 102.446,235.101 102.348,233.987L102.138,231.882C102.034,230.88 102.06,230.12 102.216,229.604C102.424,228.857 102.919,228.276 103.702,227.861L111.229,223.874C111.438,223.763 111.534,223.631 111.516,223.478L111.337,221.682L111.317,221.611C111.261,221.519 111.162,221.51 111.019,221.586L99.819,227.519C98.187,228.383 96.957,229.74 96.129,231.588C95.372,233.263 95.08,235.038 95.254,236.911C95.352,238.025 95.628,238.963 96.082,239.725C96.623,240.632 97.355,241.179 98.28,241.367C99.13,241.527 100.062,241.338 101.077,240.801L112.276,234.868ZM92.564,245.31C92.763,245.205 92.855,245.068 92.841,244.899L92.672,243.118L92.652,243.047C92.596,242.955 92.497,242.946 92.354,243.022L84.811,247.018C84.061,247.415 83.508,247.315 83.151,246.718C82.912,246.316 82.734,245.556 82.619,244.438L82.426,242.324C82.322,241.322 82.348,240.562 82.504,240.046C82.701,239.305 83.19,238.727 83.974,238.312L91.517,234.316C91.715,234.211 91.811,234.079 91.803,233.92L91.625,232.124L91.605,232.053C91.549,231.96 91.45,231.952 91.306,232.028L80.091,237.969C78.47,238.828 77.245,240.182 76.417,242.03C75.671,243.7 75.374,245.477 75.525,247.362C75.64,248.48 75.922,249.415 76.371,250.167C76.911,251.074 77.644,251.621 78.568,251.809C79.418,251.969 80.35,251.78 81.365,251.243L92.564,245.31ZM72.786,255.787C72.985,255.682 73.077,255.545 73.063,255.376C72.246,246.849 71.828,242.57 71.81,242.539C71.755,242.446 71.661,242.435 71.529,242.505L65.557,245.668L65.369,245.829L65.278,246.04L65.287,246.055L65.28,246.08L61.095,257.609C61.048,257.091 60.992,256.511 60.928,255.867C60.863,255.224 60.801,254.572 60.742,253.912C60.682,253.253 60.621,252.607 60.557,251.977C60.493,251.347 60.44,250.789 60.397,250.303C60.354,249.817 60.316,249.424 60.282,249.123C60.248,248.823 60.23,248.673 60.23,248.673C60.175,248.58 60.081,248.569 59.949,248.639L53.961,251.811C53.773,251.911 53.686,252.045 53.7,252.214C54.5,260.736 54.912,265.018 54.937,265.059C54.992,265.152 55.091,265.16 55.235,265.085L61.206,261.921C61.416,261.81 61.503,261.676 61.467,261.519L65.54,249.073C65.6,249.733 65.667,250.429 65.741,251.162C65.816,251.895 65.888,252.626 65.96,253.354C66.031,254.082 66.099,254.782 66.165,255.451C66.231,256.122 66.293,256.712 66.351,257.224C66.409,257.735 66.454,258.145 66.485,258.453C66.517,258.762 66.533,258.916 66.533,258.916C66.588,259.009 66.682,259.021 66.814,258.95L72.786,255.787ZM49.865,267.929C50.064,267.824 50.156,267.687 50.142,267.518C49.325,258.991 48.907,254.712 48.889,254.681C48.834,254.588 48.74,254.577 48.608,254.647L42.636,257.81C42.437,257.916 42.345,258.053 42.359,258.221L42.799,262.868L37.771,265.532C37.482,262.418 37.328,260.846 37.309,260.815C37.254,260.722 37.161,260.711 37.028,260.781L31.04,263.953C30.852,264.052 30.765,264.186 30.779,264.356C31.579,272.878 31.991,277.16 32.016,277.201C32.071,277.294 32.17,277.302 32.314,277.226L38.286,274.063C38.495,273.952 38.582,273.818 38.546,273.66L37.99,267.835L43.035,265.162C43.407,269.072 43.6,271.038 43.612,271.058C43.667,271.151 43.761,271.162 43.893,271.092L49.865,267.929ZM26.45,273.948L18.477,278.172C18.345,278.242 18.251,278.231 18.196,278.138C18.183,278.117 18.117,277.495 17.997,276.271C17.983,276.102 18.07,275.968 18.257,275.869L26.231,271.645C26.374,271.569 26.477,271.582 26.538,271.685C26.556,271.716 26.614,272.336 26.711,273.546C26.747,273.703 26.66,273.837 26.45,273.948ZM27.01,280.036C27.22,279.925 27.318,279.785 27.304,279.616L27.135,277.835L27.115,277.764C27.059,277.672 26.954,277.666 26.8,277.748L19.273,281.735C18.512,282.138 17.954,282.041 17.598,281.443C17.352,281.031 17.18,280.268 17.082,279.155L16.872,277.049C16.768,276.048 16.794,275.288 16.95,274.772C17.158,274.024 17.653,273.444 18.436,273.029L25.963,269.042C26.173,268.931 26.268,268.799 26.25,268.646L26.071,266.85L26.051,266.779C25.995,266.686 25.896,266.678 25.753,266.754L14.554,272.686C12.922,273.551 11.691,274.907 10.864,276.756C10.107,278.431 9.815,280.205 9.988,282.079C10.086,283.193 10.363,284.131 10.817,284.893C11.357,285.8 12.09,286.347 13.014,286.535C13.864,286.695 14.796,286.506 15.811,285.968L27.01,280.036Z" style="fill:rgb(237,28,36);"/>
                    </g>
                </g>
            </g>
        </g>
    </g>
</svg>
