<?xml version="1.0" encoding="UTF-8" standalone="no"?>
<!DOCTYPE svg PUBLIC "-//W3C//DTD SVG 1.1//EN" "http://www.w3.org/Graphics/SVG/1.1/DTD/svg11.dtd">
<svg width="100%" height="100%" viewBox="0 0 257 257" version="1.1" xmlns="http://www.w3.org/2000/svg" xmlns:xlink="http://www.w3.org/1999/xlink" xml:space="preserve" xmlns:serif="http://www.serif.com/" style="fill-rule:evenodd;clip-rule:evenodd;stroke-linejoin:round;stroke-miterlimit:2;">
    <g transform="matrix(1,0,0,1,-6293,-4138)">
        <g transform="matrix(0.32,0,0,0.426667,6293.37,4138.61)">
            <rect id="vk-omicka" x="0" y="0" width="800" height="600" style="fill:none;"/>
            <g id="vk-omicka1" serif:id="vk-omicka">
                <g transform="matrix(0.54322,0,0,0.54322,10.3583,139.023)">
                    <g transform="matrix(3.125,0,0,2.34375,0,0)">
                        <path d="M459.05,207.36L374.79,220.04L375.79,179.3L459.05,207.36Z" style="fill:rgb(30,36,69);fill-rule:nonzero;"/>
                    </g>
                    <g transform="matrix(3.125,0,0,2.34375,0,0)">
                        <path d="M0,207.36L84.22,220.04L83.22,179.3L0,207.36Z" style="fill:rgb(30,36,69);fill-rule:nonzero;"/>
                    </g>
                    <g transform="matrix(3.125,0,0,2.34375,0,0)">
                        <path d="M319.34,70.91C315.67,53.6 306.94,37.76 294.27,25.41C281.6,13.06 265.55,4.74 248.15,1.5C230.75,-1.73 212.78,0.27 196.52,7.25C180.26,14.23 166.43,25.87 156.78,40.71C147.13,55.55 142.11,72.91 142.33,90.61C142.55,108.31 148.02,125.54 158.04,140.13C168.06,154.72 182.18,166.01 198.61,172.58C215.05,179.14 233.06,180.69 250.37,177.02C273.57,172.07 293.86,158.11 306.78,138.22C319.71,118.33 324.22,94.13 319.33,70.91L319.34,70.91Z" style="fill:rgb(30,36,69);fill-rule:nonzero;"/>
                    </g>
                    <g transform="matrix(3.125,0,0,2.34375,0,0)">
                        <path d="M298.91,120.82C298.25,119.45 297.5,118.08 296.71,116.68C289.55,105.5 279.65,96.34 267.95,90.07C262.18,86.87 255.99,84.51 249.55,83.07C244.84,82.14 240.03,81.89 235.25,82.32L235,82.32L234.5,81.62C234.32,81.41 234.16,81.19 234,80.96C229.46,72.75 227.33,63.43 227.87,54.06C244.74,51.2 262.06,55.15 276.03,65.04C287.44,72.95 297.52,82.63 305.87,93.72C305.26,103.06 302.9,112.2 298.91,120.66" style="fill:rgb(215,15,40);fill-rule:nonzero;"/>
                    </g>
                    <g transform="matrix(3.125,0,0,2.34375,0,0)">
                        <path d="M191.06,151.36C183.23,146.17 176.44,139.57 171.04,131.88C175.32,132.14 179.61,131.95 183.85,131.3C189.05,130.44 194.15,129.05 199.06,127.16C204.05,125.3 208.85,122.97 213.4,120.2C219.9,116.19 225.66,111.11 230.43,105.16C232.74,102.27 234.69,99.11 236.23,95.75C245.06,95.34 253.82,97.49 261.47,101.93L263.29,103.13C254.61,116.64 242.96,127.98 229.22,136.29C217.54,143.61 204.59,148.68 191.05,151.25" style="fill:rgb(215,15,40);fill-rule:nonzero;"/>
                    </g>
                    <g transform="matrix(3.125,0,0,2.34375,0,0)">
                        <path d="M225.38,15.71C223.1,19.22 221.2,22.95 219.7,26.86C217.81,31.9 216.42,37.12 215.56,42.44C213.61,53.66 214.22,65.18 217.34,76.14C218.57,80.37 220.34,84.42 222.6,88.2C223.06,88.95 223.64,89.57 224.13,90.31C220.26,97.71 214.42,103.89 207.26,108.17C204.95,105.57 202.85,102.8 200.96,99.88C192.95,86.57 189.45,71.03 190.97,55.57C191.94,44.6 194.53,33.83 198.64,23.62C207.03,19.38 216.14,16.77 225.5,15.91" style="fill:rgb(215,15,40);fill-rule:nonzero;"/>
                    </g>
                    <g transform="matrix(3.125,0,0,2.34375,0,0)">
                        <path d="M295.01,50.57C298.84,56.81 301.73,63.59 303.59,70.67C297.48,64.46 290.75,58.91 283.49,54.09C267.79,43.14 248.64,38.26 229.61,40.37L229.61,39.96C230.11,37.94 230.71,35.95 231.43,33.99C232.9,29.56 235,25.37 237.69,21.56C239.08,19.61 240.69,17.83 242.5,16.25C253.21,17.81 263.45,21.7 272.49,27.64C281.53,33.58 289.17,41.44 294.85,50.65" style="fill:rgb(215,15,40);fill-rule:nonzero;"/>
                    </g>
                    <g transform="matrix(3.125,0,0,2.34375,0,0)">
                        <path d="M166.53,54.21C170.19,47.5 174.87,41.4 180.41,36.14C178.9,42.11 177.89,48.2 177.38,54.33C175.62,72.65 179.81,91.05 189.32,106.8C190.97,109.45 192.75,112.01 194.67,114.47C190.5,116.05 186.18,117.21 181.78,117.91C175.46,119.06 168.95,118.63 162.84,116.67C158.85,106.62 157.11,95.82 157.75,85.03C158.39,74.24 161.38,63.72 166.53,54.21Z" style="fill:rgb(215,15,40);fill-rule:nonzero;"/>
                    </g>
                    <g transform="matrix(3.125,0,0,2.34375,0,0)">
                        <path d="M233.92,163.67C225.86,163.87 217.83,162.75 210.13,160.35C219.28,157.16 228.06,152.99 236.32,147.92C251.58,138.68 264.57,126.13 274.33,111.2L275.03,111.78C278.95,115.33 282.37,119.4 285.18,123.88C287.45,127.51 289,131.55 289.74,135.77C284.41,142.47 277.96,148.21 270.67,152.72C259.6,159.56 246.91,163.33 233.91,163.66L233.92,163.67Z" style="fill:rgb(215,15,40);fill-rule:nonzero;"/>
                    </g>
                    <g transform="matrix(3.125,0,0,2.34375,0,0)">
                        <path d="M355.68,238.77C319.87,233.51 280.83,231.6 229.48,231.6C185.55,231.13 141.65,233.77 98.1,239.52L89.23,224.93L89.23,188.21L95.94,187.3C140.2,181.44 184.83,178.74 229.48,179.22C274.14,178.74 318.78,181.44 363.06,187.3L369.77,188.21L369.77,228.83L355.68,238.78L355.68,238.77Z" style="fill:white;fill-rule:nonzero;"/>
                    </g>
                    <g transform="matrix(3.125,0,0,2.34375,0,0)">
                        <path d="M229.53,187C273.87,186.51 318.19,189.17 362.16,194.96L362.16,209.42C362.16,212.19 361.58,214.93 360.46,217.47C359.33,220 357.69,222.27 355.63,224.12C353.57,225.97 351.14,227.37 348.5,228.22C345.86,229.07 343.08,229.36 340.32,229.06C303.51,225.29 266.53,223.51 229.54,223.71C192.6,223.46 155.67,225.21 118.92,228.93C116.16,229.23 113.36,228.93 110.72,228.08C108.08,227.23 105.64,225.83 103.57,223.97C101.5,222.11 99.85,219.84 98.72,217.3C97.59,214.76 97,212.01 97,209.24L97,194.94C140.97,189.16 185.29,186.5 229.63,186.98M229.55,171.44C162.12,171.44 81.55,181.43 81.55,181.43L81.55,212.47C81.57,217.09 82.56,221.65 84.45,225.87C86.34,230.09 89.09,233.86 92.52,236.95C95.95,240.04 100,242.38 104.39,243.82C108.78,245.26 113.42,245.76 118.02,245.3C145.58,242.48 186.03,239.33 229.59,239.33C273.15,239.33 313.31,242.48 341.04,245.34C345.67,245.82 350.35,245.31 354.77,243.86C359.19,242.41 363.26,240.04 366.71,236.91C370.16,233.78 372.91,229.96 374.78,225.7C376.65,221.44 377.61,216.83 377.59,212.17L377.59,181.42C328.45,175.62 279.06,172.29 229.59,171.43L229.55,171.43L229.55,171.44Z" style="fill:rgb(30,36,69);fill-rule:nonzero;"/>
                    </g>
                    <g transform="matrix(3.125,0,0,2.34375,0,0)">
                        <path d="M123.92,217.18C125.02,217.18 126.07,216.74 126.85,215.97C127.63,215.2 128.06,214.14 128.06,213.04C128.12,212.37 127.94,211.71 127.56,211.16C127.18,210.61 126.63,210.2 125.99,210.02C126.47,209.7 126.87,209.26 127.13,208.75C127.39,208.23 127.51,207.66 127.48,207.08C127.48,204.59 125.91,203.43 123.34,203.68L117.45,204.26L117.45,217.98L123.92,217.19L123.92,217.18ZM120.52,212L123.79,211.67C124.45,211.67 125.03,212.04 125.03,213C125.05,213.18 125.03,213.37 124.99,213.55C124.94,213.73 124.85,213.89 124.74,214.04C124.63,214.19 124.48,214.3 124.32,214.39C124.16,214.48 123.98,214.53 123.79,214.54L120.52,214.87L120.52,212ZM120.52,206.4L123.13,206.15C123.32,206.14 123.5,206.16 123.67,206.23C123.84,206.3 124,206.4 124.13,206.54C124.26,206.68 124.35,206.84 124.41,207.01C124.47,207.18 124.48,207.37 124.46,207.56C124.5,207.95 124.38,208.35 124.13,208.66C123.88,208.97 123.53,209.17 123.13,209.22L120.52,209.47L120.52,206.4ZM138.59,211.29C138.59,212.41 137.72,213.4 136.06,213.57C134.4,213.74 133.57,212.87 133.57,211.75L133.57,207.15C133.57,206.03 134.4,205.04 136.06,204.87C137.72,204.7 138.59,205.57 138.59,206.69L138.59,211.29ZM141.66,206.23C141.66,203.08 139.5,201.42 136.06,201.75C135.33,201.73 134.6,201.86 133.92,202.13C133.24,202.4 132.62,202.8 132.1,203.32C131.58,203.83 131.16,204.45 130.88,205.12C130.6,205.8 130.46,206.52 130.46,207.26L130.46,211.61C130.41,212.28 130.53,212.95 130.79,213.56C131.06,214.17 131.47,214.71 131.99,215.13C132.58,215.56 133.26,215.86 133.97,216.02C134.68,216.18 135.42,216.2 136.14,216.08C137.68,216.02 139.15,215.42 140.28,214.38C140.78,213.89 141.17,213.3 141.42,212.65C141.68,212 141.8,211.3 141.77,210.61L141.65,206.22L141.66,206.23ZM143.44,215.14C147.05,214.85 148.75,212.57 148.75,207.76L148.75,203.62L152.02,203.37L152.02,214.6L155.13,214.6L155.13,200.63L145.93,201.33L145.93,207.63C146.02,208.89 145.85,210.16 145.43,211.36C145.23,211.71 144.94,212 144.59,212.2C144.24,212.4 143.84,212.49 143.44,212.48L143.44,215.14ZM167.89,213.33L167.89,210.67L161.76,211.08L161.76,208.1L166.94,207.77L166.94,205.2L161.76,205.57L161.76,203L167.85,202.59L167.85,199.94L158.65,200.56L158.65,214.32L167.89,213.33ZM173.69,212.91L178.75,204.33L178.75,212.62L181.86,212.62L181.86,198.86L179,198.86L173.94,207.44L173.94,199.15L170.83,199.15L170.83,212.91L173.69,212.91ZM176.34,198.53C178.37,198.53 179.66,197.41 179.66,195.71L179.66,195.46L177.26,195.46C177.26,195.96 176.97,196.21 176.35,196.25C175.73,196.29 175.44,196.25 175.44,195.59L175.44,195.55L173.04,195.55L173.04,195.8C173.04,197.46 174.37,198.33 176.36,198.2M192.15,212.25C192.73,212.25 193.3,212.13 193.83,211.9C194.36,211.67 194.83,211.33 195.22,210.9C195.61,210.47 195.91,209.97 196.09,209.43C196.27,208.88 196.34,208.3 196.29,207.73C196.37,207.17 196.32,206.59 196.15,206.05C195.98,205.51 195.67,205.02 195.27,204.61C194.87,204.2 194.38,203.9 193.83,203.73C193.29,203.55 192.71,203.5 192.15,203.59L188.5,203.59L188.5,201.14L195.3,200.81L195.3,198.16L185.52,198.86L185.52,212.62L192.15,212.25ZM188.5,206.45L191.61,206.45C191.81,206.45 192.01,206.5 192.19,206.59C192.37,206.68 192.54,206.8 192.67,206.95C192.8,207.1 192.9,207.28 192.96,207.47C193.02,207.66 193.04,207.87 193.02,208.07C193.05,208.28 193.03,208.49 192.98,208.69C192.92,208.89 192.83,209.08 192.69,209.24C192.56,209.4 192.39,209.54 192.21,209.63C192.02,209.73 191.82,209.78 191.61,209.8L188.5,209.8L188.5,206.44L188.5,206.45ZM206.65,207.15C206.65,208.27 205.78,209.22 204.12,209.26C202.46,209.3 201.59,208.43 201.59,207.31L201.59,202.46C201.59,201.34 202.46,200.39 204.12,200.35C205.78,200.31 206.65,201.18 206.65,202.3L206.65,207.15ZM209.76,202.34C209.76,199.23 207.56,197.45 204.12,197.57C203.4,197.49 202.67,197.57 201.98,197.8C201.29,198.03 200.66,198.4 200.13,198.89C199.6,199.38 199.17,199.98 198.89,200.64C198.61,201.31 198.47,202.03 198.48,202.75L198.48,206.89C198.42,207.57 198.53,208.26 198.79,208.89C199.06,209.52 199.48,210.07 200.01,210.5C201.19,211.41 202.67,211.84 204.15,211.7C205.67,211.72 207.14,211.19 208.29,210.21C208.8,209.75 209.2,209.18 209.47,208.54C209.74,207.9 209.86,207.21 209.82,206.52L209.74,202.33L209.76,202.34ZM211.54,211.33C215.15,211.33 216.85,209.09 216.85,204.28L216.85,200.14L220.12,200.14L220.12,211.29L223.23,211.29L223.23,197.36L213.99,197.36L213.99,203.83C214.08,205.09 213.91,206.36 213.49,207.56C213.29,207.89 213,208.15 212.65,208.33C212.3,208.51 211.92,208.58 211.54,208.56L211.54,211.34L211.54,211.33ZM233.05,211C234.19,211 235.29,210.55 236.1,209.74C236.91,208.93 237.36,207.84 237.36,206.69C237.36,205.54 236.91,204.45 236.1,203.64C235.29,202.83 234.2,202.38 233.05,202.38L229.86,202.38L229.86,197.28L226.96,197.28L226.96,211.04L233.05,211ZM229.86,205.07L232.47,205.07C232.68,205.07 232.89,205.11 233.08,205.2C233.27,205.29 233.44,205.41 233.58,205.57C233.72,205.73 233.82,205.91 233.88,206.11C233.94,206.31 233.95,206.52 233.92,206.73C233.94,206.94 233.92,207.14 233.86,207.34C233.8,207.54 233.7,207.72 233.56,207.88C233.42,208.04 233.26,208.16 233.07,208.25C232.88,208.34 232.68,208.39 232.47,208.39L229.86,208.39L229.86,205.07ZM243,211.05L243,205.49L247.68,205.49L247.68,211.29L250.79,211.29L250.79,197.41L247.68,197.41L247.68,203.01L242.96,203.01L242.96,197.29L239.85,197.29L239.85,211.05L243,211.05ZM260.66,211.37C261.22,211.45 261.79,211.39 262.33,211.21C262.87,211.03 263.35,210.73 263.76,210.32C264.16,209.92 264.46,209.43 264.65,208.89C264.83,208.35 264.89,207.78 264.81,207.22C264.85,206.65 264.77,206.08 264.58,205.54C264.39,205 264.09,204.51 263.7,204.1C263.31,203.68 262.84,203.35 262.32,203.13C261.8,202.91 261.23,202.79 260.66,202.79L257.47,202.79L257.47,197.53L254.36,197.53L254.36,211.29L260.66,211.37ZM257.47,205.32L260.08,205.32C260.29,205.32 260.49,205.37 260.68,205.46C260.87,205.55 261.04,205.67 261.17,205.83C261.31,205.99 261.41,206.17 261.47,206.37C261.53,206.57 261.55,206.78 261.53,206.98C261.56,207.19 261.54,207.4 261.49,207.6C261.43,207.8 261.33,207.99 261.19,208.14C261.05,208.3 260.88,208.42 260.69,208.51C260.5,208.6 260.29,208.64 260.08,208.64L257.47,208.64L257.47,205.32ZM269.28,211.62L269.28,197.86L266.17,197.86L266.17,211.62L269.28,211.62ZM275.66,211.91L280.76,203.87L280.76,212.16L283.83,212.16L283.83,198.57L281.01,198.57L275.91,206.61L275.91,198.32L272.84,198.32L272.84,212.08L275.66,211.91ZM278.35,197.49C280.34,197.49 281.62,196.7 281.62,195.04L281.62,194.71L279.22,194.71C279.22,195.21 278.93,195.41 278.35,195.37C277.77,195.33 277.44,195.12 277.44,194.62L277.44,194.7L274.99,194.7C274.99,196.36 276.32,197.35 278.35,197.48L278.35,197.49ZM294.93,212.95L294.93,207.44L296.21,207.44L299.61,213.2L302.59,213.2L302.59,212.16L298.74,205.9L302.3,200.43L302.3,199.39L299.52,199.39L296.12,204.74L294.92,204.74L294.92,199.23L291.81,199.23L291.81,212.99L294.92,212.95L294.93,212.95ZM303.55,213.53C307.16,213.78 308.86,211.75 308.86,206.94L308.86,203L312.13,203.25L312.13,214.32L315.2,214.57L315.2,200.6L306,199.94L306,206.24C306.11,207.48 305.94,208.72 305.5,209.89C305.17,210.55 304.55,210.8 303.55,210.72L303.55,213.54L303.55,213.53ZM320.34,214.77L323.16,215.02L328.88,202.59L328.88,201.76L326.19,201.51L323.29,207.73L320.02,201.02L317.16,200.77L317.16,201.76L321.84,210.88L320.35,213.78L320.35,214.77L320.34,214.77ZM337.54,216.26C340.07,216.51 341.68,214.98 341.68,212.12C341.76,211.53 341.71,210.93 341.53,210.37C341.35,209.81 341.06,209.28 340.67,208.84C340.28,208.4 339.79,208.04 339.25,207.8C338.71,207.56 338.12,207.44 337.53,207.44L333.92,207.11L333.92,204.66L340.68,205.28L340.68,203L330.82,202.09L330.82,215.81L337.53,216.27L337.54,216.26ZM333.93,209.96L337,210.25C337.21,210.27 337.42,210.33 337.61,210.43C337.8,210.53 337.96,210.67 338.1,210.83C338.23,211 338.34,211.19 338.4,211.39C338.46,211.59 338.48,211.81 338.46,212.02C338.46,213.14 337.8,213.64 337.01,213.55L333.94,213.26L333.94,209.94L333.93,209.96Z" style="fill:rgb(30,36,69);fill-rule:nonzero;"/>
                    </g>
                    <g transform="matrix(3.125,0,0,2.34375,0,0)">
                        <path d="M229.53,82.15C123.84,82.52 57.9,91.77 0,104.99L0,207.36C48.91,195.47 123.26,184.52 229.53,184.52C335.8,184.52 410.15,195.46 459.06,207.36L459.06,104.99C401.04,91.77 335.22,82.53 229.53,82.15Z" style="fill:rgb(30,36,69);fill-rule:nonzero;"/>
                    </g>
                    <g transform="matrix(3.125,0,0,2.34375,0,0)">
                        <path d="M212.16,107.67L187.91,143.52L187.91,97.93L171.99,98.47L171.99,170.88L176.8,170.88C180.02,170.92 183.2,170.13 186.03,168.6C188.86,167.07 191.26,164.84 193,162.13L217.62,125.49L217.62,169.84L233.54,169.84L233.54,97.39L229.4,97.39C225.88,97.47 222.45,98.47 219.43,100.27C216.41,102.07 213.9,104.62 212.16,107.67Z" style="fill:white;fill-rule:nonzero;"/>
                    </g>
                    <g transform="matrix(3.125,0,0,2.34375,0,0)">
                        <path d="M137.06,106.77L121.1,131.64L105.97,110.54C104.28,108.32 102.03,106.59 99.45,105.54C96.87,104.48 94.05,104.14 91.3,104.53L84.96,105.28L84.96,177.6L86.04,177.6L99.97,176.19L100.88,176.19L100.88,130.02L114.64,150.12C115.31,151.1 116.23,151.88 117.3,152.39C118.37,152.9 119.56,153.12 120.74,153.02L121.86,153.02C123.1,152.91 124.3,152.52 125.37,151.88C126.44,151.24 127.35,150.37 128.04,149.33L141.47,128.61L141.47,172.5L157.39,171.59L157.39,99.14L149.64,99.55C147.15,99.69 144.72,100.41 142.56,101.67C140.4,102.92 138.57,104.67 137.21,106.76" style="fill:white;fill-rule:nonzero;"/>
                    </g>
                    <g transform="matrix(3.125,0,0,2.34375,0,0)">
                        <path d="M285.39,98.52L285.39,137.15L268.11,133.42C266.33,133.03 264.73,132.05 263.59,130.63C262.44,129.21 261.82,127.45 261.81,125.63L261.81,97.82L245.94,97.53L245.94,126.13C245.94,130.84 247.54,135.41 250.49,139.09C253.44,142.77 257.55,145.33 262.14,146.36L285.39,151.54L285.39,170.9L301.31,171.65L301.31,99.41L285.39,98.54L285.39,98.52Z" style="fill:white;fill-rule:nonzero;"/>
                    </g>
                    <g transform="matrix(3.125,0,0,2.34375,0,0)">
                        <path d="M30.87,113.69C26.51,114.58 22.58,116.94 19.75,120.37C16.91,123.8 15.34,128.1 15.29,132.55L15.29,189.16C15.29,189.16 27.52,186.51 45.01,183.4C49.15,182.65 52.64,182.07 55.7,181.58C60.26,180.84 64.4,178.51 67.4,174.99C70.39,171.47 72.03,167.01 72.03,162.39L72.03,106.94L44.55,111.08C39.83,111.83 35.1,112.74 30.87,113.57M31.2,135.12C31.2,133.05 31.93,131.04 33.24,129.44C34.55,127.84 36.38,126.74 38.41,126.33L43.8,125.34C50.72,124.14 56.23,123.35 56.23,123.35L56.23,159.41C56.25,161.4 55.56,163.34 54.27,164.86C52.98,166.38 51.19,167.39 49.22,167.7L43.62,168.61C37.65,169.56 33.26,170.48 31.19,170.81L31.19,135.13L31.2,135.12Z" style="fill:white;fill-rule:nonzero;"/>
                    </g>
                    <g transform="matrix(3.125,0,0,2.34375,0,0)">
                        <path d="M387.03,130.02L387.03,179.75L402.95,182.11L402.95,160.31C411.74,161.68 422.02,163.67 427.82,164.91L427.82,186.42L443.74,189.69L443.74,117.24C443.74,117.24 432.47,114.71 417.3,112.02L409.76,110.74C406.96,110.27 404.1,110.42 401.36,111.17C398.62,111.92 396.09,113.26 393.92,115.1C391.76,116.94 390.02,119.22 388.83,121.8C387.64,124.38 387.03,127.18 387.04,130.02L387.03,130.02ZM427.81,150.16C422.26,149.04 410.44,146.89 402.94,146.02L402.94,133.09C402.94,131.83 403.22,130.59 403.74,129.45C404.26,128.31 405.03,127.29 405.98,126.47C406.93,125.65 408.04,125.03 409.25,124.68C410.46,124.32 411.72,124.22 412.97,124.4L415.21,124.73C420.02,125.52 427.64,126.97 427.64,126.97L427.81,150.18L427.81,150.16Z" style="fill:white;fill-rule:nonzero;"/>
                    </g>
                    <g transform="matrix(3.125,0,0,2.34375,0,0)">
                        <path d="M363.27,104.2L345.16,131.93L339.23,131.43L330.94,130.81L330.94,101.13L315.07,100.01L315.07,172.46L330.94,173.58L330.94,144.57L338.03,145.07L338.86,145.07C341.21,145.3 343.45,146.19 345.32,147.64C347.19,149.09 348.6,151.05 349.39,153.28L358.43,176.32L376.87,178.43L364.44,147.93C363.15,144.34 360.92,141.16 357.97,138.73L379.77,106.44L363.27,104.2Z" style="fill:white;fill-rule:nonzero;"/>
                    </g>
                </g>
            </g>
        </g>
    </g>
</svg>
