<?xml version="1.0" encoding="UTF-8" standalone="no"?>
<!DOCTYPE svg PUBLIC "-//W3C//DTD SVG 1.1//EN" "http://www.w3.org/Graphics/SVG/1.1/DTD/svg11.dtd">
<svg width="100%" height="100%" viewBox="0 0 257 257" version="1.1" xmlns="http://www.w3.org/2000/svg" xmlns:xlink="http://www.w3.org/1999/xlink" xml:space="preserve" xmlns:serif="http://www.serif.com/" style="fill-rule:evenodd;clip-rule:evenodd;stroke-linejoin:round;stroke-miterlimit:2;">
    <g transform="matrix(1,0,0,1,-6295,-2106)">
        <g id="Zarechye" transform="matrix(0.32,0,0,0.426667,6295.89,2106.52)">
            <rect x="0" y="0" width="800" height="600" style="fill:none;"/>
            <g transform="matrix(0.977037,0,0,0.977037,-39.6735,-62.3208)">
                <g transform="matrix(3.125,0,0,2.34375,841.26,349.311)">
                    <path d="M0,18.369C-2.09,16.613 -4.776,15.724 -7.99,15.724C-10.372,15.724 -12.46,16.213 -14.23,17.171C-15.628,16.432 -17.248,16.042 -19.053,15.981C-19.01,15.321 -18.97,14.661 -18.939,13.998C-16.645,13.72 -14.207,13.133 -12.127,12.322C-8.156,10.773 -4.275,7.883 -3.111,6.476C-1.752,4.834 -1.273,2.656 -1.77,0.657C2.563,-2.23 3.845,-6.197 3.845,-8.475C3.845,-11.928 0.797,-16.79 -5.979,-16.79C-8.425,-16.79 -11.211,-16.181 -14.495,-14.928C-17.01,-13.968 -19.139,-12.856 -20.95,-11.698C-30.599,-58.407 -71.962,-93.521 -121.528,-93.521C-121.576,-93.521 -121.624,-93.519 -121.672,-93.519C-121.703,-93.519 -121.733,-93.521 -121.764,-93.521C-122.239,-93.521 -122.713,-93.506 -123.188,-93.5C-123.548,-93.494 -123.909,-93.493 -124.269,-93.484C-125.005,-93.465 -125.74,-93.434 -126.474,-93.4C-126.624,-93.393 -126.774,-93.388 -126.924,-93.38C-127.661,-93.342 -128.396,-93.294 -129.13,-93.24C-129.298,-93.228 -129.466,-93.216 -129.634,-93.203C-130.327,-93.149 -131.019,-93.087 -131.71,-93.019C-131.952,-92.995 -132.193,-92.969 -132.435,-92.944C-133.048,-92.879 -133.661,-92.81 -134.272,-92.734C-134.664,-92.686 -135.053,-92.631 -135.443,-92.579C-135.908,-92.515 -136.373,-92.454 -136.836,-92.384C-137.654,-92.261 -138.469,-92.129 -139.281,-91.987C-139.321,-91.98 -139.361,-91.974 -139.401,-91.967C-165.257,-87.43 -187.779,-73.22 -203.108,-53.207C-203.108,-53.207 -204.891,-51.005 -207.361,-47.916C-216.135,-47.525 -223.134,-40.308 -223.134,-31.438C-223.134,-30.429 -223.029,-29.447 -222.856,-28.489C-223.503,-28.61 -224.16,-28.682 -224.817,-28.682C-227.957,-28.682 -230.934,-27.29 -232.937,-24.921C-234.327,-28.763 -234.7,-29.172 -235.432,-29.904C-237.233,-31.808 -239.44,-32.759 -242.018,-32.759C-242.647,-32.759 -243.303,-32.7 -243.968,-32.583C-244.021,-32.574 -244.134,-32.558 -244.311,-32.558C-244.504,-32.558 -244.696,-32.577 -244.853,-32.6C-245.804,-33.119 -246.969,-33.498 -248.239,-33.498C-251.66,-33.498 -254.443,-30.723 -254.443,-27.312L-254.443,-25.053L-252.954,-23.356C-250.459,-20.511 -248.936,-19.827 -248.435,-19.603C-247.582,-19.22 -246.656,-18.994 -245.675,-18.926C-245.51,-17.721 -245.354,-16.487 -245.249,-15.65C-244.859,-12.567 -244.746,-11.727 -244.485,-10.909C-243.159,-6.763 -239,-5.769 -237.435,-5.395L-237.122,-5.322C-234.247,-4.658 -233.287,-4.137 -233.016,-3.954C-232.721,-3.655 -232.435,-3.387 -232.155,-3.125C-231.456,-2.472 -230.919,-1.97 -230.032,0.862L-231.811,7.446C-231.85,9.382 -231.448,11.875 -229.848,15.516C-229.667,16.062 -229.427,17.763 -229.348,20.487C-231.659,22.088 -234.605,24.914 -236.571,29.899C-239.119,36.364 -241.017,48.482 -241.328,50.815C-241.328,50.815 -231.975,52.991 -231.71,52.893C-229.684,55.061 -226.238,56.335 -221.274,56.758C-220.817,56.797 -220.325,56.815 -219.77,56.815C-218.011,56.815 -215.607,56.615 -212.854,56.212C-195.792,89.279 -161.302,111.89 -121.528,111.89C-75.442,111.89 -36.446,81.535 -23.442,39.728L-19.444,39.728C-17.473,39.728 -15.695,39.34 -14.136,38.578C-12.386,39.503 -10.331,39.976 -7.99,39.976C-4.773,39.976 -2.086,39.088 -0.002,37.334C2.32,35.38 3.601,32.541 3.601,29.341L3.601,26.36C3.601,23.163 2.321,20.325 0,18.369" style="fill:rgb(52,91,101);fill-rule:nonzero;"/>
                </g>
                <g transform="matrix(3.125,0,0,2.34375,178.72,264.458)">
                    <path d="M0,90.776L0.491,91.728C17.953,125.57 52.437,146.593 90.484,146.593C135.066,146.593 173.909,118.018 187.138,75.487L187.466,74.432L192.568,74.432C194.298,74.432 195.862,74.096 197.219,73.434L197.903,73.099L198.578,73.456C200.115,74.268 201.947,74.68 204.022,74.68C206.877,74.68 209.239,73.91 211.045,72.39C213.023,70.725 214.113,68.294 214.113,65.545L214.113,62.564C214.113,59.818 213.024,57.388 211.048,55.721C209.237,54.2 206.873,53.428 204.022,53.428C201.907,53.428 200.048,53.854 198.496,54.694L197.79,55.076L197.081,54.701C195.907,54.08 194.504,53.738 192.909,53.684L191.362,53.632L191.463,52.088C191.506,51.437 191.545,50.787 191.575,50.133L191.633,48.866L192.893,48.713C195.123,48.442 197.413,47.88 199.341,47.129C203.206,45.621 206.813,42.851 207.746,41.724C208.786,40.467 209.175,38.785 208.787,37.222L208.533,36.198L209.411,35.613C213.062,33.18 214.357,29.845 214.357,27.729C214.357,24.899 211.775,20.914 206.034,20.914C203.774,20.914 201.163,21.491 198.052,22.677C195.839,23.522 193.76,24.562 191.87,25.77L190.034,26.943L189.594,24.809C179.943,-21.909 138.262,-55.817 90.484,-55.817L90.322,-55.815L90.235,-55.817C89.945,-55.817 89.643,-55.811 89.34,-55.805L87.783,-55.78C87.056,-55.762 86.332,-55.731 85.608,-55.698L85.167,-55.678C84.44,-55.641 83.717,-55.594 82.993,-55.54L82.497,-55.503C81.813,-55.45 81.131,-55.39 80.45,-55.322L79.735,-55.248C79.133,-55.184 78.529,-55.117 77.926,-55.042C77.617,-55.004 77.312,-54.962 77.005,-54.92L76.5,-54.851C76.133,-54.802 75.766,-54.752 75.4,-54.697C74.592,-54.576 73.79,-54.446 72.99,-54.306L72.611,-55.764L72.871,-54.286C47.898,-49.904 25.604,-36.339 10.096,-16.091C10.069,-16.058 8.289,-13.859 5.823,-10.775L5.398,-10.244L4.718,-10.214C-3.323,-9.855 -9.622,-3.275 -9.622,4.766C-9.622,5.624 -9.539,6.501 -9.368,7.449L-8.981,9.59L-11.12,9.19C-11.712,9.078 -12.279,9.022 -12.806,9.022C-15.501,9.022 -18.043,10.199 -19.779,12.252L-21.453,14.232L-22.335,11.794C-23.631,8.21 -23.933,7.908 -24.48,7.36C-26.412,5.319 -28.775,4.586 -31.696,5.098C-31.868,5.128 -32.586,5.156 -33.057,5.088L-33.323,5.049L-33.559,4.921C-34.156,4.594 -35.104,4.206 -36.226,4.206C-38.82,4.206 -40.931,6.308 -40.931,8.892L-40.931,10.586L-39.814,11.859C-38.3,13.585 -36.953,14.72 -35.809,15.232C-35.12,15.541 -34.363,15.726 -33.559,15.781L-32.342,15.866L-32.176,17.074C-32.013,18.266 -31.859,19.485 -31.753,20.326C-31.379,23.278 -31.264,24.148 -31.043,24.838C-29.975,28.179 -26.541,28.999 -25.074,29.35L-24.768,29.422C-22.521,29.94 -20.927,30.489 -20.161,31.009L-19.937,31.194C-19.657,31.478 -19.385,31.734 -19.118,31.983C-18.169,32.87 -17.526,33.624 -16.588,36.617L-16.457,37.035L-18.3,43.858C-18.309,45.936 -17.722,48.25 -16.462,51.117L-16.412,51.247C-16.128,52.1 -15.908,54.17 -15.836,56.648L-15.813,57.461L-16.481,57.924C-19.438,59.972 -21.687,62.91 -23.163,66.653C-25.289,72.047 -27.001,81.734 -27.633,85.869C-24.266,86.644 -20.893,87.391 -19.884,87.568L-19.281,87.345L-18.602,88.073C-16.858,89.938 -13.673,91.081 -9.134,91.467C-8.716,91.503 -8.265,91.519 -7.757,91.519C-6.024,91.519 -3.646,91.31 -1.059,90.931L0,90.776ZM90.484,149.593C51.663,149.593 16.447,128.339 -1.682,94.047C-4.867,94.47 -7.527,94.618 -9.39,94.456C-14.474,94.023 -18.086,92.731 -20.407,90.512C-21.564,90.331 -24.006,89.795 -29.655,88.48L-30.982,88.172L-30.802,86.821C-30.784,86.685 -28.864,72.937 -25.954,65.553C-24.368,61.532 -21.985,58.303 -18.863,55.945C-18.96,53.703 -19.159,52.557 -19.244,52.243C-20.697,48.917 -21.35,46.174 -21.297,43.62L-21.246,43.258L-19.583,37.102C-20.265,35.017 -20.63,34.676 -21.167,34.174C-21.417,33.94 -21.673,33.699 -21.936,33.439C-22.201,33.297 -23.103,32.884 -25.447,32.343L-25.764,32.269C-27.39,31.881 -32.317,30.704 -33.901,25.752C-34.203,24.806 -34.321,23.933 -34.724,20.742C-34.799,20.149 -34.894,19.401 -34.997,18.613C-35.708,18.475 -36.39,18.259 -37.036,17.969C-37.609,17.713 -39.356,16.93 -42.069,13.838L-43.931,11.715L-43.931,8.892C-43.931,4.654 -40.475,1.206 -36.227,1.206C-34.935,1.206 -33.617,1.529 -32.396,2.143C-32.364,2.145 -32.331,2.146 -32.298,2.146C-31.463,2.011 -30.72,1.944 -30.005,1.944C-26.999,1.945 -24.417,3.064 -22.33,5.269C-21.591,6.007 -21.144,6.588 -20.325,8.627C-18.145,6.905 -15.454,5.945 -12.574,6.025C-12.606,5.6 -12.622,5.182 -12.622,4.766C-12.622,-4.652 -5.421,-12.4 3.895,-13.167C6.15,-15.985 7.739,-17.947 7.739,-17.947C23.681,-38.762 46.637,-52.728 72.352,-57.241L72.474,-57.261C73.297,-57.405 74.125,-57.539 74.955,-57.663C75.333,-57.721 75.715,-57.772 76.096,-57.824L76.601,-57.893C76.919,-57.936 77.238,-57.979 77.557,-58.019C78.175,-58.096 78.797,-58.165 79.419,-58.232L80.154,-58.307C80.856,-58.377 81.559,-58.439 82.262,-58.495L82.774,-58.532C83.518,-58.587 84.264,-58.636 85.011,-58.674L85.465,-58.694C86.214,-58.729 86.96,-58.761 87.707,-58.779C87.939,-58.785 88.174,-58.788 88.408,-58.79L89.281,-58.804C89.604,-58.81 89.926,-58.817 90.249,-58.817L90.484,-58.817C138.976,-58.817 181.368,-24.892 192.086,22.15C193.632,21.289 195.272,20.527 196.982,19.875C200.441,18.555 203.402,17.914 206.034,17.914C213.845,17.914 217.357,23.653 217.357,27.729C217.357,30.413 215.905,34.488 211.884,37.534C212.126,39.704 211.475,41.924 210.057,43.636C208.759,45.205 204.692,48.261 200.431,49.923C199.15,50.422 197.73,50.846 196.271,51.172C196.791,51.317 197.291,51.495 197.77,51.705C199.604,50.857 201.704,50.428 204.022,50.428C207.599,50.428 210.611,51.436 212.978,53.424L212.979,53.425C215.646,55.672 217.113,58.918 217.113,62.564L217.113,65.545C217.113,69.194 215.645,72.441 212.977,74.685C210.615,76.672 207.603,77.68 204.022,77.68C201.74,77.68 199.668,77.263 197.85,76.438C196.253,77.098 194.48,77.432 192.568,77.432L189.668,77.432C183.094,97.778 170.044,116.019 152.831,128.891C134.722,142.435 113.162,149.593 90.484,149.593" style="fill:rgb(216,235,234);fill-rule:nonzero;"/>
                </g>
                <g transform="matrix(3.125,0,0,2.34375,461.041,524.284)">
                    <path d="M0,-129.728C-35.766,-129.728 -64.864,-100.63 -64.864,-64.864C-64.864,-29.098 -35.766,0 0,0C35.767,0 64.864,-29.098 64.864,-64.864C64.864,-100.63 35.767,-129.728 0,-129.728M0,18C-45.691,18 -82.864,-19.173 -82.864,-64.864C-82.864,-110.556 -45.691,-147.728 0,-147.728C45.691,-147.728 82.864,-110.556 82.864,-64.864C82.864,-19.173 45.691,18 0,18" style="fill:rgb(32,22,0);fill-rule:nonzero;"/>
                </g>
                <g transform="matrix(0,-2.34375,-3.125,0,460.625,265.587)">
                    <path d="M-44.907,-44.907C-69.709,-44.907 -89.814,-24.802 -89.814,-0.001C-89.814,24.801 -69.709,44.907 -44.907,44.907C-20.106,44.907 0,24.801 0,-0.001C0,-24.802 -20.106,-44.907 -44.907,-44.907" style="fill:rgb(32,22,0);fill-rule:nonzero;"/>
                </g>
                <g transform="matrix(3.125,0,0,2.34375,461.963,564.057)">
                    <path d="M0,-166.547C-44.102,-166.547 -80.286,-132.08 -83.08,-88.672L-60.466,-101.921C-52.489,-127.736 -28.401,-146.547 0,-146.547C34.89,-146.547 63.274,-118.162 63.274,-83.274C63.274,-48.385 34.89,-20 0,-20C-25.795,-20 -48.02,-35.525 -57.861,-57.713L-75.462,-48.113C-62.181,-19.724 -33.357,0 0,0C45.918,0 83.274,-37.357 83.274,-83.274C83.274,-129.191 45.918,-166.547 0,-166.547" style="fill:rgb(32,22,0);fill-rule:nonzero;"/>
                </g>
                <g transform="matrix(3.125,0,0,2.34375,735.016,144.185)">
                    <path d="M0,69.275C-1.37,69.275 -2.651,68.414 -3.12,67.045C-15.506,30.889 -49.521,6.596 -87.766,6.596C-116.109,6.596 -143.069,20.249 -159.883,43.116C-160.962,44.583 -163.027,44.899 -164.494,43.819C-165.962,42.74 -166.277,40.676 -165.198,39.208C-147.146,14.657 -118.2,0 -87.766,0C-46.703,0 -10.178,26.084 3.121,64.907C3.711,66.63 2.793,68.506 1.07,69.097C0.716,69.218 0.354,69.275 0,69.275" style="fill:white;fill-rule:nonzero;"/>
                </g>
                <g transform="matrix(3.125,0,0,2.34375,460.748,441.409)">
                    <path d="M0,65.281C-33.808,65.281 -64.499,48.02 -82.099,19.109C-83.046,17.553 -82.553,15.524 -80.997,14.577C-79.441,13.628 -77.412,14.123 -76.464,15.679C-60.071,42.607 -31.486,58.684 0,58.684C36.77,58.684 69.371,36.635 83.057,2.512C83.734,0.821 85.658,0 87.346,0.679C89.036,1.357 89.857,3.277 89.18,4.968C74.485,41.607 39.479,65.281 0,65.281" style="fill:white;fill-rule:nonzero;"/>
                </g>
                <g transform="matrix(3.125,0,0,2.34375,0,0)">
                    <g opacity="0.5">
                        <g transform="matrix(1,0,0,1,89.0225,118.882)">
                            <path d="M0,-16.663C0.375,-17.081 0.635,-17.106 1.051,-16.731L9.222,-9.353C9.626,-8.989 9.626,-8.729 9.251,-8.312L7.97,-6.893C7.594,-6.477 7.347,-6.465 6.943,-6.828L5.083,-8.509C4.146,-9.354 3.19,-10.572 2.19,-12.159L2.061,-12.017C2.224,-11.751 2.458,-11.305 2.763,-10.674C3.068,-10.044 3.292,-9.559 3.421,-9.206L4.234,-7.15C4.366,-6.747 4.341,-6.509 4.048,-6.184L3.261,-5.312C2.943,-4.962 2.748,-4.902 2.319,-5.028L0.157,-5.589C-0.572,-5.75 -1.523,-6.136 -2.72,-6.72L-2.837,-6.591C-1.102,-5.661 0.208,-4.808 1.066,-4.035L2.915,-2.366C3.317,-2.001 3.318,-1.742 2.941,-1.326L1.745,0.003C1.368,0.418 1.109,0.443 0.707,0.08L-7.464,-7.297C-7.882,-7.673 -7.882,-7.934 -7.507,-8.349L-6.403,-9.573C-5.992,-10.028 -5.807,-10.076 -5.306,-9.976L0.848,-8.317L-1.416,-14.258C-1.614,-14.744 -1.563,-14.934 -1.176,-15.363L0,-16.663Z" style="fill:rgb(216,234,234);fill-rule:nonzero;"/>
                        </g>
                        <g transform="matrix(1,0,0,1,102.146,102.527)">
                            <path d="M0,-5.067C-0.651,-5.959 -1.559,-6.012 -2.535,-5.297C-3.54,-4.565 -3.752,-3.693 -3.1,-2.801L-1.051,0.002C-0.4,0.893 0.493,0.955 1.499,0.222C2.475,-0.491 2.7,-1.372 2.047,-2.264L0,-5.067ZM-5.809,-0.626C-7.619,-3.102 -7.119,-5.748 -4.346,-7.774C-1.586,-9.792 1.085,-9.464 2.896,-6.986L4.757,-4.439C6.567,-1.963 6.068,0.683 3.309,2.7C0.533,4.725 -2.137,4.398 -3.947,1.922L-5.809,-0.626Z" style="fill:rgb(216,234,234);fill-rule:nonzero;"/>
                        </g>
                        <g transform="matrix(1,0,0,1,108.478,92.0184)">
                            <path d="M0,1.493C-1.328,-1.271 -0.357,-3.78 2.739,-5.268C5.124,-6.414 7.097,-6.233 8.679,-4.72C9.074,-4.345 9.053,-4.025 8.663,-3.661L7.261,-2.249C6.84,-1.873 6.613,-1.861 6.203,-2.266C5.609,-2.818 4.889,-2.899 4.067,-2.505C2.851,-1.92 2.582,-1.147 3.119,-0.027L4.502,2.847C5.04,3.97 5.812,4.24 7.028,3.656C7.865,3.254 8.25,2.64 8.176,1.839C8.124,1.243 8.251,1.065 8.824,1.003L10.803,0.791C11.33,0.713 11.593,0.898 11.64,1.439C11.833,3.622 10.741,5.274 8.357,6.42C5.261,7.907 2.693,7.099 1.366,4.334L0,1.493Z" style="fill:rgb(216,234,234);fill-rule:nonzero;"/>
                        </g>
                        <g transform="matrix(1,0,0,1,133.583,83.9123)">
                            <path d="M0,7.583C0.378,7.969 0.331,8.383 -0.21,8.531L-2.034,9.038C-2.962,9.297 -3.3,9.263 -3.735,8.746L-6.043,6.131C-6.499,5.604 -6.817,5.437 -7.425,5.606L-7.729,5.691L-6.655,9.559C-6.51,10.082 -6.628,10.314 -7.168,10.463L-9.076,10.994C-9.617,11.144 -9.854,11.009 -10,10.486L-12.935,-0.084C-13.081,-0.608 -12.946,-0.845 -12.406,-0.996L-10.498,-1.526C-9.957,-1.675 -9.736,-1.536 -9.591,-1.013L-8.55,2.736L-8.313,2.669L-8.179,2.633L-6.812,-1.876C-6.717,-2.192 -6.596,-2.409 -6.467,-2.535C-6.335,-2.646 -6.057,-2.759 -5.633,-2.876L-3.692,-3.415C-3.168,-3.561 -2.937,-3.317 -3.081,-2.786L-4.794,2.965C-4.325,3.145 -3.854,3.47 -3.402,3.979L0,7.583Z" style="fill:rgb(216,234,234);fill-rule:nonzero;"/>
                        </g>
                        <g transform="matrix(1,0,0,1,142.032,87.2225)">
                            <path d="M0,-3.816C-0.104,-4.917 -0.856,-5.425 -2.061,-5.313C-3.3,-5.195 -3.925,-4.556 -3.822,-3.456L-3.496,-0.001C-3.392,1.099 -2.658,1.61 -1.418,1.494C-0.214,1.381 0.43,0.738 0.326,-0.362L0,-3.816ZM-7.262,-2.973C-7.551,-6.028 -5.769,-8.044 -2.349,-8.367C1.055,-8.687 3.182,-7.039 3.47,-3.986L3.766,-0.844C4.054,2.21 2.272,4.227 -1.13,4.548C-4.551,4.871 -6.678,3.222 -6.967,0.168L-7.262,-2.973Z" style="fill:rgb(216,234,234);fill-rule:nonzero;"/>
                        </g>
                        <g transform="matrix(1,0,0,1,155.114,88.4393)">
                            <path d="M0,-6.527L-1.694,-6.683L-1.869,-4.76L-0.176,-4.606C0.541,-4.54 0.919,-4.823 0.976,-5.453C1.035,-6.099 0.717,-6.463 0,-6.527M-0.101,-1.764L-2.126,-1.949L-2.313,0.095L-0.285,0.28C0.465,0.347 0.863,0.033 0.926,-0.649C0.987,-1.331 0.651,-1.696 -0.101,-1.764M0.972,-9.275C3.399,-9.052 4.723,-7.716 4.529,-5.604C4.427,-4.469 3.93,-3.651 3.039,-3.152L3.031,-3.08C4.156,-2.468 4.657,-1.401 4.522,0.083C4.421,1.184 3.944,1.987 3.102,2.526C2.243,3.063 1.185,3.265 -0.09,3.151L-5.277,2.678C-5.837,2.627 -6.011,2.417 -5.962,1.875L-4.966,-9.058C-4.915,-9.618 -4.703,-9.792 -4.145,-9.74L0.972,-9.275Z" style="fill:rgb(216,234,234);fill-rule:nonzero;"/>
                        </g>
                        <g transform="matrix(1,0,0,1,163.73,90.624)">
                            <path d="M0,-5.72C0.82,-8.678 3.205,-9.928 6.52,-9.01C9.071,-8.302 10.438,-6.866 10.635,-4.683C10.686,-4.14 10.457,-3.913 9.925,-3.897L7.938,-3.756C7.373,-3.748 7.192,-3.889 7.151,-4.464C7.065,-5.272 6.577,-5.807 5.699,-6.05C4.397,-6.411 3.685,-6.01 3.352,-4.809L2.498,-1.731C2.166,-0.531 2.568,0.181 3.87,0.542C4.767,0.79 5.461,0.584 5.933,-0.07C6.286,-0.554 6.499,-0.604 6.973,-0.273L8.603,0.871C9.053,1.16 9.128,1.471 8.807,1.91C7.515,3.682 5.602,4.208 3.05,3.5C-0.263,2.582 -1.663,0.282 -0.844,-2.677L0,-5.72Z" style="fill:rgb(216,234,234);fill-rule:nonzero;"/>
                        </g>
                        <g transform="matrix(1,0,0,1,183.941,85.8748)">
                            <path d="M0,14.059C0.033,14.6 -0.277,14.879 -0.783,14.635L-2.489,13.813C-3.357,13.395 -3.589,13.146 -3.576,12.473L-3.588,8.982C-3.584,8.286 -3.714,7.949 -4.283,7.676L-4.567,7.538L-6.31,11.156C-6.545,11.646 -6.786,11.745 -7.292,11.501L-9.078,10.642C-9.584,10.398 -9.673,10.142 -9.438,9.65L-4.677,-0.241C-4.44,-0.73 -4.183,-0.82 -3.678,-0.577L-1.893,0.282C-1.387,0.527 -1.312,0.777 -1.548,1.266L-3.236,4.774L-3.017,4.879L-2.889,4.941L1.112,2.45C1.392,2.273 1.626,2.192 1.807,2.181C1.979,2.186 2.263,2.284 2.658,2.474L4.476,3.349C4.964,3.584 4.978,3.921 4.521,4.226L-0.562,7.423C-0.327,7.868 -0.186,8.422 -0.183,9.105L0,14.059Z" style="fill:rgb(216,234,234);fill-rule:nonzero;"/>
                        </g>
                        <g transform="matrix(1,0,0,1,194.391,102.998)">
                            <path d="M0,-3.041C0.243,-3.731 0.68,-4.563 0.944,-4.957L1.138,-5.249L0.995,-5.354C0.513,-4.663 -0.062,-4.085 -0.712,-3.583L-2.457,-2.297L-0.688,-1.003L0,-3.041ZM0.894,5.149C0.757,5.635 0.469,5.73 0.06,5.431L-1.469,4.312C-2.191,3.784 -2.313,3.477 -2.096,2.94L-1.676,1.685L-4.731,-0.551L-5.803,0.231C-6.291,0.569 -6.592,0.565 -7.271,0.069L-8.756,-1.018C-9.153,-1.308 -9.135,-1.599 -8.714,-1.877L1.101,-8.468C1.519,-8.771 1.761,-8.747 2.199,-8.427L3.813,-7.245C4.224,-6.945 4.338,-6.687 4.207,-6.24L0.894,5.149Z" style="fill:rgb(216,234,234);fill-rule:nonzero;"/>
                        </g>
                        <g transform="matrix(1,0,0,1,206.485,112.988)">
                            <path d="M0,-5.678C-0.518,-6.227 -1.112,-6.221 -1.623,-5.742C-2.173,-5.225 -2.176,-4.693 -1.648,-4.131L-0.363,-2.763L1.282,-4.314L0,-5.678ZM1.957,-8.074L5.391,-4.422C5.763,-4.027 5.754,-3.754 5.358,-3.382L-2.634,4.134C-3.03,4.505 -3.302,4.498 -3.674,4.1L-5.044,2.646C-5.415,2.251 -5.407,1.977 -5.012,1.606L-2.534,-0.723L-2.858,-1.069C-3.398,-1.643 -3.744,-1.702 -4.434,-1.44L-6.968,-0.475C-7.595,-0.248 -7.9,-0.393 -8.562,-1.095L-9.868,-2.486C-10.265,-2.908 -10.158,-3.202 -9.556,-3.406L-6.388,-4.412C-6.063,-4.501 -5.737,-4.567 -5.464,-4.607C-5.771,-5.955 -5.311,-7.207 -4.097,-8.347C-2.144,-10.183 0.121,-10.027 1.957,-8.074" style="fill:rgb(216,234,234);fill-rule:nonzero;"/>
                        </g>
                    </g>
                </g>
                <g transform="matrix(3.125,0,0,2.34375,0,0)">
                    <g opacity="0.5">
                        <g transform="matrix(1,0,0,1,113.287,218.445)">
                            <path d="M0,-0.538C0.65,-1.43 0.426,-2.31 -0.551,-3.024C-1.556,-3.758 -2.449,-3.694 -3.101,-2.803L-5.147,0.001C-5.797,0.893 -5.587,1.764 -4.581,2.496C-3.605,3.209 -2.698,3.155 -2.047,2.265L0,-0.538ZM-5.997,-4.722C-4.187,-7.197 -1.517,-7.526 1.258,-5.501C4.017,-3.487 4.518,-0.842 2.709,1.636L0.848,4.183C-0.96,6.659 -3.631,6.988 -6.392,4.973C-9.165,2.947 -9.666,0.304 -7.855,-2.173L-5.997,-4.722Z" style="fill:rgb(216,234,234);fill-rule:nonzero;"/>
                        </g>
                        <g transform="matrix(1,0,0,1,122.491,223.041)">
                            <path d="M0,3.089L-1.616,2.368L-2.566,4.496L-0.95,5.22C-0.167,5.568 0.375,5.388 0.697,4.668C1.011,3.963 0.784,3.44 0,3.089M5.925,-2.23C6.422,-2.009 6.52,-1.754 6.291,-1.241L5.733,0.008C5.505,0.519 5.257,0.601 4.761,0.38L0.184,-1.665L-0.452,-0.241L1.837,0.781C4.093,1.789 4.944,3.838 3.922,6.127C3.422,7.248 2.686,7.992 1.721,8.348C0.739,8.698 -0.307,8.634 -1.443,8.127L-6.228,5.99C-6.724,5.769 -6.821,5.514 -6.615,5.05L-2.126,-4.999C-1.898,-5.511 -1.644,-5.609 -1.131,-5.381L5.925,-2.23Z" style="fill:rgb(216,234,234);fill-rule:nonzero;"/>
                        </g>
                        <g transform="matrix(1,0,0,1,141.256,234.714)">
                            <path d="M0,-10.607C0.549,-10.49 0.697,-10.262 0.583,-9.731L-1.708,1.002C-1.822,1.533 -2.051,1.682 -2.599,1.564L-4.537,1.152C-5.085,1.036 -5.216,0.809 -5.103,0.278L-3.298,-8.174L-5.356,-8.614L-5.7,-7.004C-6.216,-4.587 -6.936,-2.894 -7.867,-1.889C-8.819,-0.874 -9.691,-0.397 -10.923,-0.087C-11.457,0.067 -11.66,-0.083 -11.827,-0.639L-12.431,-2.597C-12.586,-3.131 -12.432,-3.35 -11.876,-3.517C-11.203,-3.734 -10.818,-3.938 -10.297,-4.525C-9.778,-5.113 -9.379,-6.141 -9.046,-7.699L-8.212,-11.608C-8.098,-12.14 -7.87,-12.289 -7.321,-12.171L0,-10.607Z" style="fill:rgb(216,234,234);fill-rule:nonzero;"/>
                        </g>
                        <g transform="matrix(1,0,0,1,150.213,231.289)">
                            <path d="M0,-1.188C-0.214,-1.886 -0.359,-2.814 -0.379,-3.288L-0.397,-3.636L-0.573,-3.636C-0.551,-2.795 -0.669,-1.99 -0.894,-1.201L-1.53,0.871L0.66,0.861L0,-1.188ZM5.588,4.865C5.766,5.336 5.592,5.582 5.083,5.584L3.19,5.594C2.297,5.599 2.016,5.427 1.873,4.865L1.463,3.608L-2.322,3.625L-2.718,4.891C-2.907,5.453 -3.151,5.63 -3.992,5.633L-5.833,5.643C-6.323,5.646 -6.482,5.401 -6.31,4.927L-2.339,-6.204C-2.184,-6.694 -1.975,-6.818 -1.432,-6.821L0.565,-6.832C1.074,-6.834 1.32,-6.696 1.48,-6.257L5.588,4.865Z" style="fill:rgb(216,234,234);fill-rule:nonzero;"/>
                        </g>
                        <g transform="matrix(1,0,0,1,157.424,229.792)">
                            <path d="M0,-1.013C-0.635,-4.014 0.904,-6.221 4.267,-6.935C6.856,-7.483 8.731,-6.841 9.912,-4.993C10.206,-4.534 10.109,-4.227 9.646,-3.968L7.947,-2.929C7.448,-2.661 7.224,-2.703 6.922,-3.195C6.475,-3.871 5.794,-4.12 4.902,-3.933C3.581,-3.654 3.135,-2.966 3.394,-1.747L4.055,1.374C4.312,2.592 4.998,3.039 6.318,2.758C7.229,2.567 7.749,2.061 7.867,1.265C7.956,0.673 8.124,0.531 8.695,0.606L10.67,0.869C11.199,0.918 11.412,1.16 11.329,1.698C10.999,3.863 9.545,5.214 6.955,5.762C3.592,6.47 1.29,5.077 0.654,2.075L0,-1.013Z" style="fill:rgb(216,234,234);fill-rule:nonzero;"/>
                        </g>
                        <g transform="matrix(1,0,0,1,176.602,231.43)">
                            <path d="M0,-13.536C0.514,-13.761 0.769,-13.66 0.984,-13.16L1.611,-11.713C1.834,-11.198 1.734,-10.944 1.219,-10.721L-1.162,-9.69L2.272,-1.76C2.487,-1.262 2.388,-1.007 1.872,-0.785L0.055,0.003C-0.46,0.225 -0.697,0.119 -0.914,-0.381L-4.348,-8.311L-6.744,-7.273C-7.258,-7.051 -7.496,-7.158 -7.718,-7.673L-8.346,-9.121C-8.562,-9.618 -8.479,-9.865 -7.963,-10.09L0,-13.536Z" style="fill:rgb(216,234,234);fill-rule:nonzero;"/>
                        </g>
                        <g transform="matrix(1,0,0,1,185.64,221.284)">
                            <path d="M0,-1.026L1.473,1.088L2.896,0.097C3.571,-0.373 3.674,-1.086 3.233,-1.719C2.793,-2.35 2.1,-2.487 1.424,-2.017L0,-1.026ZM0.994,5.159C0.536,5.479 0.267,5.43 -0.044,4.986L-6.314,-4.019C-6.625,-4.465 -6.576,-4.733 -6.116,-5.053L-4.492,-6.186C-4.03,-6.505 -3.778,-6.449 -3.466,-6.003L-1.754,-3.543L0.016,-4.775C2.273,-6.347 4.609,-6.031 6.173,-3.788C7.744,-1.527 7.224,0.822 4.965,2.395L0.994,5.159Z" style="fill:rgb(216,234,234);fill-rule:nonzero;"/>
                        </g>
                    </g>
                </g>
                <g transform="matrix(3.125,0,0,2.34375,157.812,451.613)">
                    <path d="M0,-35.901C-1.222,-38.25 -3.396,-39.568 -5.005,-39.732C-6.218,-39.857 -6.744,-38.332 -6.93,-37.575C-7.173,-36.305 -7.478,-34.686 -5.633,-30.504C-4.416,-27.743 -4.633,-20.011 -4.633,-19.707C-4.633,-19.402 -9.611,-18.333 -12.286,-11.548C-14.613,-5.645 -15.739,2.056 -15.993,3.956C-15.651,3.826 -15.324,3.703 -15.015,3.589C-13.775,0.975 -10.305,-6.255 -8.306,-9.509C-5.84,-13.523 -3.543,-17.127 -2.932,-17.588C-2.32,-18.048 -1.78,-18.295 -1.264,-19.223C-0.748,-20.151 -0.693,-20.234 -0.483,-20.747C-0.273,-21.258 0.819,-24.916 1.071,-27.536C1.151,-28.378 1.239,-29.667 1.332,-31.059C1.171,-32.502 0.974,-34.027 0,-35.901" style="fill:white;"/>
                </g>
                <g transform="matrix(3.125,0,0,2.34375,167.511,442.106)">
                    <path d="M0,-34.061C-0.118,-34.13 -0.273,-34.054 -0.299,-33.92C-0.457,-33.094 -0.643,-31.823 -0.839,-29.854C-1.134,-26.899 -1.013,-22.716 -0.877,-21.901C-0.875,-21.885 -0.875,-21.87 -0.873,-21.853C-0.665,-20.816 -0.509,-19.652 -0.443,-18.924C-0.369,-18.095 -0.338,-17.088 -0.338,-17.088C-0.338,-17.088 -3.012,-15.429 -3.665,-13.474C-4.318,-11.519 -5.166,-8.643 -5.166,-5.406C-5.166,-3.107 -5.067,-0.977 -5.01,0.069C-4.543,-0.103 -4.118,-0.254 -3.751,-0.381C-3.266,-2.254 -1.946,-7.17 -0.885,-9.493C0.44,-12.395 1.423,-15.245 1.859,-15.7C2.296,-16.154 3.057,-16.735 3.229,-18.318C3.395,-19.838 4.255,-31.584 0,-34.061" style="fill:white;"/>
                </g>
                <g transform="matrix(3.125,0,0,2.34375,231.143,332.435)">
                    <path d="M0,-5.947C-1.762,-5.668 -2.005,-5.316 -3.362,-4.802C-4.719,-4.288 -8.267,-2.961 -9.343,-2.66C-10.419,-2.36 -13.604,-3.186 -14.931,-3.639C-15.562,-3.855 -20.008,-5.703 -21.497,-5.793C-22.94,-5.88 -26.234,-5.495 -26.251,-5.498C-27.096,-5.381 -27.805,-5.593 -27.978,-6.079C-28.103,-6.432 -27.913,-6.85 -27.524,-7.223C-27.487,-7.261 -27.449,-7.3 -27.399,-7.343C-27.394,-7.347 -27.388,-7.352 -27.383,-7.356C-26.729,-7.91 -25.13,-8.809 -24.838,-9.298C-24.491,-9.878 -24.704,-10.229 -24.881,-10.668C-25.059,-11.107 -26.802,-14.994 -28.611,-15.379C-30.42,-15.765 -32.28,-15.038 -33.337,-13.565C-34.394,-12.091 -34.48,-11.068 -34.168,-9.979C-33.889,-9.003 -31.86,-6.494 -31.442,-5.984C-32.938,-6.254 -34.962,-6.459 -36.371,-6.692C-38.954,-7.12 -40.533,-7.494 -40.533,-7.494C-40.533,-7.494 -44.094,-18.117 -44.47,-18.493C-44.846,-18.869 -45.539,-19.852 -47.689,-19.473C-49.84,-19.094 -52.023,-19.751 -52.221,-19.949C-52.419,-20.147 -53.206,-20.527 -53.206,-20.111C-53.206,-20.111 -51.573,-18.25 -50.743,-17.877C-49.912,-17.505 -48.775,-17.842 -48.368,-17.877C-47.96,-17.913 -46.188,-18.221 -45.501,-17.533C-44.813,-16.846 -43.827,-6.458 -43.533,-5.536C-43.238,-4.615 -41.832,-4.276 -40.803,-4.03C-39.774,-3.784 -35.378,-2.878 -33.58,-1.04C-31.78,0.799 -30.424,1.142 -28.44,8.433C-28.349,8.769 -28.549,9.216 -28.851,9.747C-28.187,9.848 -27.458,10.041 -26.624,10.343C-25.355,10.801 -24.145,12.064 -23.211,13.28L-23.216,13.27C-23.216,13.27 -23.207,13.284 -23.205,13.288C-22.956,13.613 -22.731,13.927 -22.527,14.228C-22.334,14.435 -22.139,14.58 -21.988,14.547C-21.605,14.465 -21.518,12.952 -21.497,12.787C-21.104,9.757 -20.586,9.284 -20.516,7.2C-20.446,5.116 -20.652,4.79 -20.286,4.177C-19.92,3.565 -18.089,2.066 -19.013,0.079C-19.316,-0.574 -19.635,-1.328 -19.635,-1.328C-19.635,-1.328 -13.706,-0.329 -12.417,-0.066C-11.128,0.197 -8.996,-0.028 -8.055,-0.56C-7.114,-1.093 -2.552,-4.053 -2.012,-4.21C-1.471,-4.366 0.857,-4.825 1.911,-4.644C2.964,-4.462 4.082,-4.873 4.082,-4.873C4.082,-4.873 1.761,-6.226 0,-5.947" style="fill:white;"/>
                </g>
                <g transform="matrix(3.125,0,0,2.34375,221.001,298.2)">
                    <path d="M0,-4.969C-1.569,-2.491 -3.351,-0.974 -5.9,0C-3.295,-0.457 -0.971,-1.886 0.636,-4.055C0.421,-4.38 0.211,-4.681 0,-4.969" style="fill:rgb(242,155,83);fill-rule:nonzero;"/>
                </g>
                <g transform="matrix(-1.30498,-2.12961,-2.83948,0.978733,176.146,275.33)">
                    <path d="M-5.727,-9.17C-4.763,-8.48 -3.881,-7.575 -3.037,-6.414C-5.765,-3.049 -6.112,-0.065 -5.727,3.601C-6.442,3.354 -7.13,3.028 -7.778,2.631C-9.012,-1.363 -8.246,-5.759 -5.727,-9.17" style="fill:rgb(242,155,83);fill-rule:nonzero;"/>
                </g>
                <g transform="matrix(3.125,0,0,2.34375,194.303,286.792)">
                    <path d="M0,-9.526C0.136,-8.362 0.493,-7.163 1.087,-5.869L1.468,-5.691C5.624,-4.874 7.741,-2.906 9.724,0C10.128,-0.67 10.456,-1.383 10.7,-2.125C9.154,-5.386 5.548,-9.003 0,-9.526" style="fill:rgb(242,155,83);fill-rule:nonzero;"/>
                </g>
                <g transform="matrix(3.125,0,0,2.34375,219.099,293.127)">
                    <path d="M0,-3.541L0.019,-3.57C-0.709,-4.458 -1.454,-5.168 -2.253,-5.731C-3.981,-2.171 -7.471,0.504 -11.481,1.364C-10.618,1.763 -9.711,2.041 -8.776,2.19C-4.967,1.425 -2.309,0.239 0,-3.541" style="fill:rgb(242,155,83);fill-rule:nonzero;"/>
                </g>
                <g transform="matrix(3.125,0,0,2.34375,227.08,267.105)">
                    <path d="M0,-0.566C-2.979,-3.712 -5.455,-5.392 -10.036,-5.26L-10.123,-5.258C-10.436,-4.096 -10.572,-3.069 -10.552,-2.05C-6.04,-1.911 -1.643,0.818 0.573,4.826C0.676,4.233 0.728,3.632 0.728,3.031C0.728,1.851 0.531,0.691 0.142,-0.418L0,-0.566Z" style="fill:rgb(242,155,83);fill-rule:nonzero;"/>
                </g>
                <g transform="matrix(-1.07508,2.20069,2.93425,0.806309,217.364,246.239)">
                    <path d="M4.885,-5.392C4.848,-5.294 4.811,-5.195 4.776,-5.099C3.488,-1.584 3.801,1.04 4.885,3.823C3.048,1.137 2.56,-2.288 3.621,-5.403C4.073,-5.41 4.49,-5.406 4.885,-5.392" style="fill:rgb(242,155,83);fill-rule:nonzero;"/>
                </g>
                <g transform="matrix(3.125,0,0,2.34375,187.45,249.906)">
                    <path d="M0,14.152C1.04,13.236 1.878,12.104 2.627,10.608L2.606,10.565C0.635,6.476 1.001,3.467 2.276,0C1.132,0.08 0.019,0.346 -1.037,0.793C-3.148,4.976 -2.739,10.193 0,14.152" style="fill:rgb(242,155,83);fill-rule:nonzero;"/>
                </g>
                <g transform="matrix(3.125,0,0,2.34375,172.714,275.331)">
                    <path d="M0,5.825C-1.545,3.864 -2.388,2.01 -2.66,-0.141C-2.587,2.075 -1.801,4.228 -0.425,5.966C-0.281,5.92 -0.14,5.873 0,5.825" style="fill:rgb(242,155,83);fill-rule:nonzero;"/>
                </g>
                <g transform="matrix(3.125,0,0,2.34375,167.883,278.481)">
                    <path d="M0,-6.52C-0.653,-2.372 -0.465,0.548 2.378,4.073L2.444,4.156C3.696,3.674 4.687,3.156 5.54,2.538C2.678,-1.139 2.01,-6.364 3.825,-10.676C2.19,-9.669 0.874,-8.242 0,-6.52" style="fill:rgb(242,155,83);fill-rule:nonzero;"/>
                </g>
                <g transform="matrix(3.125,0,0,2.34375,154.475,317.022)">
                    <path d="M0,67.092C-0.458,67.092 -0.863,67.076 -1.206,67.047C-8.979,66.384 -9.958,63.702 -10.28,62.821C-10.717,61.623 -10.784,59.74 -8.617,57.574C-4.178,53.135 0.167,51.847 2.763,51.077L3.129,50.969C4.031,50.698 4.912,50.562 5.748,50.562C8.706,50.562 10.771,52.364 10.771,54.946C10.771,55.049 10.771,55.179 10.756,55.336C19.252,52.574 31.833,47.234 36.565,41.993C42.366,35.57 42.11,34.439 41.813,33.129C41.64,32.366 40.143,31.745 38.475,31.745C36.6,31.745 33.564,32.311 32.552,32.529C32.407,32.563 31.787,32.727 30.905,32.959C24.897,34.54 20.921,35.547 19.666,35.682C19.274,35.725 18.91,35.749 18.579,35.749C17.162,35.749 16.082,35.278 15.368,34.348C14.294,32.947 14.601,31.185 14.924,29.981C15.826,26.624 19,24.884 19.745,24.517C20.819,23.898 32.567,17.114 38.779,13.037C40.694,11.78 41.765,10.784 42.358,10.096C40.623,10.259 39.007,10.8 37.049,11.457C36.4,11.675 35.723,11.902 35.004,12.128C31.794,13.14 27.723,15.018 25.212,16.318C20.395,18.812 16.724,21.428 14.531,22.99C13.775,23.529 13.189,23.944 12.791,24.195C11.765,24.839 10.761,25.166 9.806,25.166C8.499,25.166 7.332,24.555 6.603,23.488C5.922,22.491 5.698,21.351 5.954,20.188C6.547,17.485 9.479,14.975 18.018,9.857C27.584,4.124 40.553,0.48 46.237,0.053C46.711,0.017 47.18,0 47.642,0C51.695,0 54.976,1.33 56.642,3.648C57.885,5.378 58.153,7.567 57.397,9.811C56.345,12.937 51.353,16.673 46.781,19.548C49.265,19.996 55.132,21.529 57.567,26.206C59.147,29.24 58.927,32.822 56.916,36.852C51.231,48.233 36.991,55.422 27.567,60.179L27.072,60.429C17.751,65.138 4.841,67.092 0,67.092" style="fill:white;fill-rule:nonzero;"/>
                </g>
                <g transform="matrix(3.125,0,0,2.34375,303.354,480.127)">
                    <path d="M0,-72.092C-0.524,-72.092 -1.06,-72.071 -1.592,-72.032C-7.523,-71.587 -21.011,-67.81 -30.908,-61.879C-40.263,-56.274 -43.352,-53.484 -44.129,-49.94C-44.53,-48.114 -44.166,-46.252 -43.104,-44.695C-41.902,-42.934 -39.982,-41.925 -37.835,-41.925C-36.519,-41.925 -35.187,-42.309 -33.87,-43.069C-34.398,-42.258 -34.846,-41.324 -35.132,-40.259C-35.397,-39.271 -36.206,-36.264 -34.257,-33.722C-33.424,-32.636 -31.847,-31.342 -29.062,-31.342C-28.653,-31.342 -28.222,-31.368 -27.706,-31.424C-26.44,-31.56 -23.513,-32.264 -16.105,-34.214C-15.313,-34.423 -14.734,-34.575 -14.518,-34.629C-13.388,-34.869 -10.674,-35.345 -9.166,-35.345C-8.832,-35.345 -8.537,-35.305 -8.304,-35.254C-8.597,-34.613 -9.587,-32.977 -12.932,-29.274C-16.886,-24.894 -27.019,-20.349 -34.992,-17.536C-36.119,-19.959 -38.681,-21.53 -41.893,-21.53C-42.972,-21.53 -44.095,-21.358 -45.229,-21.017L-45.588,-20.911C-48.227,-20.129 -53.138,-18.674 -58.026,-13.785C-61.288,-10.523 -60.832,-7.453 -60.27,-5.913C-59.025,-2.507 -55.358,-0.591 -49.06,-0.053C-48.631,-0.017 -48.167,0 -47.64,0C-41.802,0 -28.803,-2.203 -19.441,-6.931L-18.945,-7.182C-9.228,-12.088 5.457,-19.502 11.51,-31.623C14.487,-37.585 13.498,-41.937 12.144,-44.539C10.477,-47.742 7.579,-49.707 4.862,-50.902C8.328,-53.486 11.227,-56.314 12.125,-58.983C13.145,-62.011 12.756,-65.001 11.031,-67.403C8.89,-70.383 4.869,-72.092 0,-72.092M0,-67.092C4.899,-67.092 8.806,-64.794 7.387,-60.579C5.852,-56.018 -9.109,-48.192 -9.109,-48.192C-9.109,-48.192 -4.481,-48.065 -1.804,-47.666C0.874,-47.267 12.445,-44.687 7.037,-33.857C1.629,-23.027 -12.366,-16.107 -21.696,-11.394C-30.355,-7.02 -42.755,-5 -47.64,-5C-48.019,-5 -48.352,-5.011 -48.635,-5.036C-50.365,-5.183 -58.692,-6.048 -54.491,-10.25C-50.289,-14.452 -46.185,-15.511 -43.793,-16.228C-43.119,-16.43 -42.473,-16.53 -41.893,-16.53C-40.417,-16.53 -39.37,-15.885 -39.37,-14.645C-39.37,-12.917 -44.853,-9.696 -44.853,-9.696C-44.853,-9.696 -44.822,-9.674 -44.667,-9.674C-44.227,-9.674 -42.783,-9.853 -38.186,-11.229C-31.974,-13.09 -15.439,-19.037 -9.221,-25.923C-3.002,-32.808 -2.851,-34.633 -3.39,-37.015C-3.93,-39.397 -6.803,-40.345 -9.166,-40.345C-11.529,-40.345 -15.087,-39.621 -15.615,-39.507C-16.143,-39.393 -26.518,-36.581 -28.243,-36.394C-28.539,-36.363 -28.813,-36.342 -29.062,-36.342C-30.269,-36.342 -30.875,-36.835 -30.303,-38.963C-29.613,-41.53 -26.728,-42.863 -26.728,-42.863C-26.728,-42.863 -14.109,-50.12 -7.49,-54.465C-0.871,-58.809 -1.003,-62.045 -4.225,-62.045C-7.448,-62.045 -9.915,-60.943 -13.389,-59.848C-17.092,-58.68 -21.531,-56.554 -23.579,-55.494C-30.136,-52.099 -34.642,-48.482 -36.181,-47.513C-36.858,-47.088 -37.403,-46.925 -37.835,-46.925C-38.386,-46.925 -38.753,-47.19 -38.974,-47.513C-40.331,-49.503 -37.395,-52.163 -28.338,-57.591C-19.281,-63.018 -6.661,-66.637 -1.218,-67.046C-0.807,-67.077 -0.4,-67.092 0,-67.092" style="fill:rgb(30,65,71);fill-rule:nonzero;"/>
                </g>
                <g transform="matrix(3.125,0,0,2.34375,385.092,366.786)">
                    <path d="M0,5.538C-0.618,5.919 -1.259,6.375 -1.906,6.918C-2.293,7.243 -2.604,7.573 -2.853,7.893C-2.331,7.672 -1.635,7.379 -1.036,7.146C-0.881,6.947 -0.696,6.688 -0.62,6.566L0,5.538ZM-12.063,19.808C-15.233,19.808 -17.527,18.149 -17.907,15.582C-18.343,12.641 -17.366,7.964 -10.238,2.391C-9.407,1.74 -8.501,1.141 -7.556,0.588C-8.148,-0.127 -8.493,-1.063 -8.448,-2.051C-8.254,-6.381 -4.101,-8.505 -1.353,-9.91C-1.05,-10.065 -0.757,-10.215 -0.48,-10.362C1.568,-11.449 7.946,-14.27 12.801,-14.27C13.264,-14.27 13.71,-14.244 14.128,-14.194C16.371,-13.924 17.949,-13.058 18.819,-11.62C19.905,-9.825 19.316,-8.04 19.187,-7.7L19.132,-7.555L19.059,-7.417C18.685,-6.711 9.879,9.907 8.997,11.537C7.69,13.947 4.404,15.388 1.981,15.388C1.427,15.388 0.909,15.313 0.439,15.168C0.159,15.08 -0.099,14.971 -0.333,14.846C-1.743,15.667 -3.932,16.934 -6.06,18.134C-7.976,19.213 -10.108,19.808 -12.063,19.808" style="fill:white;fill-rule:nonzero;"/>
                </g>
                <g transform="matrix(3.125,0,0,2.34375,425.096,419.07)">
                    <path d="M0,-39.078C-5.172,-39.078 -11.716,-36.331 -14.453,-34.878C-14.719,-34.737 -15.001,-34.594 -15.291,-34.445C-18.356,-32.877 -23.487,-30.254 -23.747,-24.472C-23.775,-23.844 -23.708,-23.229 -23.557,-22.642C-23.907,-22.398 -24.248,-22.147 -24.579,-21.887C-32.655,-15.574 -33.714,-9.958 -33.182,-6.359C-32.619,-2.555 -29.276,0 -24.864,0C-22.486,0 -19.918,-0.708 -17.634,-1.996C-15.948,-2.946 -14.25,-3.923 -12.916,-4.697C-12.259,-4.513 -11.556,-4.42 -10.82,-4.42C-7.709,-4.42 -3.423,-6.228 -1.607,-9.58C-0.719,-11.219 8.092,-27.848 8.466,-28.555L8.613,-28.829L8.723,-29.12C9.305,-30.654 9.462,-33.063 8.157,-35.222C7.271,-36.686 5.418,-38.528 1.625,-38.984C1.109,-39.047 0.562,-39.078 0,-39.078M-18.046,-11.086C-17.81,-11.086 -17.55,-11.124 -17.285,-11.198C-16.873,-11.313 -15.947,-11.574 -14.897,-12.019C-14.352,-12.25 -13.168,-12.757 -12.468,-13.003C-12.206,-13.096 -11.43,-14.202 -11.287,-14.439L-8.874,-18.445L-7.583,-20.587C-7.425,-20.849 -7.617,-21.177 -7.909,-21.177C-7.925,-21.177 -7.942,-21.176 -7.959,-21.174C-9.427,-20.99 -12.802,-20.252 -16.315,-17.304C-18.799,-15.218 -19.267,-12.676 -19.065,-11.675C-18.983,-11.275 -18.574,-11.086 -18.046,-11.086M0,-34.078C0.357,-34.078 0.701,-34.059 1.028,-34.02C5.051,-33.536 4.048,-30.895 4.048,-30.895C4.048,-30.895 -5.116,-13.6 -6.003,-11.962C-6.806,-10.481 -9.184,-9.42 -10.82,-9.42C-11.115,-9.42 -11.386,-9.454 -11.619,-9.527C-12.448,-9.785 -12.875,-10.51 -12.875,-10.51C-12.875,-10.51 -16.544,-8.349 -20.088,-6.352C-21.679,-5.456 -23.407,-5 -24.864,-5C-26.651,-5 -28.028,-5.687 -28.236,-7.091C-28.613,-9.64 -27.27,-13.437 -21.5,-17.949C-16.157,-22.125 -7.031,-24.192 -5.856,-24.637C-3.855,-25.396 -2.308,-28.203 -3.454,-29.349C-3.816,-29.711 -4.264,-29.844 -4.739,-29.844C-5.768,-29.844 -6.926,-29.22 -7.621,-28.94C-8.637,-28.532 -11.922,-26.245 -12.643,-25.525C-13.337,-24.831 -15.893,-22.879 -17.504,-22.879C-17.564,-22.879 -17.624,-22.882 -17.681,-22.887C-18.325,-22.951 -18.779,-23.649 -18.752,-24.247C-18.606,-27.487 -14.686,-29.095 -12.109,-30.462C-9.743,-31.718 -4.033,-34.078 0,-34.078" style="fill:rgb(30,65,71);fill-rule:nonzero;"/>
                </g>
                <g transform="matrix(3.125,0,0,2.34375,485.162,418.649)">
                    <path d="M0,-30.363C-0.425,-30.187 -0.979,-29.95 -1.688,-29.636L-5.711,-21.831C-3.819,-23.99 -0.914,-27.918 0,-30.363M-28.695,9.121C-29.833,9.121 -30.872,8.52 -31.409,7.554C-31.754,6.93 -32.175,5.645 -31.18,3.964L-12.586,-33.418C-12.098,-34.401 -11.343,-35.219 -10.405,-35.784C-10.013,-36.021 -9.571,-36.222 -9.183,-36.4C-9.024,-36.472 -8.879,-36.536 -8.778,-36.59C-8.202,-36.94 -7.315,-37.257 -6.874,-37.404C-6.505,-37.57 -5.915,-37.768 -5.198,-37.768C-4.532,-37.768 -3.899,-37.597 -3.341,-37.27C-1.121,-38.069 3.377,-39.484 7.415,-39.484C11.034,-39.484 12.664,-37.991 13.396,-36.739C14.217,-35.331 14.718,-32.807 12.44,-28.776C10.163,-24.747 4.22,-17.31 -1.307,-14.143C-4.931,-12.065 -8.761,-11.584 -11.077,-11.511C-14.181,-5.49 -17.4,0.858 -17.729,1.707C-17.794,1.9 -17.857,2.357 -17.909,2.724C-18.071,3.898 -18.343,5.862 -20.223,6.509L-20.381,6.563C-27.807,9.121 -28.179,9.121 -28.695,9.121" style="fill:white;fill-rule:nonzero;"/>
                </g>
                <g transform="matrix(3.125,0,0,2.34375,508.334,445.884)">
                    <path d="M0,-53.604C-3.917,-53.604 -8.09,-52.443 -10.664,-51.574C-11.288,-51.78 -11.946,-51.888 -12.612,-51.888C-13.677,-51.888 -14.563,-51.625 -15.188,-51.359C-15.796,-51.154 -16.668,-50.822 -17.389,-50.408C-17.463,-50.373 -17.549,-50.334 -17.64,-50.293C-18.065,-50.098 -18.596,-49.856 -19.109,-49.547C-20.456,-48.736 -21.539,-47.562 -22.24,-46.152L-40.796,-8.845C-42.419,-6.028 -41.495,-3.729 -41.01,-2.854C-40.033,-1.093 -38.155,0 -36.11,0C-35.159,0 -34.803,0 -26.98,-2.695L-26.826,-2.748C-23.493,-3.894 -23.024,-7.279 -22.847,-8.553C-22.823,-8.729 -22.789,-8.977 -22.761,-9.126C-22.208,-10.36 -19.604,-15.503 -16.919,-20.724C-14.348,-20.958 -10.846,-21.664 -7.478,-23.594C-0.906,-27.361 5.25,-35.712 7.202,-39.166C10.063,-44.23 9.291,-47.646 8.14,-49.62C7.079,-51.437 4.806,-53.604 0,-53.604M-16.204,-28.897C-15.462,-28.897 -14.321,-29.171 -13.202,-29.908C-11.63,-30.942 -6.44,-37.393 -5.055,-41.156C-3.916,-44.25 -5.349,-44.898 -6.377,-44.898C-6.6,-44.898 -6.804,-44.868 -6.958,-44.825C-7.536,-44.666 -9.118,-43.983 -10.113,-43.543C-10.664,-43.3 -11.114,-42.876 -11.388,-42.34L-15.579,-34.147C-15.579,-34.147 -16.589,-32.125 -17.068,-31.169C-17.548,-30.213 -17.378,-29.288 -16.882,-29.019C-16.739,-28.942 -16.504,-28.897 -16.204,-28.897M0,-48.604C5.07,-48.604 4.866,-45.197 2.849,-41.626C0.831,-38.056 -4.845,-30.867 -9.965,-27.931C-13.566,-25.867 -17.503,-25.621 -19.178,-25.621C-19.704,-25.621 -20.007,-25.644 -20.007,-25.644C-20.007,-25.644 -27.089,-11.95 -27.498,-10.755C-27.907,-9.561 -27.764,-7.712 -28.451,-7.476C-29.138,-7.24 -35.614,-5 -36.11,-5C-36.606,-5 -37.016,-5.468 -36.403,-6.451L-17.764,-43.925C-17.487,-44.479 -17.061,-44.944 -16.53,-45.263C-16.043,-45.556 -15.233,-45.87 -14.931,-46.054C-14.426,-46.359 -13.351,-46.701 -13.351,-46.701C-13.351,-46.701 -13.023,-46.888 -12.613,-46.888C-12.371,-46.888 -12.1,-46.823 -11.85,-46.614L-11.177,-46.054C-11.177,-46.054 -5.069,-48.604 0,-48.604" style="fill:rgb(30,65,71);fill-rule:nonzero;"/>
                </g>
                <g transform="matrix(3.125,0,0,2.34375,530.264,320.373)">
                    <path d="M0,27.463C-1.355,27.463 -2.416,27.305 -3.241,26.98C-5.225,26.199 -6.667,24.751 -7.302,22.903C-8.126,20.508 -7.564,17.62 -5.633,14.32C-5.087,13.257 -1.112,6.199 10.149,1.902C13.459,0.64 16.3,0 18.593,0C24.329,0 25.62,3.881 25.62,5.241C25.62,7.291 23.849,11.781 17.146,14.108C12.945,15.566 9.736,15.789 7.819,15.923C7.516,15.944 7.164,15.969 6.901,15.995C6.574,16.418 6.155,17.082 5.858,17.671C8.041,17.619 10.932,16.683 12.876,15.756C14.127,15.16 15.119,14.882 15.999,14.882C17.312,14.882 18.401,15.533 18.915,16.622C19.428,17.711 19.242,19.04 18.441,20.008C17.719,20.88 13.923,23.907 9.64,25.577C6.7,26.723 2.916,27.463 0,27.463" style="fill:white;fill-rule:nonzero;"/>
                </g>
                <g transform="matrix(3.125,0,0,2.34375,571.673,374.695)">
                    <path d="M5.342,-25.677C2.706,-25.677 -0.347,-25.001 -3.992,-23.61C-15.863,-19.081 -20.231,-11.694 -21.081,-10.051C-23.364,-6.121 -23.981,-2.559 -22.917,0.539C-22.04,3.089 -20.084,5.075 -17.407,6.13C-16.286,6.571 -14.926,6.786 -13.252,6.786C-10,6.786 -5.958,5.998 -2.703,4.729C1.819,2.966 6.028,-0.261 7.114,-1.572C8.531,-3.284 8.85,-5.657 7.927,-7.618C7.863,-7.753 7.795,-7.885 7.722,-8.013C13.283,-10.988 14.87,-15.472 14.87,-17.936C14.87,-20.929 12.283,-25.677 5.342,-25.677M-5.188,-12.85C-3.643,-13.022 -1.95,-13.251 1.057,-13.995C4.064,-14.74 3.492,-16.545 3.063,-16.831C2.891,-16.946 2.519,-17.035 2.013,-17.035C1.408,-17.035 0.613,-16.908 -0.261,-16.545C-2.59,-15.578 -5.188,-12.85 -5.188,-12.85M5.342,-20.677C9.413,-20.677 9.87,-18.231 9.87,-17.936C9.87,-17.513 9.303,-13.594 3.074,-11.432C-3.153,-9.269 -6.954,-10.046 -7.739,-9.363C-8.523,-8.681 -11.895,-3.892 -9.3,-3.201C-8.791,-3.065 -8.21,-3.004 -7.584,-3.004C-5.018,-3.004 -1.679,-4.03 0.702,-5.164C1.672,-5.627 2.324,-5.795 2.749,-5.795C3.621,-5.795 3.532,-5.086 3.264,-4.761C2.863,-4.278 -0.557,-1.474 -4.52,0.071C-7.343,1.171 -10.819,1.786 -13.252,1.786C-14.233,1.786 -15.045,1.686 -15.575,1.477C-17.418,0.751 -20.309,-1.525 -16.687,-7.66C-16.687,-7.66 -13.354,-14.687 -2.21,-18.939C1.151,-20.221 3.584,-20.677 5.342,-20.677" style="fill:rgb(30,65,71);fill-rule:nonzero;"/>
                </g>
                <g transform="matrix(3.125,0,0,2.34375,792.362,340.904)">
                    <path d="M0,4.565C-0.124,4.738 -0.263,4.949 -0.397,5.17C0.663,5.049 1.937,4.728 3.177,4.27C2.14,4.413 1.273,4.474 0.596,4.521C0.403,4.534 0.187,4.549 0,4.565M-6.034,14.268C-7.229,14.268 -8.17,14.125 -8.912,13.833C-10.695,13.13 -11.994,11.823 -12.567,10.154C-13.301,8.021 -12.817,5.476 -11.13,2.59C-10.619,1.604 -7.176,-4.417 2.4,-8.071C5.279,-9.169 7.656,-9.703 9.669,-9.703C14.275,-9.703 15.992,-6.749 15.992,-4.888C15.992,-3.062 14.441,0.93 8.572,2.967C8.536,2.98 8.501,2.992 8.465,3.004C9.278,3.245 9.931,3.79 10.293,4.559C10.789,5.614 10.611,6.899 9.839,7.833C9.214,8.587 5.934,11.212 2.249,12.648C-0.275,13.632 -3.526,14.268 -6.034,14.268" style="fill:white;fill-rule:nonzero;"/>
                </g>
                <g transform="matrix(3.125,0,0,2.34375,822.577,380.204)">
                    <path d="M0,-28.971C-2.322,-28.971 -4.991,-28.384 -8.16,-27.175C-18.361,-23.283 -22.202,-16.891 -22.993,-15.376C-25.034,-11.858 -25.575,-8.638 -24.601,-5.801C-23.785,-3.428 -21.973,-1.584 -19.498,-0.61C-18.458,-0.2 -17.217,0 -15.703,0C-12.866,0 -9.345,-0.686 -6.512,-1.79C-2.375,-3.404 1.19,-6.247 2.097,-7.343C3.408,-8.926 3.757,-11.095 3.022,-12.957C7.518,-15.638 8.823,-19.492 8.823,-21.656C8.823,-24.484 6.428,-28.971 0,-28.971M-8.894,-17.361C-7.588,-17.506 -6.159,-17.7 -3.619,-18.328C-1.079,-18.957 -1.562,-20.481 -1.926,-20.723C-2.07,-20.82 -2.385,-20.895 -2.812,-20.895C-3.322,-20.895 -3.994,-20.787 -4.731,-20.481C-6.699,-19.664 -8.894,-17.361 -8.894,-17.361M0,-23.971C3.438,-23.971 3.823,-21.906 3.823,-21.656C3.823,-21.299 3.345,-17.989 -1.915,-16.163C-7.175,-14.337 -10.385,-14.992 -11.047,-14.416C-11.71,-13.84 -14.557,-9.795 -12.366,-9.212C-11.936,-9.097 -11.445,-9.046 -10.916,-9.046C-8.749,-9.046 -5.93,-9.911 -3.919,-10.87C-3.1,-11.261 -2.549,-11.403 -2.19,-11.403C-1.454,-11.403 -1.528,-10.804 -1.756,-10.53C-2.094,-10.121 -4.982,-7.754 -8.328,-6.45C-10.712,-5.52 -13.648,-5 -15.703,-5C-16.532,-5 -17.218,-5.085 -17.665,-5.261C-19.222,-5.874 -21.663,-7.797 -18.604,-12.978C-18.604,-12.978 -15.789,-18.912 -6.378,-22.503C-3.539,-23.586 -1.485,-23.971 0,-23.971" style="fill:rgb(30,65,71);fill-rule:nonzero;"/>
                </g>
                <g transform="matrix(3.125,0,0,2.34375,634.204,317.141)">
                    <path d="M0,24.966C-1.205,24.965 -2.256,24.229 -2.678,23.088C-3.088,21.979 -2.827,20.696 -2.05,19.852C-1.933,19.684 -1.721,19.356 -1.446,18.918C-2.231,19.004 -3.047,19.057 -3.862,19.057C-5.75,19.057 -7.39,18.769 -8.737,18.2C-11.356,17.096 -12.257,15.441 -12.551,14.248C-13.175,11.716 -11.535,9.628 -11.346,9.398L-5.072,2.411L-4.507,2.195C-4.268,2.104 -2.095,1.305 0.581,1.305C0.984,1.305 1.397,1.323 1.814,1.365C3.49,1.53 5.784,1.756 6.12,3.939C6.259,4.837 5.907,5.721 5.234,6.296C4.799,6.756 3.412,8.221 1.796,9.978C1.671,10.114 1.557,10.243 1.453,10.364C2.235,9.998 3.089,9.516 3.48,9.296C5.436,8.194 7.775,3.986 8.603,2.12L9.177,0.824L10.584,0.652C11.129,0.585 15.955,0 17.68,0C18.15,0 19.13,0 19.918,0.786C21.351,2.219 20.706,3.375 18.795,6.807C17.644,8.875 16.142,11.472 15.083,13.286C9.569,22.744 9.153,23.161 8.976,23.338C8.181,24.132 7.543,24.317 1.331,24.855C0.867,24.895 0.524,24.924 0.394,24.94L0.245,24.957L0,24.966Z" style="fill:white;fill-rule:nonzero;"/>
                </g>
                <g transform="matrix(3.125,0,0,2.34375,689.453,381.514)">
                    <path d="M0,-29.966C-1.786,-29.966 -6.115,-29.453 -7.399,-29.296L-10.214,-28.951L-11.002,-27.172C-12.519,-28.284 -14.524,-28.481 -15.62,-28.589C-16.101,-28.636 -16.599,-28.661 -17.099,-28.661C-20.157,-28.661 -22.615,-27.782 -23.077,-27.607L-24.207,-27.175L-25.016,-26.276L-30.814,-19.82L-30.888,-19.739L-30.957,-19.655C-32.234,-18.102 -33.353,-15.438 -32.657,-12.62C-32.227,-10.871 -30.963,-8.469 -27.389,-6.962C-26.112,-6.424 -24.652,-6.09 -23.034,-5.965C-23.104,-5.148 -22.998,-4.31 -22.702,-3.51C-21.914,-1.378 -19.942,0 -17.679,0C-17.449,0 -17.216,-0.015 -16.986,-0.045C-16.836,-0.06 -16.531,-0.086 -16.135,-0.12C-9.971,-0.654 -8.458,-0.838 -6.937,-2.359C-6.494,-2.801 -6.112,-3.182 -0.437,-12.921C0.627,-14.745 2.139,-17.357 3.3,-19.442C3.851,-20.431 4.259,-21.187 4.548,-21.753C5.93,-24.453 5.748,-26.705 4.008,-28.445C2.487,-29.966 0.615,-29.966 0,-29.966M0,-24.966C0.264,-24.966 0.433,-24.949 0.472,-24.91C0.749,-24.633 -10.098,-6.268 -10.471,-5.895C-10.844,-5.522 -17.096,-5.077 -17.613,-5.005C-17.636,-5.002 -17.658,-5 -17.679,-5C-18.132,-5 -18.143,-5.708 -17.856,-5.953C-17.558,-6.209 -13.987,-12.175 -13.987,-12.175C-13.987,-12.175 -17.824,-10.908 -21.542,-10.908C-22.928,-10.908 -24.298,-11.085 -25.445,-11.569C-29.668,-13.35 -27.095,-16.479 -27.095,-16.479L-21.296,-22.935C-21.296,-22.935 -19.392,-23.661 -17.099,-23.661C-16.775,-23.661 -16.444,-23.646 -16.109,-23.613C-13.403,-23.347 -14.112,-23.044 -14.112,-23.044C-14.112,-23.044 -15.748,-21.328 -17.723,-19.18C-19.698,-17.033 -20.406,-15.244 -18.982,-14.49C-18.534,-14.253 -18.101,-14.129 -17.612,-14.129C-16.553,-14.129 -15.238,-14.715 -12.972,-15.992C-9.662,-17.857 -6.791,-24.333 -6.791,-24.333C-6.791,-24.333 -1.62,-24.966 0,-24.966" style="fill:rgb(30,65,71);fill-rule:nonzero;"/>
                </g>
                <g transform="matrix(3.125,0,0,2.34375,729.819,343.812)">
                    <path d="M0,1.093C-0.987,1.369 -2.01,1.876 -2.956,2.566C-3.149,2.731 -3.493,3.189 -3.9,3.807C-2.363,3.075 -0.841,2.119 0,1.093M-15.894,13.027C-18.141,13.027 -19.101,11.87 -19.473,11.181C-20.238,9.76 -19.774,8.133 -19.084,7.083L-7.599,-10.124L-7.283,-10.372C-5.996,-11.379 -4.531,-11.57 -3.462,-11.709L-3.162,-11.749C-2.279,-11.872 -1.366,-11.934 -0.445,-11.934C1.38,-11.934 2.644,-11.692 2.781,-11.665L6.605,-10.902L3.836,-7.084C4.048,-7.104 4.314,-7.118 4.621,-7.118C5.873,-7.118 8.974,-6.884 10.719,-4.712C11.418,-3.841 12.149,-2.336 11.659,-0.115C10.523,5.02 4.509,8.972 -0.741,10.958C-6.213,13.027 -13.246,13.027 -15.894,13.027" style="fill:white;fill-rule:nonzero;"/>
                </g>
                <g transform="matrix(3.125,0,0,2.34375,728.433,380.202)">
                    <path d="M0,-29.96C-1.036,-29.96 -2.065,-29.89 -3.062,-29.752L-3.339,-29.715C-4.541,-29.559 -6.553,-29.297 -8.38,-27.868L-9.012,-27.373L-9.458,-26.705L-20.711,-9.845C-21.815,-8.165 -22.518,-5.548 -21.229,-3.16C-20.717,-2.21 -19.128,0 -15.449,0C-12.677,0 -5.312,0 0.586,-2.23C6.447,-4.446 13.192,-8.992 14.543,-15.101C15.093,-17.589 14.585,-19.969 13.111,-21.804C11.907,-23.303 10.311,-24.137 8.81,-24.598L11.363,-28.118L3.714,-29.643C3.448,-29.696 2.021,-29.96 0,-29.96M-7.104,-7.914C-6.946,-7.914 -6.76,-7.934 -6.541,-7.979C-4.222,-8.454 1.601,-10.752 3.169,-14.083C4.38,-16.654 3.618,-17.209 2.303,-17.209C1.915,-17.209 1.479,-17.16 1.032,-17.101C-0.572,-16.89 -2.331,-16.188 -3.986,-14.98C-5.251,-14.057 -7.486,-9.786 -7.486,-9.786C-7.486,-9.786 -8.614,-7.914 -7.104,-7.914M0,-24.96C1.63,-24.96 2.736,-24.74 2.736,-24.74L-1.506,-18.892C-1.506,-18.892 3.169,-19.983 4.485,-20.119C4.638,-20.135 4.835,-20.145 5.063,-20.145C6.814,-20.145 10.404,-19.543 9.661,-16.181C8.82,-12.378 3.856,-8.812 -1.183,-6.907C-6.222,-5.001 -12.986,-5 -15.449,-5C-17.913,-5 -16.552,-7.07 -16.552,-7.07L-5.299,-23.93C-4.458,-24.587 -3.324,-24.667 -2.374,-24.799C-1.515,-24.918 -0.708,-24.96 0,-24.96" style="fill:rgb(30,65,71);fill-rule:nonzero;"/>
                </g>
                <g transform="matrix(3.125,0,0,2.34375,534.467,418.428)">
                    <path d="M0,-3.278C0,-3.798 -0.173,-4.191 -0.52,-4.462C-0.864,-4.732 -1.354,-4.867 -1.984,-4.867C-2.629,-4.867 -3.123,-4.732 -3.47,-4.462C-3.814,-4.191 -3.987,-3.798 -3.987,-3.278L-3.987,-0C-3.987,0.519 -3.814,0.913 -3.47,1.184C-3.123,1.454 -2.629,1.59 -1.984,1.59C-1.354,1.59 -0.864,1.454 -0.52,1.184C-0.173,0.913 0,0.519 0,-0L0,-3.278ZM-7.595,-3.13C-7.595,-4.575 -7.105,-5.709 -6.128,-6.531C-5.151,-7.353 -3.771,-7.765 -1.984,-7.765C-0.212,-7.765 1.162,-7.353 2.14,-6.531C3.117,-5.709 3.606,-4.575 3.606,-3.13L3.606,-0.149C3.606,1.297 3.117,2.431 2.14,3.253C1.162,4.076 -0.212,4.487 -1.984,4.487C-3.771,4.487 -5.151,4.076 -6.128,3.253C-7.105,2.431 -7.595,1.297 -7.595,-0.149L-7.595,-3.13Z" style="fill:white;fill-rule:nonzero;"/>
                </g>
                <g transform="matrix(3.125,0,0,2.34375,528.265,394.368)">
                    <path d="M0,17.252C-2.383,17.252 -4.318,16.64 -5.754,15.431C-7.295,14.135 -8.11,12.296 -8.11,10.116L-8.11,7.136C-8.11,4.956 -7.295,3.118 -5.753,1.821C-4.318,0.613 -2.382,0 0,0C2.367,0 4.297,0.612 5.733,1.821C7.275,3.118 8.091,4.956 8.091,7.136L8.091,10.116C8.091,12.296 7.275,14.135 5.733,15.432C4.298,16.64 2.368,17.252 0,17.252" style="fill:rgb(30,65,71);fill-rule:nonzero;"/>
                </g>
                <g transform="matrix(3.125,0,0,2.34375,568.445,427.508)">
                    <path d="M0,-8.493L0,-6.937C0,-5.094 -0.285,-3.626 -0.855,-2.533L2.367,-2.533L2.367,-8.493L0,-8.493ZM5.189,-11.39C5.482,-11.39 5.684,-11.338 5.8,-11.233C5.916,-11.129 5.973,-10.949 5.973,-10.696L5.973,-2.533L6.848,-2.533C7.139,-2.533 7.339,-2.483 7.449,-2.385C7.558,-2.284 7.612,-2.108 7.612,-1.854L7.612,2.201C7.612,2.455 7.558,2.636 7.449,2.74C7.339,2.845 7.139,2.897 6.848,2.897L4.844,2.897C4.553,2.897 4.349,2.845 4.234,2.74C4.118,2.636 4.062,2.455 4.062,2.201L4.062,0.364L-2.604,0.364L-2.604,2.201C-2.604,2.455 -2.662,2.636 -2.776,2.74C-2.893,2.845 -3.091,2.897 -3.37,2.897L-5.391,2.897C-5.671,2.897 -5.868,2.845 -5.982,2.74C-6.099,2.636 -6.156,2.455 -6.156,2.201L-6.156,-1.854C-6.156,-2.108 -6.099,-2.284 -5.982,-2.385C-5.868,-2.483 -5.671,-2.533 -5.391,-2.533L-4.991,-2.533C-4.492,-2.919 -4.125,-3.435 -3.888,-4.081C-3.651,-4.726 -3.533,-5.673 -3.533,-6.921L-3.533,-10.696C-3.533,-10.949 -3.477,-11.129 -3.36,-11.233C-3.244,-11.338 -3.041,-11.39 -2.75,-11.39L5.189,-11.39Z" style="fill:white;fill-rule:nonzero;"/>
                </g>
                <g transform="matrix(3.125,0,0,2.34375,589.844,394.952)">
                    <path d="M0,19.287L-2.004,19.287C-2.939,19.287 -3.712,19.014 -4.301,18.475C-4.656,18.155 -5.08,17.605 -5.229,16.755L-7.008,16.755C-7.157,17.596 -7.575,18.144 -7.937,18.475C-8.541,19.018 -9.303,19.287 -10.218,19.287L-12.238,19.287C-13.162,19.287 -13.929,19.014 -14.518,18.475C-14.959,18.079 -15.504,17.329 -15.504,16.092L-15.504,12.036C-15.504,10.712 -14.854,9.951 -14.466,9.615C-14.076,9.278 -13.612,9.054 -13.08,8.941C-13.031,8.805 -12.881,8.275 -12.881,6.97L-12.881,3.194C-12.881,1.958 -12.336,1.209 -11.88,0.798C-11.29,0.268 -10.522,0 -9.598,0L-1.658,0C-0.733,0 0.034,0.268 0.624,0.798C1.08,1.209 1.625,1.958 1.625,3.194L1.625,9.207C1.858,9.323 2.073,9.468 2.268,9.641C2.741,10.081 3.265,10.821 3.265,12.036L3.265,16.092C3.265,17.285 2.76,18.022 2.337,18.431C1.731,19.004 0.95,19.287 0,19.287" style="fill:rgb(30,65,71);fill-rule:nonzero;"/>
                </g>
                <g transform="matrix(3.125,0,0,2.34375,629.111,428.361)">
                    <path d="M0,-11.771C0.291,-11.771 0.495,-11.718 0.611,-11.614C0.727,-11.508 0.783,-11.324 0.783,-11.06L0.783,-0.695C0.783,-0.441 0.727,-0.262 0.611,-0.157C0.495,-0.052 0.291,0 0,0L-2.04,0C-2.331,0 -2.534,-0.052 -2.649,-0.157C-2.766,-0.262 -2.822,-0.447 -2.822,-0.712L-2.822,-3.526C-2.822,-3.791 -2.819,-4.026 -2.813,-4.23C-2.807,-4.433 -2.792,-4.641 -2.769,-4.851C-2.743,-5.06 -2.726,-5.223 -2.713,-5.339C-2.701,-5.455 -2.667,-5.626 -2.613,-5.852C-2.558,-6.078 -2.516,-6.242 -2.485,-6.34C-2.455,-6.44 -2.397,-6.644 -2.313,-6.953C-2.228,-7.262 -2.167,-7.488 -2.13,-7.632L-2.276,-7.632C-2.616,-6.782 -2.886,-6.153 -3.087,-5.745C-3.286,-5.336 -3.587,-4.829 -3.988,-4.221L-6.501,-0.331C-6.635,-0.11 -6.883,0 -7.248,0L-9.451,0C-9.743,0 -9.945,-0.052 -10.062,-0.157C-10.177,-0.262 -10.235,-0.441 -10.235,-0.695L-10.235,-11.06C-10.235,-11.313 -10.177,-11.493 -10.062,-11.597C-9.945,-11.702 -9.743,-11.754 -9.451,-11.754L-7.394,-11.754C-7.103,-11.754 -6.901,-11.702 -6.792,-11.597C-6.684,-11.493 -6.629,-11.313 -6.629,-11.06L-6.629,-8.228C-6.629,-7.334 -6.668,-6.65 -6.747,-6.175C-6.826,-5.701 -7.011,-5.021 -7.303,-4.138L-7.175,-4.138C-6.52,-5.651 -5.937,-6.798 -5.427,-7.583L-2.95,-11.44C-2.792,-11.661 -2.537,-11.771 -2.186,-11.771L0,-11.771Z" style="fill:white;fill-rule:nonzero;"/>
                </g>
                <g transform="matrix(3.125,0,0,2.34375,602.136,404.614)">
                    <path d="M0,8.494C-0.002,8.498 -0.005,8.502 -0.007,8.506L0.001,8.494L0,8.494ZM8.632,12.633L6.592,12.633C5.662,12.633 4.893,12.362 4.303,11.827C4.201,11.735 4.095,11.625 3.991,11.496C3.401,12.209 2.465,12.633 1.384,12.633L-0.819,12.633C-1.744,12.633 -2.512,12.364 -3.102,11.835C-3.567,11.408 -4.104,10.66 -4.104,9.437L-4.104,-0.928C-4.104,-2.222 -3.48,-2.981 -3.109,-3.317C-2.512,-3.854 -1.744,-4.122 -0.819,-4.122L1.238,-4.122C2.193,-4.122 2.977,-3.836 3.566,-3.273C3.651,-3.191 3.739,-3.097 3.825,-2.988C4.461,-3.733 5.381,-4.139 6.446,-4.139L8.632,-4.139C9.558,-4.139 10.325,-3.87 10.915,-3.341C11.38,-2.915 11.915,-2.165 11.915,-0.928L11.915,9.437C11.915,10.662 11.38,11.409 10.931,11.819C10.325,12.364 9.558,12.633 8.632,12.633" style="fill:rgb(30,65,71);fill-rule:nonzero;"/>
                </g>
                <g transform="matrix(3.125,0,0,2.34375,669.574,428.361)">
                    <path d="M0,-11.771C0.278,-11.771 0.477,-11.718 0.592,-11.614C0.707,-11.508 0.765,-11.324 0.765,-11.06L0.765,-0.695C0.765,-0.441 0.707,-0.262 0.592,-0.157C0.477,-0.052 0.278,0 0,0L-2.076,0C-2.355,0 -2.553,-0.052 -2.668,-0.157C-2.784,-0.262 -2.841,-0.441 -2.841,-0.695L-2.841,-4.503L-6.374,-4.503L-6.374,-0.695C-6.374,-0.441 -6.43,-0.262 -6.538,-0.157C-6.647,-0.052 -6.848,0 -7.139,0L-9.197,0C-9.488,0 -9.691,-0.052 -9.808,-0.157C-9.923,-0.262 -9.98,-0.441 -9.98,-0.695L-9.98,-11.06C-9.98,-11.324 -9.923,-11.508 -9.808,-11.614C-9.691,-11.718 -9.488,-11.771 -9.197,-11.771L-7.139,-11.771C-6.848,-11.771 -6.647,-11.718 -6.538,-11.614C-6.43,-11.508 -6.374,-11.324 -6.374,-11.06L-6.374,-7.4L-2.841,-7.4L-2.841,-11.06C-2.841,-11.324 -2.784,-11.508 -2.668,-11.614C-2.553,-11.718 -2.355,-11.771 -2.076,-11.771L0,-11.771Z" style="fill:white;fill-rule:nonzero;"/>
                </g>
                <g transform="matrix(3.125,0,0,2.34375,669.574,394.914)">
                    <path d="M0,16.771L-2.076,16.771C-2.994,16.771 -3.758,16.5 -4.348,15.965C-4.432,15.889 -4.519,15.802 -4.604,15.702C-4.668,15.777 -4.732,15.845 -4.795,15.906C-5.401,16.485 -6.185,16.771 -7.139,16.771L-9.197,16.771C-10.122,16.771 -10.89,16.502 -11.479,15.973C-11.945,15.546 -12.48,14.799 -12.48,13.576L-12.48,3.21C-12.48,1.974 -11.945,1.224 -11.495,0.813C-10.89,0.268 -10.122,0 -9.197,0L-7.139,0C-6.185,0 -5.401,0.286 -4.812,0.849C-4.743,0.916 -4.674,0.989 -4.605,1.07C-4.52,0.969 -4.433,0.881 -4.348,0.805C-3.758,0.27 -2.994,0 -2.076,0L0,0C0.918,0 1.682,0.27 2.271,0.805C2.729,1.224 3.265,1.974 3.265,3.21L3.265,13.576C3.265,14.799 2.729,15.546 2.279,15.958C1.682,16.5 0.918,16.771 0,16.771" style="fill:rgb(30,65,71);fill-rule:nonzero;"/>
                </g>
                <g transform="matrix(3.125,0,0,2.34375,714.252,413.579)">
                    <path d="M0,3.41C0.291,3.41 0.494,3.46 0.61,3.558C0.726,3.659 0.783,3.835 0.783,4.089L0.783,8.144C0.783,8.41 0.726,8.595 0.61,8.699C0.494,8.805 0.291,8.857 0,8.857L-1.876,8.857C-2.168,8.857 -2.368,8.805 -2.477,8.699C-2.586,8.595 -2.641,8.41 -2.641,8.144L-2.641,6.307L-10.563,6.307C-10.855,6.307 -11.058,6.255 -11.174,6.15C-11.289,6.045 -11.347,5.866 -11.347,5.612L-11.347,-4.753C-11.347,-5.006 -11.289,-5.186 -11.174,-5.29C-11.058,-5.395 -10.855,-5.447 -10.563,-5.447L-8.505,-5.447C-8.214,-5.447 -8.014,-5.395 -7.903,-5.29C-7.795,-5.186 -7.74,-5.006 -7.74,-4.753L-7.74,3.41L-4.353,3.41L-4.353,-4.753C-4.353,-5.006 -4.296,-5.186 -4.181,-5.29C-4.064,-5.395 -3.86,-5.447 -3.569,-5.447L-1.512,-5.447C-1.221,-5.447 -1.02,-5.395 -0.91,-5.29C-0.802,-5.186 -0.747,-5.006 -0.747,-4.753L-0.747,3.41L0,3.41Z" style="fill:white;fill-rule:nonzero;"/>
                </g>
                <g transform="matrix(3.125,0,0,2.34375,714.252,407.719)">
                    <path d="M0,8.41L0,5.91L0,8.41ZM0,13.857L-1.876,13.857C-2.841,13.857 -3.629,13.566 -4.22,12.991C-4.55,12.676 -4.943,12.136 -5.086,11.307L-10.563,11.307C-11.488,11.307 -12.256,11.039 -12.846,10.51C-13.312,10.083 -13.847,9.336 -13.847,8.112L-13.847,-2.253C-13.847,-3.484 -13.307,-4.232 -12.854,-4.642C-12.256,-5.179 -11.488,-5.447 -10.563,-5.447L-8.505,-5.447C-7.555,-5.447 -6.774,-5.164 -6.185,-4.606C-6.138,-4.561 -6.091,-4.513 -6.044,-4.46C-5.981,-4.528 -5.92,-4.588 -5.86,-4.642C-5.263,-5.179 -4.495,-5.447 -3.569,-5.447L-1.512,-5.447C-0.557,-5.447 0.227,-5.161 0.816,-4.598C1.248,-4.182 1.753,-3.445 1.753,-2.253L1.753,3.824C1.922,3.918 2.08,4.027 2.229,4.152C2.639,4.511 3.283,5.27 3.283,6.589L3.283,10.644C3.283,11.889 2.743,12.64 2.29,13.051C1.7,13.586 0.93,13.857 0,13.857" style="fill:rgb(30,65,71);fill-rule:nonzero;"/>
                </g>
                <g transform="matrix(3.125,0,0,2.34375,743.958,418.428)">
                    <path d="M0,-3.278C0,-3.798 -0.174,-4.191 -0.52,-4.462C-0.866,-4.732 -1.354,-4.867 -1.985,-4.867C-2.629,-4.867 -3.124,-4.732 -3.47,-4.462C-3.816,-4.191 -3.989,-3.798 -3.989,-3.278L-3.989,-0C-3.989,0.519 -3.816,0.913 -3.47,1.184C-3.124,1.454 -2.629,1.59 -1.985,1.59C-1.354,1.59 -0.866,1.454 -0.52,1.184C-0.174,0.913 0,0.519 0,-0L0,-3.278ZM-7.595,-3.13C-7.595,-4.575 -7.105,-5.709 -6.129,-6.531C-5.151,-7.353 -3.771,-7.765 -1.985,-7.765C-0.214,-7.765 1.162,-7.353 2.14,-6.531C3.116,-5.709 3.604,-4.575 3.604,-3.13L3.604,-0.149C3.604,1.297 3.116,2.431 2.14,3.253C1.162,4.076 -0.214,4.487 -1.985,4.487C-3.771,4.487 -5.151,4.076 -6.129,3.253C-7.105,2.431 -7.595,1.297 -7.595,-0.149L-7.595,-3.13Z" style="fill:white;fill-rule:nonzero;"/>
                </g>
                <g transform="matrix(3.125,0,0,2.34375,737.753,394.368)">
                    <path d="M0,17.252C-2.382,17.252 -4.317,16.64 -5.753,15.432C-7.295,14.134 -8.109,12.296 -8.109,10.116L-8.109,7.136C-8.109,4.957 -7.295,3.119 -5.754,1.822C-4.316,0.612 -2.381,0 0,0C2.368,0 4.298,0.612 5.734,1.821C7.275,3.119 8.09,4.956 8.09,7.136L8.09,10.116C8.09,12.296 7.275,14.134 5.735,15.431C4.299,16.64 2.369,17.252 0,17.252" style="fill:rgb(30,65,71);fill-rule:nonzero;"/>
                </g>
                <g transform="matrix(3.125,0,0,2.34375,782.657,409.349)">
                    <path d="M0,4.453C0,3.813 -0.389,3.493 -1.166,3.493L-3.277,3.493L-3.277,5.43L-1.166,5.43C-0.389,5.43 0,5.104 0,4.453M-0.4,-0.068C-0.4,-0.685 -0.771,-0.993 -1.512,-0.993L-3.277,-0.993L-3.277,0.827L-1.512,0.827C-0.771,0.827 -0.4,0.529 -0.4,-0.068M-0.765,-3.659C0.498,-3.659 1.484,-3.386 2.194,-2.84C2.905,-2.293 3.26,-1.518 3.26,-0.514C3.26,0.568 2.823,1.38 1.949,1.92L1.949,1.986C3.175,2.473 3.788,3.422 3.788,4.834C3.788,5.871 3.372,6.677 2.541,7.252C1.709,7.825 0.631,8.112 -0.692,8.112L-6.101,8.112C-6.393,8.112 -6.595,8.059 -6.711,7.955C-6.826,7.849 -6.885,7.671 -6.885,7.417L-6.885,-2.948C-6.885,-3.212 -6.826,-3.397 -6.711,-3.502C-6.595,-3.607 -6.393,-3.659 -6.101,-3.659L-0.765,-3.659Z" style="fill:white;fill-rule:nonzero;"/>
                </g>
                <g transform="matrix(3.125,0,0,2.34375,780.493,394.914)">
                    <path d="M0,16.771L-5.408,16.771C-6.333,16.771 -7.101,16.502 -7.69,15.973C-8.156,15.546 -8.692,14.798 -8.692,13.576L-8.692,3.21C-8.692,1.974 -8.156,1.224 -7.706,0.813C-7.101,0.268 -6.333,0 -5.408,0L-0.072,0C1.748,0 3.257,0.45 4.41,1.337C5.746,2.365 6.452,3.854 6.452,5.645C6.452,6.41 6.315,7.124 6.052,7.769C6.657,8.661 6.98,9.756 6.98,10.993C6.98,12.84 6.155,14.429 4.656,15.466C3.398,16.334 1.833,16.771 0,16.771" style="fill:rgb(30,65,71);fill-rule:nonzero;"/>
                </g>
                <g transform="matrix(3.125,0,0,2.34375,822.494,418.428)">
                    <path d="M0,-3.278C0,-3.798 -0.174,-4.191 -0.52,-4.462C-0.866,-4.732 -1.354,-4.867 -1.985,-4.867C-2.629,-4.867 -3.124,-4.732 -3.47,-4.462C-3.816,-4.191 -3.989,-3.798 -3.989,-3.278L-3.989,-0C-3.989,0.519 -3.816,0.913 -3.47,1.184C-3.124,1.454 -2.629,1.59 -1.985,1.59C-1.354,1.59 -0.866,1.454 -0.52,1.184C-0.174,0.913 0,0.519 0,-0L0,-3.278ZM-7.595,-3.13C-7.595,-4.575 -7.105,-5.709 -6.129,-6.531C-5.151,-7.353 -3.771,-7.765 -1.985,-7.765C-0.214,-7.765 1.162,-7.353 2.14,-6.531C3.116,-5.709 3.605,-4.575 3.605,-3.13L3.605,-0.149C3.605,1.297 3.116,2.431 2.14,3.253C1.162,4.076 -0.214,4.487 -1.985,4.487C-3.771,4.487 -5.151,4.076 -6.129,3.253C-7.105,2.431 -7.595,1.297 -7.595,-0.149L-7.595,-3.13Z" style="fill:white;fill-rule:nonzero;"/>
                </g>
                <g transform="matrix(3.125,0,0,2.34375,816.29,394.368)">
                    <path d="M0,17.252C-2.382,17.252 -4.317,16.64 -5.753,15.432C-7.295,14.134 -8.109,12.296 -8.109,10.116L-8.109,7.136C-8.109,4.957 -7.295,3.119 -5.754,1.822C-4.316,0.612 -2.381,0 0,0C2.368,0 4.298,0.612 5.734,1.821C7.276,3.119 8.091,4.957 8.091,7.136L8.091,10.116C8.091,12.296 7.276,14.134 5.735,15.431C4.299,16.64 2.369,17.252 0,17.252" style="fill:rgb(30,65,71);fill-rule:nonzero;"/>
                </g>
                <g transform="matrix(3.125,0,0,2.34375,534.467,418.428)">
                    <path d="M0,-3.278C0,-3.798 -0.173,-4.191 -0.52,-4.462C-0.864,-4.732 -1.354,-4.867 -1.984,-4.867C-2.629,-4.867 -3.123,-4.732 -3.47,-4.462C-3.814,-4.191 -3.987,-3.798 -3.987,-3.278L-3.987,-0C-3.987,0.519 -3.814,0.913 -3.47,1.184C-3.123,1.454 -2.629,1.59 -1.984,1.59C-1.354,1.59 -0.864,1.454 -0.52,1.184C-0.173,0.913 0,0.519 0,-0L0,-3.278ZM-7.595,-3.13C-7.595,-4.575 -7.105,-5.709 -6.128,-6.531C-5.151,-7.353 -3.771,-7.765 -1.984,-7.765C-0.212,-7.765 1.162,-7.353 2.14,-6.531C3.117,-5.709 3.606,-4.575 3.606,-3.13L3.606,-0.149C3.606,1.297 3.117,2.431 2.14,3.253C1.162,4.076 -0.212,4.487 -1.984,4.487C-3.771,4.487 -5.151,4.076 -6.128,3.253C-7.105,2.431 -7.595,1.297 -7.595,-0.149L-7.595,-3.13Z" style="fill:white;fill-rule:nonzero;"/>
                </g>
                <g transform="matrix(3.125,0,0,2.34375,568.445,427.508)">
                    <path d="M0,-8.493L0,-6.937C0,-5.094 -0.285,-3.626 -0.855,-2.533L2.367,-2.533L2.367,-8.493L0,-8.493ZM5.189,-11.39C5.482,-11.39 5.684,-11.338 5.8,-11.233C5.916,-11.129 5.973,-10.949 5.973,-10.696L5.973,-2.533L6.848,-2.533C7.139,-2.533 7.339,-2.483 7.449,-2.385C7.558,-2.284 7.612,-2.108 7.612,-1.854L7.612,2.201C7.612,2.455 7.558,2.636 7.449,2.74C7.339,2.845 7.139,2.897 6.848,2.897L4.844,2.897C4.553,2.897 4.349,2.845 4.234,2.74C4.118,2.636 4.062,2.455 4.062,2.201L4.062,0.364L-2.604,0.364L-2.604,2.201C-2.604,2.455 -2.662,2.636 -2.776,2.74C-2.893,2.845 -3.091,2.897 -3.37,2.897L-5.391,2.897C-5.671,2.897 -5.868,2.845 -5.982,2.74C-6.099,2.636 -6.156,2.455 -6.156,2.201L-6.156,-1.854C-6.156,-2.108 -6.099,-2.284 -5.982,-2.385C-5.868,-2.483 -5.671,-2.533 -5.391,-2.533L-4.991,-2.533C-4.492,-2.919 -4.125,-3.435 -3.888,-4.081C-3.651,-4.726 -3.533,-5.673 -3.533,-6.921L-3.533,-10.696C-3.533,-10.949 -3.477,-11.129 -3.36,-11.233C-3.244,-11.338 -3.041,-11.39 -2.75,-11.39L5.189,-11.39Z" style="fill:white;fill-rule:nonzero;"/>
                </g>
                <g transform="matrix(3.125,0,0,2.34375,629.111,428.361)">
                    <path d="M0,-11.771C0.291,-11.771 0.495,-11.718 0.611,-11.614C0.727,-11.508 0.783,-11.324 0.783,-11.06L0.783,-0.695C0.783,-0.441 0.727,-0.262 0.611,-0.157C0.495,-0.052 0.291,0 0,0L-2.04,0C-2.331,0 -2.534,-0.052 -2.649,-0.157C-2.766,-0.262 -2.822,-0.447 -2.822,-0.712L-2.822,-3.526C-2.822,-3.791 -2.819,-4.026 -2.813,-4.23C-2.807,-4.433 -2.792,-4.641 -2.769,-4.851C-2.743,-5.06 -2.726,-5.223 -2.713,-5.339C-2.701,-5.455 -2.667,-5.626 -2.613,-5.852C-2.558,-6.078 -2.516,-6.242 -2.485,-6.34C-2.455,-6.44 -2.397,-6.644 -2.313,-6.953C-2.228,-7.262 -2.167,-7.488 -2.13,-7.632L-2.276,-7.632C-2.616,-6.782 -2.886,-6.153 -3.087,-5.745C-3.286,-5.336 -3.587,-4.829 -3.988,-4.221L-6.501,-0.331C-6.635,-0.11 -6.883,0 -7.248,0L-9.451,0C-9.743,0 -9.945,-0.052 -10.062,-0.157C-10.177,-0.262 -10.235,-0.441 -10.235,-0.695L-10.235,-11.06C-10.235,-11.313 -10.177,-11.493 -10.062,-11.597C-9.945,-11.702 -9.743,-11.754 -9.451,-11.754L-7.394,-11.754C-7.103,-11.754 -6.901,-11.702 -6.792,-11.597C-6.684,-11.493 -6.629,-11.313 -6.629,-11.06L-6.629,-8.228C-6.629,-7.334 -6.668,-6.65 -6.747,-6.175C-6.826,-5.701 -7.011,-5.021 -7.303,-4.138L-7.175,-4.138C-6.52,-5.651 -5.937,-6.798 -5.427,-7.583L-2.95,-11.44C-2.792,-11.661 -2.537,-11.771 -2.186,-11.771L0,-11.771Z" style="fill:white;fill-rule:nonzero;"/>
                </g>
                <g transform="matrix(3.125,0,0,2.34375,669.574,428.361)">
                    <path d="M0,-11.771C0.278,-11.771 0.477,-11.718 0.592,-11.614C0.707,-11.508 0.765,-11.324 0.765,-11.06L0.765,-0.695C0.765,-0.441 0.707,-0.262 0.592,-0.157C0.477,-0.052 0.278,0 0,0L-2.076,0C-2.355,0 -2.553,-0.052 -2.668,-0.157C-2.784,-0.262 -2.841,-0.441 -2.841,-0.695L-2.841,-4.503L-6.374,-4.503L-6.374,-0.695C-6.374,-0.441 -6.43,-0.262 -6.538,-0.157C-6.647,-0.052 -6.848,0 -7.139,0L-9.197,0C-9.488,0 -9.691,-0.052 -9.808,-0.157C-9.923,-0.262 -9.98,-0.441 -9.98,-0.695L-9.98,-11.06C-9.98,-11.324 -9.923,-11.508 -9.808,-11.614C-9.691,-11.718 -9.488,-11.771 -9.197,-11.771L-7.139,-11.771C-6.848,-11.771 -6.647,-11.718 -6.538,-11.614C-6.43,-11.508 -6.374,-11.324 -6.374,-11.06L-6.374,-7.4L-2.841,-7.4L-2.841,-11.06C-2.841,-11.324 -2.784,-11.508 -2.668,-11.614C-2.553,-11.718 -2.355,-11.771 -2.076,-11.771L0,-11.771Z" style="fill:white;fill-rule:nonzero;"/>
                </g>
                <g transform="matrix(3.125,0,0,2.34375,714.252,413.579)">
                    <path d="M0,3.41C0.291,3.41 0.494,3.46 0.61,3.558C0.726,3.659 0.783,3.835 0.783,4.089L0.783,8.144C0.783,8.41 0.726,8.595 0.61,8.699C0.494,8.805 0.291,8.857 0,8.857L-1.876,8.857C-2.168,8.857 -2.368,8.805 -2.477,8.699C-2.586,8.595 -2.641,8.41 -2.641,8.144L-2.641,6.307L-10.563,6.307C-10.855,6.307 -11.058,6.255 -11.174,6.15C-11.289,6.045 -11.347,5.866 -11.347,5.612L-11.347,-4.753C-11.347,-5.006 -11.289,-5.186 -11.174,-5.29C-11.058,-5.395 -10.855,-5.447 -10.563,-5.447L-8.505,-5.447C-8.214,-5.447 -8.014,-5.395 -7.903,-5.29C-7.795,-5.186 -7.74,-5.006 -7.74,-4.753L-7.74,3.41L-4.353,3.41L-4.353,-4.753C-4.353,-5.006 -4.296,-5.186 -4.181,-5.29C-4.064,-5.395 -3.86,-5.447 -3.569,-5.447L-1.512,-5.447C-1.221,-5.447 -1.02,-5.395 -0.91,-5.29C-0.802,-5.186 -0.747,-5.006 -0.747,-4.753L-0.747,3.41L0,3.41Z" style="fill:white;fill-rule:nonzero;"/>
                </g>
                <g transform="matrix(3.125,0,0,2.34375,743.958,418.428)">
                    <path d="M0,-3.278C0,-3.798 -0.174,-4.191 -0.52,-4.462C-0.866,-4.732 -1.354,-4.867 -1.985,-4.867C-2.629,-4.867 -3.124,-4.732 -3.47,-4.462C-3.816,-4.191 -3.989,-3.798 -3.989,-3.278L-3.989,-0C-3.989,0.519 -3.816,0.913 -3.47,1.184C-3.124,1.454 -2.629,1.59 -1.985,1.59C-1.354,1.59 -0.866,1.454 -0.52,1.184C-0.174,0.913 0,0.519 0,-0L0,-3.278ZM-7.595,-3.13C-7.595,-4.575 -7.105,-5.709 -6.129,-6.531C-5.151,-7.353 -3.771,-7.765 -1.985,-7.765C-0.214,-7.765 1.162,-7.353 2.14,-6.531C3.116,-5.709 3.604,-4.575 3.604,-3.13L3.604,-0.149C3.604,1.297 3.116,2.431 2.14,3.253C1.162,4.076 -0.214,4.487 -1.985,4.487C-3.771,4.487 -5.151,4.076 -6.129,3.253C-7.105,2.431 -7.595,1.297 -7.595,-0.149L-7.595,-3.13Z" style="fill:white;fill-rule:nonzero;"/>
                </g>
                <g transform="matrix(3.125,0,0,2.34375,782.657,409.349)">
                    <path d="M0,4.453C0,3.813 -0.389,3.493 -1.166,3.493L-3.277,3.493L-3.277,5.43L-1.166,5.43C-0.389,5.43 0,5.104 0,4.453M-0.4,-0.068C-0.4,-0.685 -0.771,-0.993 -1.512,-0.993L-3.277,-0.993L-3.277,0.827L-1.512,0.827C-0.771,0.827 -0.4,0.529 -0.4,-0.068M-0.765,-3.659C0.498,-3.659 1.484,-3.386 2.194,-2.84C2.905,-2.293 3.26,-1.518 3.26,-0.514C3.26,0.568 2.823,1.38 1.949,1.92L1.949,1.986C3.175,2.473 3.788,3.422 3.788,4.834C3.788,5.871 3.372,6.677 2.541,7.252C1.709,7.825 0.631,8.112 -0.692,8.112L-6.101,8.112C-6.393,8.112 -6.595,8.059 -6.711,7.955C-6.826,7.849 -6.885,7.671 -6.885,7.417L-6.885,-2.948C-6.885,-3.212 -6.826,-3.397 -6.711,-3.502C-6.595,-3.607 -6.393,-3.659 -6.101,-3.659L-0.765,-3.659Z" style="fill:white;fill-rule:nonzero;"/>
                </g>
                <g transform="matrix(3.125,0,0,2.34375,822.494,418.428)">
                    <path d="M0,-3.278C0,-3.798 -0.174,-4.191 -0.52,-4.462C-0.866,-4.732 -1.354,-4.867 -1.985,-4.867C-2.629,-4.867 -3.124,-4.732 -3.47,-4.462C-3.816,-4.191 -3.989,-3.798 -3.989,-3.278L-3.989,-0C-3.989,0.519 -3.816,0.913 -3.47,1.184C-3.124,1.454 -2.629,1.59 -1.985,1.59C-1.354,1.59 -0.866,1.454 -0.52,1.184C-0.174,0.913 0,0.519 0,-0L0,-3.278ZM-7.595,-3.13C-7.595,-4.575 -7.105,-5.709 -6.129,-6.531C-5.151,-7.353 -3.771,-7.765 -1.985,-7.765C-0.214,-7.765 1.162,-7.353 2.14,-6.531C3.116,-5.709 3.605,-4.575 3.605,-3.13L3.605,-0.149C3.605,1.297 3.116,2.431 2.14,3.253C1.162,4.076 -0.214,4.487 -1.985,4.487C-3.771,4.487 -5.151,4.076 -6.129,3.253C-7.105,2.431 -7.595,1.297 -7.595,-0.149L-7.595,-3.13Z" style="fill:white;fill-rule:nonzero;"/>
                </g>
                <g transform="matrix(3.125,0,0,2.34375,297.717,422.732)">
                    <path d="M0,-23.177C-2.677,-23.576 -7.305,-23.704 -7.305,-23.704C-7.305,-23.704 7.656,-31.53 9.191,-36.09C10.726,-40.65 6.029,-42.966 0.586,-42.557C-4.857,-42.148 -17.478,-38.529 -26.534,-33.102C-35.591,-27.675 -38.527,-25.014 -37.17,-23.025C-36.777,-22.448 -35.917,-22.057 -34.377,-23.025C-32.838,-23.993 -28.332,-27.611 -21.775,-31.006C-19.727,-32.066 -15.289,-34.192 -11.585,-35.359C-8.111,-36.455 -5.644,-37.556 -2.421,-37.556C0.801,-37.556 0.933,-34.32 -5.687,-29.976C-12.306,-25.632 -24.924,-18.374 -24.924,-18.374C-24.924,-18.374 -27.81,-17.041 -28.499,-14.474C-29.189,-11.906 -28.164,-11.72 -26.439,-11.906C-24.714,-12.092 -14.339,-14.905 -13.812,-15.018C-13.284,-15.132 -9.726,-15.858 -7.362,-15.858C-5.684,-15.858 -3.764,-15.365 -2.589,-14.235C-2.11,-13.774 -1.743,-13.217 -1.586,-12.527C-1.047,-10.145 -1.198,-8.32 -7.417,-1.434C-13.636,5.452 -30.17,11.399 -36.382,13.26C-42.594,15.119 -43.049,14.793 -43.049,14.793C-43.049,14.793 -37.566,11.572 -37.566,9.844C-37.566,8.116 -39.598,7.544 -41.99,8.26C-44.381,8.977 -48.485,10.037 -52.687,14.239C-56.889,18.441 -48.561,19.305 -46.832,19.453C-42.895,19.789 -29.222,17.807 -19.892,13.094C-10.563,8.382 3.433,1.462 8.841,-9.368C10.616,-12.922 10.556,-15.583 9.588,-17.574C7.606,-21.653 1.799,-22.909 0,-23.177" style="fill:white;fill-rule:nonzero;"/>
                </g>
                <g transform="matrix(3.125,0,0,2.34375,401.401,376.242)">
                    <path d="M0,-2.314L-1.291,-0.171L-3.705,3.833C-3.848,4.072 -4.623,5.177 -4.885,5.269C-5.585,5.516 -6.77,6.023 -7.314,6.254C-8.364,6.7 -9.29,6.96 -9.702,7.076C-10.558,7.314 -11.365,7.178 -11.482,6.598C-11.685,5.597 -11.217,3.055 -8.732,0.969C-5.22,-1.98 -1.845,-2.716 -0.376,-2.901C-0.057,-2.941 0.166,-2.59 0,-2.314M1.58,6.311C2.048,5.446 4.827,0.21 7.345,-4.537C9.592,-8.774 11.631,-12.622 11.631,-12.622C11.631,-12.622 12.634,-15.263 8.61,-15.747C4.587,-16.231 -1.951,-13.556 -4.527,-12.189C-7.103,-10.821 -11.024,-9.214 -11.169,-5.974C-11.196,-5.376 -10.742,-4.677 -10.098,-4.614C-8.503,-4.459 -5.78,-6.532 -5.06,-7.252C-4.34,-7.972 -1.054,-10.258 -0.038,-10.667C0.978,-11.075 2.983,-12.221 4.129,-11.075C5.274,-9.93 3.728,-7.123 1.726,-6.364C0.618,-5.943 -7.568,-4.078 -12.977,-0.359C-13.3,-0.136 -13.616,0.089 -13.917,0.325C-19.687,4.836 -21.03,8.633 -20.653,11.182C-20.276,13.73 -16.049,13.917 -12.505,11.92C-8.961,9.924 -5.293,7.763 -5.293,7.763C-5.293,7.763 -4.865,8.488 -4.036,8.747C-2.509,9.222 0.632,8.059 1.58,6.311" style="fill:white;fill-rule:nonzero;"/>
                </g>
                <g transform="matrix(3.125,0,0,2.34375,467.077,390.347)">
                    <path d="M0,-6.212C-1.571,-5.179 -3.184,-5.055 -3.68,-5.323C-4.176,-5.592 -4.346,-6.518 -3.866,-7.474C-3.387,-8.43 -2.377,-10.451 -2.377,-10.451L-1.34,-12.48L1.814,-18.645C2.088,-19.181 2.538,-19.605 3.089,-19.848C4.084,-20.288 5.666,-20.971 6.244,-21.129C7.113,-21.368 9.532,-21.224 8.147,-17.461C7.721,-16.303 6.933,-14.89 6.003,-13.46C3.909,-10.24 1.089,-6.928 0,-6.212M13.202,-24.908C8.133,-24.908 2.025,-22.358 2.025,-22.358L1.353,-22.919C0.68,-23.48 -0.148,-23.005 -0.148,-23.005C-0.148,-23.005 -1.224,-22.664 -1.729,-22.358C-2.031,-22.174 -2.841,-21.86 -3.328,-21.567C-3.858,-21.248 -4.285,-20.784 -4.562,-20.23L-8.982,-11.342L-23.201,17.245C-23.814,18.227 -23.404,18.696 -22.908,18.696C-22.412,18.696 -15.936,16.456 -15.249,16.22C-14.562,15.983 -14.705,14.135 -14.295,12.94C-13.887,11.746 -6.805,-1.948 -6.805,-1.948C-6.805,-1.948 -1.494,-1.523 3.237,-4.235C6.976,-6.379 11.004,-10.786 13.695,-14.4C14.689,-15.736 15.506,-16.967 16.051,-17.931C18.068,-21.501 18.272,-24.908 13.202,-24.908" style="fill:white;fill-rule:nonzero;"/>
                </g>
                <g transform="matrix(3.125,0,0,2.34375,570.859,364.284)">
                    <path d="M0,-12.103C1.604,-12.769 2.946,-12.641 3.323,-12.39C3.753,-12.103 4.325,-10.298 1.317,-9.554C-1.689,-8.809 -3.382,-8.581 -4.928,-8.409C-4.928,-8.409 -2.329,-11.136 0,-12.103M-7.479,-4.922C-6.693,-5.604 -2.893,-4.828 3.335,-6.99C9.563,-9.152 10.131,-13.071 10.131,-13.494C10.131,-13.917 9.194,-18.749 -1.949,-14.497C-11.44,-10.876 -15.255,-5.256 -16.181,-3.665C-16.342,-3.388 -16.426,-3.218 -16.426,-3.218C-20.048,2.917 -17.157,5.192 -15.314,5.919C-13.471,6.646 -8.221,6.057 -4.259,4.513C-0.296,2.968 3.124,0.163 3.524,-0.319C3.925,-0.803 3.924,-2.135 0.963,-0.723C-1.999,0.689 -6.444,1.933 -9.039,1.241C-11.352,0.625 -8.93,-3.237 -7.819,-4.556C-7.684,-4.717 -7.563,-4.847 -7.479,-4.922" style="fill:white;fill-rule:nonzero;"/>
                </g>
                <g transform="matrix(3.125,0,0,2.34375,807.791,356.156)">
                    <path d="M0,-10.221C1.354,-10.783 2.487,-10.675 2.806,-10.463C3.169,-10.221 3.652,-8.697 1.112,-8.068C-1.428,-7.439 -2.856,-7.246 -4.162,-7.101C-4.162,-7.101 -1.968,-9.404 0,-10.221M-6.315,-4.156C-5.687,-4.703 -2.757,-4.144 2.04,-5.649C2.295,-5.729 2.551,-5.81 2.816,-5.903C8.076,-7.728 8.555,-11.038 8.555,-11.396C8.555,-11.753 7.765,-15.833 -1.646,-12.243C-6.958,-10.217 -10.167,-7.444 -11.956,-5.412C-13.337,-3.845 -13.872,-2.718 -13.872,-2.718C-16.932,2.464 -14.49,4.386 -12.934,4.999C-11.377,5.612 -6.942,5.115 -3.597,3.811C-0.251,2.507 2.638,0.138 2.976,-0.27C3.313,-0.678 3.313,-1.803 0.812,-0.61C-1.689,0.583 -5.443,1.632 -7.634,1.049C-9.825,0.465 -6.979,-3.58 -6.315,-4.156" style="fill:white;fill-rule:nonzero;"/>
                </g>
                <g transform="matrix(3.125,0,0,2.34375,668.231,367.946)">
                    <path d="M0,-18.544C0,-18.544 -2.871,-12.068 -6.181,-10.203C-7.663,-9.367 -8.727,-8.843 -9.59,-8.57C-10.348,-8.33 -10.952,-8.292 -11.516,-8.442C-11.742,-8.503 -11.967,-8.583 -12.191,-8.702C-13.615,-9.455 -12.907,-11.244 -10.932,-13.392C-8.957,-15.539 -7.321,-17.255 -7.321,-17.255C-7.321,-17.255 -6.612,-17.558 -9.318,-17.825C-12.025,-18.091 -14.505,-17.146 -14.505,-17.146L-20.304,-10.69C-20.304,-10.69 -21.495,-9.237 -20.92,-7.748C-20.651,-7.052 -20,-6.348 -18.654,-5.78C-14.431,-3.999 -7.196,-6.386 -7.196,-6.386C-7.196,-6.386 -10.767,-0.42 -11.065,-0.164C-11.365,0.092 -11.339,0.855 -10.822,0.784C-10.305,0.712 -4.053,0.267 -3.68,-0.107C-3.499,-0.287 -0.845,-4.716 1.805,-9.254C4.607,-14.056 7.405,-18.979 7.263,-19.122C6.985,-19.399 0,-18.544 0,-18.544" style="fill:white;fill-rule:nonzero;"/>
                </g>
                <g transform="matrix(3.125,0,0,2.34375,738.336,342.445)">
                    <path d="M0,2.027C-1.568,5.357 -7.391,7.655 -9.71,8.131C-12.03,8.605 -10.655,6.324 -10.655,6.324C-10.655,6.324 -8.42,2.053 -7.155,1.13C-7.08,1.075 -7.003,1.036 -6.928,0.983C-5.339,-0.127 -3.669,-0.79 -2.137,-0.992C-0.479,-1.21 1.012,-1.273 0.496,0.712C0.4,1.079 0.244,1.507 0,2.027M1.316,-4.01C0,-3.873 -4.675,-2.783 -4.675,-2.783L-0.433,-8.63C-0.433,-8.63 -2.707,-9.083 -5.543,-8.69C-6.493,-8.557 -7.627,-8.478 -8.468,-7.82L-14.566,1.317L-19.721,9.04C-19.721,9.04 -21.082,11.11 -18.618,11.11C-16.155,11.11 -9.391,11.108 -4.352,9.203C0.417,7.4 5.113,4.109 6.316,0.538C6.385,0.336 6.447,0.133 6.492,-0.071C7.333,-3.873 2.634,-4.145 1.316,-4.01" style="fill:white;fill-rule:nonzero;"/>
                </g>
            </g>
        </g>
    </g>
</svg>
